G75*
%MOIN*%
%OFA0B0*%
%FSLAX25Y25*%
%IPPOS*%
%LPD*%
%AMOC8*
5,1,8,0,0,1.08239X$1,22.5*
%
%ADD10C,0.00600*%
%ADD11R,0.05937X0.05937*%
%ADD12C,0.05937*%
%ADD13C,0.00000*%
%ADD14C,0.10630*%
%ADD15C,0.07400*%
%ADD16C,0.00800*%
D10*
X0001300Y0001300D02*
X0001300Y0106300D01*
X0141300Y0106300D01*
X0141300Y0001300D01*
X0001300Y0001300D01*
X0005900Y0005900D02*
X0013385Y0005900D01*
X0012131Y0006236D01*
X0009669Y0007658D01*
X0007658Y0009669D01*
X0006236Y0012131D01*
X0005900Y0013385D01*
X0005900Y0005900D01*
X0005900Y0005928D02*
X0013281Y0005928D01*
X0011628Y0006526D02*
X0005900Y0006526D01*
X0005900Y0007125D02*
X0010592Y0007125D01*
X0009603Y0007723D02*
X0005900Y0007723D01*
X0005900Y0008322D02*
X0009005Y0008322D01*
X0008406Y0008920D02*
X0005900Y0008920D01*
X0005900Y0009519D02*
X0007808Y0009519D01*
X0007399Y0010117D02*
X0005900Y0010117D01*
X0005900Y0010716D02*
X0007053Y0010716D01*
X0006708Y0011314D02*
X0005900Y0011314D01*
X0005900Y0011913D02*
X0006362Y0011913D01*
X0006134Y0012511D02*
X0005900Y0012511D01*
X0005900Y0013110D02*
X0005974Y0013110D01*
X0005900Y0019215D02*
X0005900Y0088385D01*
X0005900Y0019215D01*
X0006236Y0020469D01*
X0007658Y0022931D01*
X0009669Y0024942D01*
X0012131Y0026364D01*
X0014878Y0027100D01*
X0017722Y0027100D01*
X0020469Y0026364D01*
X0022931Y0024942D01*
X0024942Y0022931D01*
X0026364Y0020469D01*
X0027100Y0017722D01*
X0027100Y0014878D01*
X0026364Y0012131D01*
X0024942Y0009669D01*
X0022931Y0007658D01*
X0020469Y0006236D01*
X0019215Y0005900D01*
X0123385Y0005900D01*
X0122131Y0006236D01*
X0119669Y0007658D01*
X0117658Y0009669D01*
X0116236Y0012131D01*
X0115500Y0014878D01*
X0115500Y0017722D01*
X0116236Y0020469D01*
X0117658Y0022931D01*
X0119669Y0024942D01*
X0122131Y0026364D01*
X0124878Y0027100D01*
X0127722Y0027100D01*
X0130469Y0026364D01*
X0132931Y0024942D01*
X0134942Y0022931D01*
X0136364Y0020469D01*
X0136700Y0019215D01*
X0136700Y0088385D01*
X0136364Y0087131D01*
X0134942Y0084669D01*
X0132931Y0082658D01*
X0130469Y0081236D01*
X0127722Y0080500D01*
X0124878Y0080500D01*
X0122131Y0081236D01*
X0119669Y0082658D01*
X0117658Y0084669D01*
X0116236Y0087131D01*
X0115500Y0089878D01*
X0115500Y0092722D01*
X0116236Y0095469D01*
X0117658Y0097931D01*
X0119669Y0099942D01*
X0122131Y0101364D01*
X0123385Y0101700D01*
X0019215Y0101700D01*
X0123385Y0101700D01*
X0122131Y0101364D01*
X0119669Y0099942D01*
X0117658Y0097931D01*
X0116236Y0095469D01*
X0115500Y0092722D01*
X0115500Y0089878D01*
X0116236Y0087131D01*
X0117658Y0084669D01*
X0119669Y0082658D01*
X0122131Y0081236D01*
X0124878Y0080500D01*
X0127722Y0080500D01*
X0130469Y0081236D01*
X0132931Y0082658D01*
X0134942Y0084669D01*
X0136364Y0087131D01*
X0136700Y0088385D01*
X0136700Y0019215D01*
X0136364Y0020469D01*
X0134942Y0022931D01*
X0132931Y0024942D01*
X0130469Y0026364D01*
X0127722Y0027100D01*
X0124878Y0027100D01*
X0122131Y0026364D01*
X0119669Y0024942D01*
X0117658Y0022931D01*
X0116236Y0020469D01*
X0115500Y0017722D01*
X0115500Y0014878D01*
X0116236Y0012131D01*
X0117658Y0009669D01*
X0119669Y0007658D01*
X0122131Y0006236D01*
X0123385Y0005900D01*
X0019215Y0005900D01*
X0020469Y0006236D01*
X0022931Y0007658D01*
X0024942Y0009669D01*
X0026364Y0012131D01*
X0027100Y0014878D01*
X0027100Y0017722D01*
X0026364Y0020469D01*
X0024942Y0022931D01*
X0022931Y0024942D01*
X0020469Y0026364D01*
X0017722Y0027100D01*
X0014878Y0027100D01*
X0012131Y0026364D01*
X0009669Y0024942D01*
X0007658Y0022931D01*
X0006236Y0020469D01*
X0005900Y0019215D01*
X0005900Y0019694D02*
X0006028Y0019694D01*
X0005900Y0019694D01*
X0005900Y0020292D02*
X0006189Y0020292D01*
X0005900Y0020292D01*
X0005900Y0020891D02*
X0006480Y0020891D01*
X0005900Y0020891D01*
X0005900Y0021489D02*
X0006825Y0021489D01*
X0005900Y0021489D01*
X0005900Y0022088D02*
X0007171Y0022088D01*
X0005900Y0022088D01*
X0005900Y0022686D02*
X0007516Y0022686D01*
X0005900Y0022686D01*
X0005900Y0023285D02*
X0008011Y0023285D01*
X0005900Y0023285D01*
X0005900Y0023883D02*
X0008610Y0023883D01*
X0005900Y0023883D01*
X0005900Y0024482D02*
X0009208Y0024482D01*
X0005900Y0024482D01*
X0005900Y0025080D02*
X0009908Y0025080D01*
X0005900Y0025080D01*
X0005900Y0025679D02*
X0010944Y0025679D01*
X0005900Y0025679D01*
X0005900Y0026277D02*
X0011981Y0026277D01*
X0005900Y0026277D01*
X0005900Y0026876D02*
X0014041Y0026876D01*
X0005900Y0026876D01*
X0005900Y0027474D02*
X0036250Y0027474D01*
X0005900Y0027474D01*
X0005900Y0028073D02*
X0036090Y0028073D01*
X0005900Y0028073D01*
X0005900Y0028671D02*
X0035929Y0028671D01*
X0005900Y0028671D01*
X0005900Y0029270D02*
X0035769Y0029270D01*
X0005900Y0029270D01*
X0005900Y0029868D02*
X0035609Y0029868D01*
X0005900Y0029868D01*
X0005900Y0030467D02*
X0035602Y0030467D01*
X0005900Y0030467D01*
X0005900Y0031065D02*
X0035602Y0031065D01*
X0005900Y0031065D01*
X0005900Y0031664D02*
X0035602Y0031664D01*
X0005900Y0031664D01*
X0005900Y0032262D02*
X0035602Y0032262D01*
X0005900Y0032262D01*
X0005900Y0032861D02*
X0035643Y0032861D01*
X0005900Y0032861D01*
X0005900Y0033459D02*
X0035804Y0033459D01*
X0005900Y0033459D01*
X0005900Y0034058D02*
X0035964Y0034058D01*
X0005900Y0034058D01*
X0005900Y0034656D02*
X0036124Y0034656D01*
X0005900Y0034656D01*
X0005900Y0035255D02*
X0036285Y0035255D01*
X0005900Y0035255D01*
X0005900Y0035853D02*
X0036576Y0035853D01*
X0005900Y0035853D01*
X0005900Y0036452D02*
X0036922Y0036452D01*
X0005900Y0036452D01*
X0005900Y0037050D02*
X0037267Y0037050D01*
X0005900Y0037050D01*
X0005900Y0037649D02*
X0037613Y0037649D01*
X0005900Y0037649D01*
X0005900Y0038247D02*
X0038119Y0038247D01*
X0005900Y0038247D01*
X0005900Y0038846D02*
X0037435Y0038846D01*
X0037161Y0038527D02*
X0037999Y0038302D01*
X0038153Y0038282D01*
X0037740Y0037868D01*
X0036331Y0035429D01*
X0035602Y0032708D01*
X0035602Y0029892D01*
X0036331Y0027171D01*
X0037740Y0024731D01*
X0039731Y0022740D01*
X0042171Y0021331D01*
X0044892Y0020602D01*
X0047708Y0020602D01*
X0050429Y0021331D01*
X0052868Y0022740D01*
X0054860Y0024731D01*
X0056269Y0027171D01*
X0056998Y0029892D01*
X0056998Y0032708D01*
X0056269Y0035429D01*
X0054860Y0037868D01*
X0052868Y0039860D01*
X0050429Y0041269D01*
X0047708Y0041998D01*
X0044892Y0041998D01*
X0044852Y0041987D01*
X0045507Y0043568D01*
X0045507Y0046040D01*
X0044561Y0048324D01*
X0042813Y0050073D01*
X0040528Y0051019D01*
X0038056Y0051019D01*
X0035772Y0050073D01*
X0034023Y0048324D01*
X0033077Y0046040D01*
X0033077Y0043568D01*
X0034023Y0041283D01*
X0035772Y0039535D01*
X0038056Y0038589D01*
X0038460Y0038589D01*
X0037740Y0037868D01*
X0036331Y0035429D01*
X0035602Y0032708D01*
X0035602Y0029892D01*
X0036331Y0027171D01*
X0037740Y0024731D01*
X0039731Y0022740D01*
X0042171Y0021331D01*
X0044892Y0020602D01*
X0047708Y0020602D01*
X0050429Y0021331D01*
X0052868Y0022740D01*
X0054860Y0024731D01*
X0056269Y0027171D01*
X0056998Y0029892D01*
X0056998Y0032708D01*
X0056269Y0035429D01*
X0054860Y0037868D01*
X0052868Y0039860D01*
X0050429Y0041269D01*
X0047708Y0041998D01*
X0045290Y0041998D01*
X0045569Y0042673D01*
X0045794Y0043511D01*
X0045907Y0044370D01*
X0045907Y0044504D01*
X0039592Y0044504D01*
X0039592Y0045104D01*
X0038992Y0045104D01*
X0038992Y0044504D01*
X0032677Y0044504D01*
X0032677Y0044370D01*
X0032790Y0043511D01*
X0033015Y0042673D01*
X0033347Y0041872D01*
X0033780Y0041121D01*
X0034308Y0040433D01*
X0034921Y0039820D01*
X0035609Y0039292D01*
X0036360Y0038858D01*
X0037161Y0038527D01*
X0036390Y0038846D02*
X0005900Y0038846D01*
X0005900Y0039444D02*
X0035991Y0039444D01*
X0035410Y0039444D02*
X0005900Y0039444D01*
X0005900Y0040043D02*
X0035264Y0040043D01*
X0034698Y0040043D02*
X0005900Y0040043D01*
X0005900Y0040641D02*
X0034665Y0040641D01*
X0034148Y0040641D02*
X0005900Y0040641D01*
X0005900Y0041240D02*
X0034067Y0041240D01*
X0033711Y0041240D02*
X0005900Y0041240D01*
X0005900Y0041839D02*
X0033793Y0041839D01*
X0033366Y0041839D02*
X0005900Y0041839D01*
X0005900Y0042437D02*
X0033545Y0042437D01*
X0033113Y0042437D02*
X0005900Y0042437D01*
X0005900Y0043036D02*
X0033298Y0043036D01*
X0032918Y0043036D02*
X0005900Y0043036D01*
X0005900Y0043634D02*
X0033077Y0043634D01*
X0032774Y0043634D02*
X0005900Y0043634D01*
X0005900Y0044233D02*
X0033077Y0044233D01*
X0032695Y0044233D02*
X0005900Y0044233D01*
X0005900Y0044831D02*
X0033077Y0044831D01*
X0032677Y0045104D02*
X0032677Y0045237D01*
X0032790Y0046097D01*
X0033015Y0046935D01*
X0033347Y0047736D01*
X0033780Y0048487D01*
X0034308Y0049175D01*
X0034921Y0049788D01*
X0035609Y0050316D01*
X0036360Y0050749D01*
X0037161Y0051081D01*
X0037999Y0051306D01*
X0038859Y0051419D01*
X0038992Y0051419D01*
X0038992Y0045104D01*
X0032677Y0045104D01*
X0032702Y0045430D02*
X0005900Y0045430D01*
X0033077Y0045430D01*
X0033077Y0046028D02*
X0005900Y0046028D01*
X0032781Y0046028D01*
X0032932Y0046627D02*
X0005900Y0046627D01*
X0033320Y0046627D01*
X0033135Y0047225D02*
X0005900Y0047225D01*
X0033568Y0047225D01*
X0033397Y0047824D02*
X0005900Y0047824D01*
X0033816Y0047824D01*
X0033743Y0048422D02*
X0005900Y0048422D01*
X0034121Y0048422D01*
X0034190Y0049021D02*
X0005900Y0049021D01*
X0034720Y0049021D01*
X0034752Y0049619D02*
X0005900Y0049619D01*
X0035318Y0049619D01*
X0035481Y0050218D02*
X0005900Y0050218D01*
X0036122Y0050218D01*
X0036521Y0050816D02*
X0005900Y0050816D01*
X0037567Y0050816D01*
X0038827Y0051415D02*
X0005900Y0051415D01*
X0054920Y0051415D01*
X0039758Y0051415D01*
X0039726Y0051419D02*
X0039592Y0051419D01*
X0039592Y0045104D01*
X0045907Y0045104D01*
X0045907Y0045237D01*
X0045794Y0046097D01*
X0045569Y0046935D01*
X0045238Y0047736D01*
X0044804Y0048487D01*
X0044276Y0049175D01*
X0043663Y0049788D01*
X0042975Y0050316D01*
X0042224Y0050749D01*
X0041423Y0051081D01*
X0040585Y0051306D01*
X0039726Y0051419D01*
X0039592Y0051415D02*
X0038992Y0051415D01*
X0038992Y0050816D02*
X0039592Y0050816D01*
X0039592Y0050218D02*
X0038992Y0050218D01*
X0038992Y0049619D02*
X0039592Y0049619D01*
X0039592Y0049021D02*
X0038992Y0049021D01*
X0038992Y0048422D02*
X0039592Y0048422D01*
X0039592Y0047824D02*
X0038992Y0047824D01*
X0038992Y0047225D02*
X0039592Y0047225D01*
X0039592Y0046627D02*
X0038992Y0046627D01*
X0038992Y0046028D02*
X0039592Y0046028D01*
X0039592Y0045430D02*
X0038992Y0045430D01*
X0038992Y0044831D02*
X0005900Y0044831D01*
X0005900Y0052013D02*
X0055984Y0052013D01*
X0005900Y0052013D01*
X0005900Y0052612D02*
X0055984Y0052612D01*
X0005900Y0052612D01*
X0005900Y0053210D02*
X0055984Y0053210D01*
X0005900Y0053210D01*
X0005900Y0053809D02*
X0055984Y0053809D01*
X0005900Y0053809D01*
X0005900Y0054407D02*
X0055984Y0054407D01*
X0005900Y0054407D01*
X0005900Y0055006D02*
X0055984Y0055006D01*
X0005900Y0055006D01*
X0005900Y0055604D02*
X0055984Y0055604D01*
X0005900Y0055604D01*
X0005900Y0056203D02*
X0055984Y0056203D01*
X0005900Y0056203D01*
X0005900Y0056801D02*
X0055984Y0056801D01*
X0005900Y0056801D01*
X0005900Y0057400D02*
X0055984Y0057400D01*
X0005900Y0057400D01*
X0005900Y0057998D02*
X0055984Y0057998D01*
X0005900Y0057998D01*
X0005900Y0058597D02*
X0055984Y0058597D01*
X0005900Y0058597D01*
X0005900Y0059195D02*
X0055984Y0059195D01*
X0005900Y0059195D01*
X0005900Y0059794D02*
X0055984Y0059794D01*
X0005900Y0059794D01*
X0005900Y0060392D02*
X0055984Y0060392D01*
X0005900Y0060392D01*
X0005900Y0060991D02*
X0055984Y0060991D01*
X0005900Y0060991D01*
X0005900Y0061589D02*
X0055984Y0061589D01*
X0005900Y0061589D01*
X0005900Y0062188D02*
X0055984Y0062188D01*
X0005900Y0062188D01*
X0005900Y0062786D02*
X0055984Y0062786D01*
X0005900Y0062786D01*
X0005900Y0063385D02*
X0055984Y0063385D01*
X0005900Y0063385D01*
X0005900Y0063983D02*
X0042152Y0063983D01*
X0005900Y0063983D01*
X0005900Y0064582D02*
X0041524Y0064582D01*
X0005900Y0064582D01*
X0005900Y0065180D02*
X0040976Y0065180D01*
X0005900Y0065180D01*
X0005900Y0065779D02*
X0040728Y0065779D01*
X0005900Y0065779D01*
X0005900Y0066377D02*
X0040480Y0066377D01*
X0005900Y0066377D01*
X0005900Y0066976D02*
X0040424Y0066976D01*
X0005900Y0066976D01*
X0005900Y0067574D02*
X0040424Y0067574D01*
X0005900Y0067574D01*
X0005900Y0068173D02*
X0040473Y0068173D01*
X0005900Y0068173D01*
X0005900Y0068772D02*
X0040721Y0068772D01*
X0005900Y0068772D01*
X0005900Y0069370D02*
X0040969Y0069370D01*
X0005900Y0069370D01*
X0005900Y0069969D02*
X0041506Y0069969D01*
X0005900Y0069969D01*
X0005900Y0070567D02*
X0042109Y0070567D01*
X0005900Y0070567D01*
X0005900Y0071166D02*
X0054596Y0071166D01*
X0005900Y0071166D01*
X0005900Y0071764D02*
X0053997Y0071764D01*
X0005900Y0071764D01*
X0005900Y0072363D02*
X0053399Y0072363D01*
X0005900Y0072363D01*
X0005900Y0072961D02*
X0052800Y0072961D01*
X0005900Y0072961D01*
X0005900Y0073560D02*
X0052202Y0073560D01*
X0005900Y0073560D01*
X0005900Y0074158D02*
X0051603Y0074158D01*
X0005900Y0074158D01*
X0005900Y0074757D02*
X0051005Y0074757D01*
X0005900Y0074757D01*
X0005900Y0075355D02*
X0050406Y0075355D01*
X0005900Y0075355D01*
X0005900Y0075954D02*
X0049808Y0075954D01*
X0005900Y0075954D01*
X0005900Y0076552D02*
X0049209Y0076552D01*
X0005900Y0076552D01*
X0005900Y0077151D02*
X0048611Y0077151D01*
X0005900Y0077151D01*
X0005900Y0077749D02*
X0048012Y0077749D01*
X0005900Y0077749D01*
X0005900Y0078348D02*
X0047414Y0078348D01*
X0005900Y0078348D01*
X0005900Y0078946D02*
X0046815Y0078946D01*
X0005900Y0078946D01*
X0005900Y0079545D02*
X0046217Y0079545D01*
X0005900Y0079545D01*
X0005900Y0080143D02*
X0045618Y0080143D01*
X0005900Y0080143D01*
X0005900Y0080742D02*
X0013976Y0080742D01*
X0005900Y0080742D01*
X0005900Y0081340D02*
X0011951Y0081340D01*
X0005900Y0081340D01*
X0005900Y0081939D02*
X0010914Y0081939D01*
X0005900Y0081939D01*
X0005900Y0082537D02*
X0009877Y0082537D01*
X0005900Y0082537D01*
X0005900Y0083136D02*
X0009191Y0083136D01*
X0005900Y0083136D01*
X0005900Y0083734D02*
X0008592Y0083734D01*
X0005900Y0083734D01*
X0005900Y0084333D02*
X0007994Y0084333D01*
X0005900Y0084333D01*
X0005900Y0084931D02*
X0007506Y0084931D01*
X0005900Y0084931D01*
X0005900Y0085530D02*
X0007161Y0085530D01*
X0005900Y0085530D01*
X0005900Y0086128D02*
X0006815Y0086128D01*
X0005900Y0086128D01*
X0005900Y0086727D02*
X0006470Y0086727D01*
X0005900Y0086727D01*
X0006236Y0087131D02*
X0007658Y0084669D01*
X0009669Y0082658D01*
X0012131Y0081236D01*
X0014878Y0080500D01*
X0017722Y0080500D01*
X0020469Y0081236D01*
X0022931Y0082658D01*
X0024942Y0084669D01*
X0026364Y0087131D01*
X0027100Y0089878D01*
X0027100Y0092722D01*
X0026364Y0095469D01*
X0024942Y0097931D01*
X0022931Y0099942D01*
X0020469Y0101364D01*
X0019215Y0101700D01*
X0020469Y0101364D01*
X0022931Y0099942D01*
X0024942Y0097931D01*
X0026364Y0095469D01*
X0027100Y0092722D01*
X0027100Y0089878D01*
X0026364Y0087131D01*
X0024942Y0084669D01*
X0022931Y0082658D01*
X0020469Y0081236D01*
X0017722Y0080500D01*
X0014878Y0080500D01*
X0012131Y0081236D01*
X0009669Y0082658D01*
X0007658Y0084669D01*
X0006236Y0087131D01*
X0005900Y0088385D01*
X0006236Y0087131D01*
X0006184Y0087325D02*
X0005900Y0087325D01*
X0006184Y0087325D01*
X0006024Y0087924D02*
X0005900Y0087924D01*
X0006024Y0087924D01*
X0005900Y0094215D02*
X0005900Y0101700D01*
X0013385Y0101700D01*
X0012131Y0101364D01*
X0009669Y0099942D01*
X0007658Y0097931D01*
X0006236Y0095469D01*
X0005900Y0094215D01*
X0005900Y0094508D02*
X0005978Y0094508D01*
X0005900Y0095106D02*
X0006139Y0095106D01*
X0006372Y0095705D02*
X0005900Y0095705D01*
X0005900Y0096303D02*
X0006718Y0096303D01*
X0007063Y0096902D02*
X0005900Y0096902D01*
X0005900Y0097500D02*
X0007409Y0097500D01*
X0007825Y0098099D02*
X0005900Y0098099D01*
X0005900Y0098697D02*
X0008424Y0098697D01*
X0009022Y0099296D02*
X0005900Y0099296D01*
X0005900Y0099894D02*
X0009621Y0099894D01*
X0010622Y0100493D02*
X0005900Y0100493D01*
X0005900Y0101091D02*
X0011659Y0101091D01*
X0013347Y0101690D02*
X0005900Y0101690D01*
X0019253Y0101690D02*
X0123347Y0101690D01*
X0019253Y0101690D01*
X0020941Y0101091D02*
X0121659Y0101091D01*
X0020941Y0101091D01*
X0021978Y0100493D02*
X0120622Y0100493D01*
X0021978Y0100493D01*
X0022979Y0099894D02*
X0119621Y0099894D01*
X0022979Y0099894D01*
X0023578Y0099296D02*
X0119022Y0099296D01*
X0023578Y0099296D01*
X0024176Y0098697D02*
X0118424Y0098697D01*
X0024176Y0098697D01*
X0024775Y0098099D02*
X0117825Y0098099D01*
X0024775Y0098099D01*
X0025191Y0097500D02*
X0117409Y0097500D01*
X0025191Y0097500D01*
X0025537Y0096902D02*
X0117063Y0096902D01*
X0025537Y0096902D01*
X0025882Y0096303D02*
X0116718Y0096303D01*
X0025882Y0096303D01*
X0026228Y0095705D02*
X0034913Y0095705D01*
X0026228Y0095705D01*
X0026461Y0095106D02*
X0033601Y0095106D01*
X0026461Y0095106D01*
X0026622Y0094508D02*
X0033002Y0094508D01*
X0026622Y0094508D01*
X0026782Y0093909D02*
X0032404Y0093909D01*
X0026782Y0093909D01*
X0026942Y0093310D02*
X0032154Y0093310D01*
X0026942Y0093310D01*
X0027100Y0092712D02*
X0031906Y0092712D01*
X0027100Y0092712D01*
X0027100Y0092113D02*
X0031700Y0092113D01*
X0027100Y0092113D01*
X0027100Y0091515D02*
X0031700Y0091515D01*
X0027100Y0091515D01*
X0027100Y0090916D02*
X0031700Y0090916D01*
X0027100Y0090916D01*
X0027100Y0090318D02*
X0031728Y0090318D01*
X0027100Y0090318D01*
X0027057Y0089719D02*
X0031976Y0089719D01*
X0027057Y0089719D01*
X0026897Y0089121D02*
X0032224Y0089121D01*
X0026897Y0089121D01*
X0026737Y0088522D02*
X0032572Y0088522D01*
X0026737Y0088522D01*
X0026576Y0087924D02*
X0033171Y0087924D01*
X0026576Y0087924D01*
X0026416Y0087325D02*
X0033875Y0087325D01*
X0026416Y0087325D01*
X0026130Y0086727D02*
X0035320Y0086727D01*
X0026130Y0086727D01*
X0025785Y0086128D02*
X0039633Y0086128D01*
X0025785Y0086128D01*
X0025439Y0085530D02*
X0040232Y0085530D01*
X0025439Y0085530D01*
X0025094Y0084931D02*
X0040830Y0084931D01*
X0025094Y0084931D01*
X0024606Y0084333D02*
X0041429Y0084333D01*
X0024606Y0084333D01*
X0024008Y0083734D02*
X0042027Y0083734D01*
X0024008Y0083734D01*
X0023409Y0083136D02*
X0042626Y0083136D01*
X0023409Y0083136D01*
X0022723Y0082537D02*
X0043224Y0082537D01*
X0022723Y0082537D01*
X0021686Y0081939D02*
X0043823Y0081939D01*
X0021686Y0081939D01*
X0020649Y0081340D02*
X0044421Y0081340D01*
X0020649Y0081340D01*
X0018624Y0080742D02*
X0045020Y0080742D01*
X0018624Y0080742D01*
X0032400Y0088694D02*
X0031700Y0090385D01*
X0031700Y0092215D01*
X0032400Y0093906D01*
X0033694Y0095200D01*
X0035385Y0095900D01*
X0037215Y0095900D01*
X0038906Y0095200D01*
X0040200Y0093906D01*
X0040900Y0092215D01*
X0040900Y0090385D01*
X0040359Y0089079D01*
X0058584Y0070854D01*
X0058584Y0051957D01*
X0059476Y0051587D01*
X0060000Y0051063D01*
X0060000Y0075762D01*
X0048521Y0087241D01*
X0047215Y0086700D01*
X0045385Y0086700D01*
X0043694Y0087400D01*
X0042400Y0088694D01*
X0041700Y0090385D01*
X0041700Y0092215D01*
X0042400Y0093906D01*
X0043694Y0095200D01*
X0045385Y0095900D01*
X0047215Y0095900D01*
X0048906Y0095200D01*
X0050200Y0093906D01*
X0050900Y0092215D01*
X0050900Y0090385D01*
X0050359Y0089079D01*
X0062600Y0076838D01*
X0062600Y0051063D01*
X0063124Y0051587D01*
X0064016Y0051957D01*
X0064016Y0081746D01*
X0058521Y0087241D01*
X0057215Y0086700D01*
X0055385Y0086700D01*
X0053694Y0087400D01*
X0052400Y0088694D01*
X0051700Y0090385D01*
X0051700Y0092215D01*
X0052400Y0093906D01*
X0053694Y0095200D01*
X0055385Y0095900D01*
X0057215Y0095900D01*
X0058906Y0095200D01*
X0060200Y0093906D01*
X0060900Y0092215D01*
X0060900Y0090385D01*
X0060359Y0089079D01*
X0066616Y0082823D01*
X0066616Y0051957D01*
X0067507Y0051587D01*
X0068031Y0051063D01*
X0068031Y0087038D01*
X0067215Y0086700D01*
X0065385Y0086700D01*
X0063694Y0087400D01*
X0062400Y0088694D01*
X0061700Y0090385D01*
X0061700Y0092215D01*
X0062400Y0093906D01*
X0063694Y0095200D01*
X0065385Y0095900D01*
X0067215Y0095900D01*
X0068906Y0095200D01*
X0070200Y0093906D01*
X0070900Y0092215D01*
X0070900Y0090385D01*
X0070359Y0089079D01*
X0070631Y0088807D01*
X0070631Y0051063D01*
X0071156Y0051587D01*
X0072047Y0051957D01*
X0072047Y0088886D01*
X0072241Y0089079D01*
X0071700Y0090385D01*
X0071700Y0092215D01*
X0072400Y0093906D01*
X0073694Y0095200D01*
X0075385Y0095900D01*
X0077215Y0095900D01*
X0078906Y0095200D01*
X0080200Y0093906D01*
X0080900Y0092215D01*
X0080900Y0090385D01*
X0080200Y0088694D01*
X0078906Y0087400D01*
X0077215Y0086700D01*
X0075385Y0086700D01*
X0074647Y0087006D01*
X0074647Y0051957D01*
X0075539Y0051587D01*
X0076063Y0051063D01*
X0076063Y0082901D01*
X0082241Y0089079D01*
X0081700Y0090385D01*
X0081700Y0092215D01*
X0082400Y0093906D01*
X0083694Y0095200D01*
X0085385Y0095900D01*
X0087215Y0095900D01*
X0088906Y0095200D01*
X0090200Y0093906D01*
X0090900Y0092215D01*
X0090900Y0090385D01*
X0090200Y0088694D01*
X0088906Y0087400D01*
X0087215Y0086700D01*
X0085385Y0086700D01*
X0084079Y0087241D01*
X0078663Y0081825D01*
X0078663Y0051063D01*
X0079187Y0051587D01*
X0080079Y0051957D01*
X0080079Y0076917D01*
X0092241Y0089079D01*
X0091700Y0090385D01*
X0091700Y0092215D01*
X0092400Y0093906D01*
X0093694Y0095200D01*
X0095385Y0095900D01*
X0097215Y0095900D01*
X0098906Y0095200D01*
X0100200Y0093906D01*
X0100900Y0092215D01*
X0100900Y0090385D01*
X0100200Y0088694D01*
X0098906Y0087400D01*
X0097215Y0086700D01*
X0095385Y0086700D01*
X0094079Y0087241D01*
X0082679Y0075840D01*
X0082679Y0051957D01*
X0083570Y0051587D01*
X0084094Y0051063D01*
X0084094Y0065031D01*
X0084024Y0065102D01*
X0084024Y0070862D01*
X0102241Y0089079D01*
X0101700Y0090385D01*
X0101700Y0092215D01*
X0102400Y0093906D01*
X0103694Y0095200D01*
X0105385Y0095900D01*
X0107215Y0095900D01*
X0108906Y0095200D01*
X0110200Y0093906D01*
X0110900Y0092215D01*
X0110900Y0090385D01*
X0110200Y0088694D01*
X0108906Y0087400D01*
X0107215Y0086700D01*
X0105385Y0086700D01*
X0104079Y0087241D01*
X0087615Y0070777D01*
X0088523Y0071153D01*
X0090062Y0071153D01*
X0091483Y0070564D01*
X0092572Y0069476D01*
X0093161Y0068054D01*
X0093161Y0066515D01*
X0092572Y0065093D01*
X0091483Y0064005D01*
X0090062Y0063416D01*
X0088523Y0063416D01*
X0087101Y0064005D01*
X0086694Y0064411D01*
X0086694Y0045168D01*
X0088736Y0045168D01*
X0089263Y0044641D01*
X0089263Y0039392D01*
X0089731Y0039860D01*
X0092171Y0041269D01*
X0094892Y0041998D01*
X0097708Y0041998D01*
X0097748Y0041987D01*
X0097093Y0043568D01*
X0097093Y0046040D01*
X0098039Y0048324D01*
X0099787Y0050073D01*
X0102072Y0051019D01*
X0104544Y0051019D01*
X0106828Y0050073D01*
X0108577Y0048324D01*
X0109523Y0046040D01*
X0109523Y0043568D01*
X0108577Y0041283D01*
X0106828Y0039535D01*
X0104544Y0038589D01*
X0104140Y0038589D01*
X0104860Y0037868D01*
X0106269Y0035429D01*
X0106998Y0032708D01*
X0106998Y0029892D01*
X0106269Y0027171D01*
X0104860Y0024731D01*
X0102868Y0022740D01*
X0100429Y0021331D01*
X0097708Y0020602D01*
X0094892Y0020602D01*
X0092171Y0021331D01*
X0089731Y0022740D01*
X0087740Y0024731D01*
X0086331Y0027171D01*
X0085602Y0029892D01*
X0085602Y0032708D01*
X0086331Y0035429D01*
X0087487Y0037431D01*
X0082053Y0037431D01*
X0081526Y0037959D01*
X0081526Y0044439D01*
X0080609Y0044439D01*
X0079187Y0045028D01*
X0078663Y0045553D01*
X0078663Y0044949D01*
X0079554Y0044580D01*
X0080643Y0043491D01*
X0081231Y0042069D01*
X0081231Y0040530D01*
X0080643Y0039109D01*
X0079554Y0038020D01*
X0078132Y0037431D01*
X0076593Y0037431D01*
X0075172Y0038020D01*
X0074083Y0039109D01*
X0073494Y0040530D01*
X0073494Y0042069D01*
X0074083Y0043491D01*
X0075172Y0044580D01*
X0076063Y0044949D01*
X0076063Y0045553D01*
X0075539Y0045028D01*
X0074117Y0044439D01*
X0072578Y0044439D01*
X0071156Y0045028D01*
X0070631Y0045553D01*
X0070631Y0044949D01*
X0071523Y0044580D01*
X0072611Y0043491D01*
X0073200Y0042069D01*
X0073200Y0040530D01*
X0072611Y0039109D01*
X0071523Y0038020D01*
X0070101Y0037431D01*
X0068562Y0037431D01*
X0067140Y0038020D01*
X0066052Y0039109D01*
X0065463Y0040530D01*
X0065463Y0042069D01*
X0066052Y0043491D01*
X0067140Y0044580D01*
X0068031Y0044949D01*
X0068031Y0045553D01*
X0067507Y0045028D01*
X0066085Y0044439D01*
X0064546Y0044439D01*
X0063124Y0045028D01*
X0062600Y0045553D01*
X0062600Y0044949D01*
X0063491Y0044580D01*
X0064580Y0043491D01*
X0065168Y0042069D01*
X0065168Y0040530D01*
X0064580Y0039109D01*
X0063491Y0038020D01*
X0062069Y0037431D01*
X0060530Y0037431D01*
X0059109Y0038020D01*
X0058020Y0039109D01*
X0057431Y0040530D01*
X0057431Y0042069D01*
X0058020Y0043491D01*
X0059109Y0044580D01*
X0060000Y0044949D01*
X0060000Y0045553D01*
X0059476Y0045028D01*
X0058054Y0044439D01*
X0056515Y0044439D01*
X0055093Y0045028D01*
X0054005Y0046117D01*
X0053416Y0047538D01*
X0053416Y0049077D01*
X0054005Y0050499D01*
X0055093Y0051587D01*
X0055984Y0051957D01*
X0055984Y0064490D01*
X0055499Y0064005D01*
X0054077Y0063416D01*
X0052538Y0063416D01*
X0051117Y0064005D01*
X0050028Y0065093D01*
X0049439Y0066515D01*
X0049439Y0068054D01*
X0050028Y0069476D01*
X0051117Y0070564D01*
X0052538Y0071153D01*
X0054077Y0071153D01*
X0054985Y0070777D01*
X0038521Y0087241D01*
X0037215Y0086700D01*
X0035385Y0086700D01*
X0033694Y0087400D01*
X0032400Y0088694D01*
X0033694Y0087400D01*
X0035385Y0086700D01*
X0037215Y0086700D01*
X0038521Y0087241D01*
X0054985Y0070777D01*
X0054077Y0071153D01*
X0052538Y0071153D01*
X0051117Y0070564D01*
X0050028Y0069476D01*
X0049439Y0068054D01*
X0049439Y0066515D01*
X0050028Y0065093D01*
X0051117Y0064005D01*
X0052538Y0063416D01*
X0054077Y0063416D01*
X0055499Y0064005D01*
X0055984Y0064490D01*
X0055984Y0051957D01*
X0055093Y0051587D01*
X0054005Y0050499D01*
X0053416Y0049077D01*
X0053416Y0047538D01*
X0054005Y0046117D01*
X0055093Y0045028D01*
X0056515Y0044439D01*
X0058054Y0044439D01*
X0059476Y0045028D01*
X0060000Y0045553D01*
X0060000Y0044949D01*
X0059109Y0044580D01*
X0058020Y0043491D01*
X0057431Y0042069D01*
X0057431Y0040530D01*
X0058020Y0039109D01*
X0059109Y0038020D01*
X0060530Y0037431D01*
X0062069Y0037431D01*
X0063491Y0038020D01*
X0064580Y0039109D01*
X0065168Y0040530D01*
X0065168Y0042069D01*
X0064580Y0043491D01*
X0063491Y0044580D01*
X0062600Y0044949D01*
X0062600Y0045553D01*
X0063124Y0045028D01*
X0064546Y0044439D01*
X0066085Y0044439D01*
X0067507Y0045028D01*
X0068031Y0045553D01*
X0068031Y0044949D01*
X0067140Y0044580D01*
X0066052Y0043491D01*
X0065463Y0042069D01*
X0065463Y0040530D01*
X0066052Y0039109D01*
X0067140Y0038020D01*
X0068562Y0037431D01*
X0070101Y0037431D01*
X0071523Y0038020D01*
X0072611Y0039109D01*
X0073200Y0040530D01*
X0073200Y0042069D01*
X0072611Y0043491D01*
X0071523Y0044580D01*
X0070631Y0044949D01*
X0070631Y0045553D01*
X0071156Y0045028D01*
X0072578Y0044439D01*
X0074117Y0044439D01*
X0075539Y0045028D01*
X0076063Y0045553D01*
X0076063Y0044949D01*
X0075172Y0044580D01*
X0074083Y0043491D01*
X0073494Y0042069D01*
X0073494Y0040530D01*
X0074083Y0039109D01*
X0075172Y0038020D01*
X0076593Y0037431D01*
X0078132Y0037431D01*
X0079554Y0038020D01*
X0080643Y0039109D01*
X0081231Y0040530D01*
X0081231Y0042069D01*
X0080643Y0043491D01*
X0079554Y0044580D01*
X0078663Y0044949D01*
X0078663Y0045553D01*
X0079187Y0045028D01*
X0080609Y0044439D01*
X0081526Y0044439D01*
X0081526Y0037959D01*
X0082053Y0037431D01*
X0087487Y0037431D01*
X0086331Y0035429D01*
X0085602Y0032708D01*
X0085602Y0029892D01*
X0086331Y0027171D01*
X0087740Y0024731D01*
X0089731Y0022740D01*
X0092171Y0021331D01*
X0094892Y0020602D01*
X0097708Y0020602D01*
X0100429Y0021331D01*
X0102868Y0022740D01*
X0104860Y0024731D01*
X0106269Y0027171D01*
X0106998Y0029892D01*
X0106998Y0032708D01*
X0106269Y0035429D01*
X0104860Y0037868D01*
X0104447Y0038282D01*
X0104601Y0038302D01*
X0105439Y0038527D01*
X0106240Y0038858D01*
X0106991Y0039292D01*
X0107679Y0039820D01*
X0108292Y0040433D01*
X0108820Y0041121D01*
X0109253Y0041872D01*
X0109585Y0042673D01*
X0109810Y0043511D01*
X0109923Y0044370D01*
X0109923Y0044504D01*
X0103608Y0044504D01*
X0103608Y0045104D01*
X0109923Y0045104D01*
X0109923Y0045237D01*
X0109810Y0046097D01*
X0109585Y0046935D01*
X0109253Y0047736D01*
X0108820Y0048487D01*
X0108292Y0049175D01*
X0107679Y0049788D01*
X0106991Y0050316D01*
X0106240Y0050749D01*
X0105439Y0051081D01*
X0104601Y0051306D01*
X0103741Y0051419D01*
X0103608Y0051419D01*
X0103608Y0045104D01*
X0103008Y0045104D01*
X0103008Y0051419D01*
X0102874Y0051419D01*
X0102015Y0051306D01*
X0101177Y0051081D01*
X0100376Y0050749D01*
X0099625Y0050316D01*
X0098937Y0049788D01*
X0098324Y0049175D01*
X0097796Y0048487D01*
X0097362Y0047736D01*
X0097031Y0046935D01*
X0096806Y0046097D01*
X0096693Y0045237D01*
X0096693Y0045104D01*
X0103008Y0045104D01*
X0103008Y0044504D01*
X0096693Y0044504D01*
X0096693Y0044370D01*
X0096806Y0043511D01*
X0097031Y0042673D01*
X0097310Y0041998D01*
X0094892Y0041998D01*
X0092171Y0041269D01*
X0089731Y0039860D01*
X0089263Y0039392D01*
X0089263Y0044641D01*
X0088736Y0045168D01*
X0086694Y0045168D01*
X0086694Y0064411D01*
X0087101Y0064005D01*
X0088523Y0063416D01*
X0090062Y0063416D01*
X0091483Y0064005D01*
X0092572Y0065093D01*
X0093161Y0066515D01*
X0093161Y0068054D01*
X0092572Y0069476D01*
X0091483Y0070564D01*
X0090062Y0071153D01*
X0088523Y0071153D01*
X0087615Y0070777D01*
X0104079Y0087241D01*
X0105385Y0086700D01*
X0107215Y0086700D01*
X0108906Y0087400D01*
X0110200Y0088694D01*
X0110900Y0090385D01*
X0110900Y0092215D01*
X0110200Y0093906D01*
X0108906Y0095200D01*
X0107215Y0095900D01*
X0105385Y0095900D01*
X0103694Y0095200D01*
X0102400Y0093906D01*
X0101700Y0092215D01*
X0101700Y0090385D01*
X0102241Y0089079D01*
X0084024Y0070862D01*
X0084024Y0065102D01*
X0084094Y0065031D01*
X0084094Y0051063D01*
X0083570Y0051587D01*
X0082679Y0051957D01*
X0082679Y0075840D01*
X0094079Y0087241D01*
X0095385Y0086700D01*
X0097215Y0086700D01*
X0098906Y0087400D01*
X0100200Y0088694D01*
X0100900Y0090385D01*
X0100900Y0092215D01*
X0100200Y0093906D01*
X0098906Y0095200D01*
X0097215Y0095900D01*
X0095385Y0095900D01*
X0093694Y0095200D01*
X0092400Y0093906D01*
X0091700Y0092215D01*
X0091700Y0090385D01*
X0092241Y0089079D01*
X0080079Y0076917D01*
X0080079Y0051957D01*
X0079187Y0051587D01*
X0078663Y0051063D01*
X0078663Y0081825D01*
X0084079Y0087241D01*
X0085385Y0086700D01*
X0087215Y0086700D01*
X0088906Y0087400D01*
X0090200Y0088694D01*
X0090900Y0090385D01*
X0090900Y0092215D01*
X0090200Y0093906D01*
X0088906Y0095200D01*
X0087215Y0095900D01*
X0085385Y0095900D01*
X0083694Y0095200D01*
X0082400Y0093906D01*
X0081700Y0092215D01*
X0081700Y0090385D01*
X0082241Y0089079D01*
X0076063Y0082901D01*
X0076063Y0051063D01*
X0075539Y0051587D01*
X0074647Y0051957D01*
X0074647Y0087006D01*
X0075385Y0086700D01*
X0077215Y0086700D01*
X0078906Y0087400D01*
X0080200Y0088694D01*
X0080900Y0090385D01*
X0080900Y0092215D01*
X0080200Y0093906D01*
X0078906Y0095200D01*
X0077215Y0095900D01*
X0075385Y0095900D01*
X0073694Y0095200D01*
X0072400Y0093906D01*
X0071700Y0092215D01*
X0071700Y0090385D01*
X0072241Y0089079D01*
X0072047Y0088886D01*
X0072047Y0051957D01*
X0071156Y0051587D01*
X0070631Y0051063D01*
X0070631Y0088807D01*
X0070359Y0089079D01*
X0070900Y0090385D01*
X0070900Y0092215D01*
X0070200Y0093906D01*
X0068906Y0095200D01*
X0067215Y0095900D01*
X0065385Y0095900D01*
X0063694Y0095200D01*
X0062400Y0093906D01*
X0061700Y0092215D01*
X0061700Y0090385D01*
X0062400Y0088694D01*
X0063694Y0087400D01*
X0065385Y0086700D01*
X0067215Y0086700D01*
X0068031Y0087038D01*
X0068031Y0051063D01*
X0067507Y0051587D01*
X0066616Y0051957D01*
X0066616Y0082823D01*
X0060359Y0089079D01*
X0060900Y0090385D01*
X0060900Y0092215D01*
X0060200Y0093906D01*
X0058906Y0095200D01*
X0057215Y0095900D01*
X0055385Y0095900D01*
X0053694Y0095200D01*
X0052400Y0093906D01*
X0051700Y0092215D01*
X0051700Y0090385D01*
X0052400Y0088694D01*
X0053694Y0087400D01*
X0055385Y0086700D01*
X0057215Y0086700D01*
X0058521Y0087241D01*
X0064016Y0081746D01*
X0064016Y0051957D01*
X0063124Y0051587D01*
X0062600Y0051063D01*
X0062600Y0076838D01*
X0050359Y0089079D01*
X0050900Y0090385D01*
X0050900Y0092215D01*
X0050200Y0093906D01*
X0048906Y0095200D01*
X0047215Y0095900D01*
X0045385Y0095900D01*
X0043694Y0095200D01*
X0042400Y0093906D01*
X0041700Y0092215D01*
X0041700Y0090385D01*
X0042400Y0088694D01*
X0043694Y0087400D01*
X0045385Y0086700D01*
X0047215Y0086700D01*
X0048521Y0087241D01*
X0060000Y0075762D01*
X0060000Y0051063D01*
X0059476Y0051587D01*
X0058584Y0051957D01*
X0058584Y0070854D01*
X0057823Y0071616D01*
X0057823Y0071616D01*
X0040359Y0089079D01*
X0040900Y0090385D01*
X0040900Y0092215D01*
X0040200Y0093906D01*
X0038906Y0095200D01*
X0037215Y0095900D01*
X0035385Y0095900D01*
X0033694Y0095200D01*
X0032400Y0093906D01*
X0031700Y0092215D01*
X0031700Y0090385D01*
X0032400Y0088694D01*
X0037280Y0086727D02*
X0039035Y0086727D01*
X0037280Y0086727D01*
X0040376Y0089121D02*
X0042224Y0089121D01*
X0040376Y0089121D01*
X0040624Y0089719D02*
X0041976Y0089719D01*
X0040624Y0089719D01*
X0040872Y0090318D02*
X0041728Y0090318D01*
X0040872Y0090318D01*
X0040900Y0090916D02*
X0041700Y0090916D01*
X0040900Y0090916D01*
X0040900Y0091515D02*
X0041700Y0091515D01*
X0040900Y0091515D01*
X0040900Y0092113D02*
X0041700Y0092113D01*
X0040900Y0092113D01*
X0040694Y0092712D02*
X0041906Y0092712D01*
X0040694Y0092712D01*
X0040446Y0093310D02*
X0042154Y0093310D01*
X0040446Y0093310D01*
X0040196Y0093909D02*
X0042404Y0093909D01*
X0040196Y0093909D01*
X0039598Y0094508D02*
X0043002Y0094508D01*
X0039598Y0094508D01*
X0038999Y0095106D02*
X0043601Y0095106D01*
X0038999Y0095106D01*
X0037687Y0095705D02*
X0044913Y0095705D01*
X0037687Y0095705D01*
X0040916Y0088522D02*
X0042572Y0088522D01*
X0040916Y0088522D01*
X0041515Y0087924D02*
X0043171Y0087924D01*
X0041515Y0087924D01*
X0042113Y0087325D02*
X0043875Y0087325D01*
X0042113Y0087325D01*
X0042712Y0086727D02*
X0045320Y0086727D01*
X0042712Y0086727D01*
X0043310Y0086128D02*
X0049633Y0086128D01*
X0043310Y0086128D01*
X0043909Y0085530D02*
X0050232Y0085530D01*
X0043909Y0085530D01*
X0044507Y0084931D02*
X0050830Y0084931D01*
X0044507Y0084931D01*
X0045106Y0084333D02*
X0051429Y0084333D01*
X0045106Y0084333D01*
X0045704Y0083734D02*
X0052027Y0083734D01*
X0045704Y0083734D01*
X0046303Y0083136D02*
X0052626Y0083136D01*
X0046303Y0083136D01*
X0046901Y0082537D02*
X0053224Y0082537D01*
X0046901Y0082537D01*
X0047500Y0081939D02*
X0053823Y0081939D01*
X0047500Y0081939D01*
X0048098Y0081340D02*
X0054421Y0081340D01*
X0048098Y0081340D01*
X0048697Y0080742D02*
X0055020Y0080742D01*
X0048697Y0080742D01*
X0049295Y0080143D02*
X0055618Y0080143D01*
X0049295Y0080143D01*
X0049894Y0079545D02*
X0056217Y0079545D01*
X0049894Y0079545D01*
X0050492Y0078946D02*
X0056815Y0078946D01*
X0050492Y0078946D01*
X0051091Y0078348D02*
X0057414Y0078348D01*
X0051091Y0078348D01*
X0051689Y0077749D02*
X0058012Y0077749D01*
X0051689Y0077749D01*
X0052288Y0077151D02*
X0058611Y0077151D01*
X0052288Y0077151D01*
X0052886Y0076552D02*
X0059209Y0076552D01*
X0052886Y0076552D01*
X0053485Y0075954D02*
X0059808Y0075954D01*
X0053485Y0075954D01*
X0054083Y0075355D02*
X0060000Y0075355D01*
X0054083Y0075355D01*
X0054682Y0074757D02*
X0060000Y0074757D01*
X0054682Y0074757D01*
X0055280Y0074158D02*
X0060000Y0074158D01*
X0055280Y0074158D01*
X0055879Y0073560D02*
X0060000Y0073560D01*
X0055879Y0073560D01*
X0056477Y0072961D02*
X0060000Y0072961D01*
X0056477Y0072961D01*
X0057076Y0072363D02*
X0060000Y0072363D01*
X0057076Y0072363D01*
X0057674Y0071764D02*
X0060000Y0071764D01*
X0057674Y0071764D01*
X0058273Y0071166D02*
X0060000Y0071166D01*
X0058273Y0071166D01*
X0058584Y0070567D02*
X0060000Y0070567D01*
X0058584Y0070567D01*
X0058584Y0069969D02*
X0060000Y0069969D01*
X0058584Y0069969D01*
X0058584Y0069370D02*
X0060000Y0069370D01*
X0058584Y0069370D01*
X0058584Y0068772D02*
X0060000Y0068772D01*
X0058584Y0068772D01*
X0058584Y0068173D02*
X0060000Y0068173D01*
X0058584Y0068173D01*
X0058584Y0067574D02*
X0060000Y0067574D01*
X0058584Y0067574D01*
X0058584Y0066976D02*
X0060000Y0066976D01*
X0058584Y0066976D01*
X0058584Y0066377D02*
X0060000Y0066377D01*
X0058584Y0066377D01*
X0058584Y0065779D02*
X0060000Y0065779D01*
X0058584Y0065779D01*
X0058584Y0065180D02*
X0060000Y0065180D01*
X0058584Y0065180D01*
X0058584Y0064582D02*
X0060000Y0064582D01*
X0058584Y0064582D01*
X0058584Y0063983D02*
X0060000Y0063983D01*
X0058584Y0063983D01*
X0058584Y0063385D02*
X0060000Y0063385D01*
X0058584Y0063385D01*
X0058584Y0062786D02*
X0060000Y0062786D01*
X0058584Y0062786D01*
X0058584Y0062188D02*
X0060000Y0062188D01*
X0058584Y0062188D01*
X0058584Y0061589D02*
X0060000Y0061589D01*
X0058584Y0061589D01*
X0058584Y0060991D02*
X0060000Y0060991D01*
X0058584Y0060991D01*
X0058584Y0060392D02*
X0060000Y0060392D01*
X0058584Y0060392D01*
X0058584Y0059794D02*
X0060000Y0059794D01*
X0058584Y0059794D01*
X0058584Y0059195D02*
X0060000Y0059195D01*
X0058584Y0059195D01*
X0058584Y0058597D02*
X0060000Y0058597D01*
X0058584Y0058597D01*
X0058584Y0057998D02*
X0060000Y0057998D01*
X0058584Y0057998D01*
X0058584Y0057400D02*
X0060000Y0057400D01*
X0058584Y0057400D01*
X0058584Y0056801D02*
X0060000Y0056801D01*
X0058584Y0056801D01*
X0058584Y0056203D02*
X0060000Y0056203D01*
X0058584Y0056203D01*
X0058584Y0055604D02*
X0060000Y0055604D01*
X0058584Y0055604D01*
X0058584Y0055006D02*
X0060000Y0055006D01*
X0058584Y0055006D01*
X0058584Y0054407D02*
X0060000Y0054407D01*
X0058584Y0054407D01*
X0058584Y0053809D02*
X0060000Y0053809D01*
X0058584Y0053809D01*
X0058584Y0053210D02*
X0060000Y0053210D01*
X0058584Y0053210D01*
X0058584Y0052612D02*
X0060000Y0052612D01*
X0058584Y0052612D01*
X0058584Y0052013D02*
X0060000Y0052013D01*
X0058584Y0052013D01*
X0059648Y0051415D02*
X0060000Y0051415D01*
X0059648Y0051415D01*
X0062600Y0051415D02*
X0062952Y0051415D01*
X0062600Y0051415D01*
X0062600Y0052013D02*
X0064016Y0052013D01*
X0062600Y0052013D01*
X0062600Y0052612D02*
X0064016Y0052612D01*
X0062600Y0052612D01*
X0062600Y0053210D02*
X0064016Y0053210D01*
X0062600Y0053210D01*
X0062600Y0053809D02*
X0064016Y0053809D01*
X0062600Y0053809D01*
X0062600Y0054407D02*
X0064016Y0054407D01*
X0062600Y0054407D01*
X0062600Y0055006D02*
X0064016Y0055006D01*
X0062600Y0055006D01*
X0062600Y0055604D02*
X0064016Y0055604D01*
X0062600Y0055604D01*
X0062600Y0056203D02*
X0064016Y0056203D01*
X0062600Y0056203D01*
X0062600Y0056801D02*
X0064016Y0056801D01*
X0062600Y0056801D01*
X0062600Y0057400D02*
X0064016Y0057400D01*
X0062600Y0057400D01*
X0062600Y0057998D02*
X0064016Y0057998D01*
X0062600Y0057998D01*
X0062600Y0058597D02*
X0064016Y0058597D01*
X0062600Y0058597D01*
X0062600Y0059195D02*
X0064016Y0059195D01*
X0062600Y0059195D01*
X0062600Y0059794D02*
X0064016Y0059794D01*
X0062600Y0059794D01*
X0062600Y0060392D02*
X0064016Y0060392D01*
X0062600Y0060392D01*
X0062600Y0060991D02*
X0064016Y0060991D01*
X0062600Y0060991D01*
X0062600Y0061589D02*
X0064016Y0061589D01*
X0062600Y0061589D01*
X0062600Y0062188D02*
X0064016Y0062188D01*
X0062600Y0062188D01*
X0062600Y0062786D02*
X0064016Y0062786D01*
X0062600Y0062786D01*
X0062600Y0063385D02*
X0064016Y0063385D01*
X0062600Y0063385D01*
X0062600Y0063983D02*
X0064016Y0063983D01*
X0062600Y0063983D01*
X0062600Y0064582D02*
X0064016Y0064582D01*
X0062600Y0064582D01*
X0062600Y0065180D02*
X0064016Y0065180D01*
X0062600Y0065180D01*
X0062600Y0065779D02*
X0064016Y0065779D01*
X0062600Y0065779D01*
X0062600Y0066377D02*
X0064016Y0066377D01*
X0062600Y0066377D01*
X0062600Y0066976D02*
X0064016Y0066976D01*
X0062600Y0066976D01*
X0062600Y0067574D02*
X0064016Y0067574D01*
X0062600Y0067574D01*
X0062600Y0068173D02*
X0064016Y0068173D01*
X0062600Y0068173D01*
X0062600Y0068772D02*
X0064016Y0068772D01*
X0062600Y0068772D01*
X0062600Y0069370D02*
X0064016Y0069370D01*
X0062600Y0069370D01*
X0062600Y0069969D02*
X0064016Y0069969D01*
X0062600Y0069969D01*
X0062600Y0070567D02*
X0064016Y0070567D01*
X0062600Y0070567D01*
X0062600Y0071166D02*
X0064016Y0071166D01*
X0062600Y0071166D01*
X0062600Y0071764D02*
X0064016Y0071764D01*
X0062600Y0071764D01*
X0062600Y0072363D02*
X0064016Y0072363D01*
X0062600Y0072363D01*
X0062600Y0072961D02*
X0064016Y0072961D01*
X0062600Y0072961D01*
X0062600Y0073560D02*
X0064016Y0073560D01*
X0062600Y0073560D01*
X0062600Y0074158D02*
X0064016Y0074158D01*
X0062600Y0074158D01*
X0062600Y0074757D02*
X0064016Y0074757D01*
X0062600Y0074757D01*
X0062600Y0075355D02*
X0064016Y0075355D01*
X0062600Y0075355D01*
X0062600Y0075954D02*
X0064016Y0075954D01*
X0062600Y0075954D01*
X0062600Y0076552D02*
X0064016Y0076552D01*
X0062600Y0076552D01*
X0062288Y0077151D02*
X0064016Y0077151D01*
X0062288Y0077151D01*
X0061689Y0077749D02*
X0064016Y0077749D01*
X0061689Y0077749D01*
X0061091Y0078348D02*
X0064016Y0078348D01*
X0061091Y0078348D01*
X0060492Y0078946D02*
X0064016Y0078946D01*
X0060492Y0078946D01*
X0059894Y0079545D02*
X0064016Y0079545D01*
X0059894Y0079545D01*
X0059295Y0080143D02*
X0064016Y0080143D01*
X0059295Y0080143D01*
X0058697Y0080742D02*
X0064016Y0080742D01*
X0058697Y0080742D01*
X0058098Y0081340D02*
X0064016Y0081340D01*
X0058098Y0081340D01*
X0057500Y0081939D02*
X0063823Y0081939D01*
X0057500Y0081939D01*
X0056901Y0082537D02*
X0063224Y0082537D01*
X0056901Y0082537D01*
X0056303Y0083136D02*
X0062626Y0083136D01*
X0056303Y0083136D01*
X0055704Y0083734D02*
X0062027Y0083734D01*
X0055704Y0083734D01*
X0055106Y0084333D02*
X0061429Y0084333D01*
X0055106Y0084333D01*
X0054507Y0084931D02*
X0060830Y0084931D01*
X0054507Y0084931D01*
X0053909Y0085530D02*
X0060232Y0085530D01*
X0053909Y0085530D01*
X0053310Y0086128D02*
X0059633Y0086128D01*
X0053310Y0086128D01*
X0052712Y0086727D02*
X0055320Y0086727D01*
X0052712Y0086727D01*
X0052113Y0087325D02*
X0053875Y0087325D01*
X0052113Y0087325D01*
X0051515Y0087924D02*
X0053171Y0087924D01*
X0051515Y0087924D01*
X0050916Y0088522D02*
X0052572Y0088522D01*
X0050916Y0088522D01*
X0050376Y0089121D02*
X0052224Y0089121D01*
X0050376Y0089121D01*
X0050624Y0089719D02*
X0051976Y0089719D01*
X0050624Y0089719D01*
X0050872Y0090318D02*
X0051728Y0090318D01*
X0050872Y0090318D01*
X0050900Y0090916D02*
X0051700Y0090916D01*
X0050900Y0090916D01*
X0050900Y0091515D02*
X0051700Y0091515D01*
X0050900Y0091515D01*
X0050900Y0092113D02*
X0051700Y0092113D01*
X0050900Y0092113D01*
X0050694Y0092712D02*
X0051906Y0092712D01*
X0050694Y0092712D01*
X0050446Y0093310D02*
X0052154Y0093310D01*
X0050446Y0093310D01*
X0050196Y0093909D02*
X0052404Y0093909D01*
X0050196Y0093909D01*
X0049598Y0094508D02*
X0053002Y0094508D01*
X0049598Y0094508D01*
X0048999Y0095106D02*
X0053601Y0095106D01*
X0048999Y0095106D01*
X0047687Y0095705D02*
X0054913Y0095705D01*
X0047687Y0095705D01*
X0057687Y0095705D02*
X0064913Y0095705D01*
X0057687Y0095705D01*
X0058999Y0095106D02*
X0063601Y0095106D01*
X0058999Y0095106D01*
X0059598Y0094508D02*
X0063002Y0094508D01*
X0059598Y0094508D01*
X0060196Y0093909D02*
X0062404Y0093909D01*
X0060196Y0093909D01*
X0060446Y0093310D02*
X0062154Y0093310D01*
X0060446Y0093310D01*
X0060694Y0092712D02*
X0061906Y0092712D01*
X0060694Y0092712D01*
X0060900Y0092113D02*
X0061700Y0092113D01*
X0060900Y0092113D01*
X0060900Y0091515D02*
X0061700Y0091515D01*
X0060900Y0091515D01*
X0060900Y0090916D02*
X0061700Y0090916D01*
X0060900Y0090916D01*
X0060872Y0090318D02*
X0061728Y0090318D01*
X0060872Y0090318D01*
X0060624Y0089719D02*
X0061976Y0089719D01*
X0060624Y0089719D01*
X0060376Y0089121D02*
X0062224Y0089121D01*
X0060376Y0089121D01*
X0060916Y0088522D02*
X0062572Y0088522D01*
X0060916Y0088522D01*
X0061515Y0087924D02*
X0063171Y0087924D01*
X0061515Y0087924D01*
X0062113Y0087325D02*
X0063875Y0087325D01*
X0062113Y0087325D01*
X0062712Y0086727D02*
X0065320Y0086727D01*
X0062712Y0086727D01*
X0063310Y0086128D02*
X0068031Y0086128D01*
X0063310Y0086128D01*
X0063909Y0085530D02*
X0068031Y0085530D01*
X0063909Y0085530D01*
X0064507Y0084931D02*
X0068031Y0084931D01*
X0064507Y0084931D01*
X0065106Y0084333D02*
X0068031Y0084333D01*
X0065106Y0084333D01*
X0065704Y0083734D02*
X0068031Y0083734D01*
X0065704Y0083734D01*
X0066303Y0083136D02*
X0068031Y0083136D01*
X0066303Y0083136D01*
X0066616Y0082537D02*
X0068031Y0082537D01*
X0066616Y0082537D01*
X0066616Y0081939D02*
X0068031Y0081939D01*
X0066616Y0081939D01*
X0066616Y0081340D02*
X0068031Y0081340D01*
X0066616Y0081340D01*
X0066616Y0080742D02*
X0068031Y0080742D01*
X0066616Y0080742D01*
X0066616Y0080143D02*
X0068031Y0080143D01*
X0066616Y0080143D01*
X0066616Y0079545D02*
X0068031Y0079545D01*
X0066616Y0079545D01*
X0066616Y0078946D02*
X0068031Y0078946D01*
X0066616Y0078946D01*
X0066616Y0078348D02*
X0068031Y0078348D01*
X0066616Y0078348D01*
X0066616Y0077749D02*
X0068031Y0077749D01*
X0066616Y0077749D01*
X0066616Y0077151D02*
X0068031Y0077151D01*
X0066616Y0077151D01*
X0066616Y0076552D02*
X0068031Y0076552D01*
X0066616Y0076552D01*
X0066616Y0075954D02*
X0068031Y0075954D01*
X0066616Y0075954D01*
X0066616Y0075355D02*
X0068031Y0075355D01*
X0066616Y0075355D01*
X0066616Y0074757D02*
X0068031Y0074757D01*
X0066616Y0074757D01*
X0066616Y0074158D02*
X0068031Y0074158D01*
X0066616Y0074158D01*
X0066616Y0073560D02*
X0068031Y0073560D01*
X0066616Y0073560D01*
X0066616Y0072961D02*
X0068031Y0072961D01*
X0066616Y0072961D01*
X0066616Y0072363D02*
X0068031Y0072363D01*
X0066616Y0072363D01*
X0066616Y0071764D02*
X0068031Y0071764D01*
X0066616Y0071764D01*
X0066616Y0071166D02*
X0068031Y0071166D01*
X0066616Y0071166D01*
X0066616Y0070567D02*
X0068031Y0070567D01*
X0066616Y0070567D01*
X0066616Y0069969D02*
X0068031Y0069969D01*
X0066616Y0069969D01*
X0066616Y0069370D02*
X0068031Y0069370D01*
X0066616Y0069370D01*
X0066616Y0068772D02*
X0068031Y0068772D01*
X0066616Y0068772D01*
X0066616Y0068173D02*
X0068031Y0068173D01*
X0066616Y0068173D01*
X0066616Y0067574D02*
X0068031Y0067574D01*
X0066616Y0067574D01*
X0066616Y0066976D02*
X0068031Y0066976D01*
X0066616Y0066976D01*
X0066616Y0066377D02*
X0068031Y0066377D01*
X0066616Y0066377D01*
X0066616Y0065779D02*
X0068031Y0065779D01*
X0066616Y0065779D01*
X0066616Y0065180D02*
X0068031Y0065180D01*
X0066616Y0065180D01*
X0066616Y0064582D02*
X0068031Y0064582D01*
X0066616Y0064582D01*
X0066616Y0063983D02*
X0068031Y0063983D01*
X0066616Y0063983D01*
X0066616Y0063385D02*
X0068031Y0063385D01*
X0066616Y0063385D01*
X0066616Y0062786D02*
X0068031Y0062786D01*
X0066616Y0062786D01*
X0066616Y0062188D02*
X0068031Y0062188D01*
X0066616Y0062188D01*
X0066616Y0061589D02*
X0068031Y0061589D01*
X0066616Y0061589D01*
X0066616Y0060991D02*
X0068031Y0060991D01*
X0066616Y0060991D01*
X0066616Y0060392D02*
X0068031Y0060392D01*
X0066616Y0060392D01*
X0066616Y0059794D02*
X0068031Y0059794D01*
X0066616Y0059794D01*
X0066616Y0059195D02*
X0068031Y0059195D01*
X0066616Y0059195D01*
X0066616Y0058597D02*
X0068031Y0058597D01*
X0066616Y0058597D01*
X0066616Y0057998D02*
X0068031Y0057998D01*
X0066616Y0057998D01*
X0066616Y0057400D02*
X0068031Y0057400D01*
X0066616Y0057400D01*
X0066616Y0056801D02*
X0068031Y0056801D01*
X0066616Y0056801D01*
X0066616Y0056203D02*
X0068031Y0056203D01*
X0066616Y0056203D01*
X0066616Y0055604D02*
X0068031Y0055604D01*
X0066616Y0055604D01*
X0066616Y0055006D02*
X0068031Y0055006D01*
X0066616Y0055006D01*
X0066616Y0054407D02*
X0068031Y0054407D01*
X0066616Y0054407D01*
X0066616Y0053809D02*
X0068031Y0053809D01*
X0066616Y0053809D01*
X0066616Y0053210D02*
X0068031Y0053210D01*
X0066616Y0053210D01*
X0066616Y0052612D02*
X0068031Y0052612D01*
X0066616Y0052612D01*
X0066616Y0052013D02*
X0068031Y0052013D01*
X0066616Y0052013D01*
X0067680Y0051415D02*
X0068031Y0051415D01*
X0067680Y0051415D01*
X0070631Y0051415D02*
X0070983Y0051415D01*
X0070631Y0051415D01*
X0070631Y0052013D02*
X0072047Y0052013D01*
X0070631Y0052013D01*
X0070631Y0052612D02*
X0072047Y0052612D01*
X0070631Y0052612D01*
X0070631Y0053210D02*
X0072047Y0053210D01*
X0070631Y0053210D01*
X0070631Y0053809D02*
X0072047Y0053809D01*
X0070631Y0053809D01*
X0070631Y0054407D02*
X0072047Y0054407D01*
X0070631Y0054407D01*
X0070631Y0055006D02*
X0072047Y0055006D01*
X0070631Y0055006D01*
X0070631Y0055604D02*
X0072047Y0055604D01*
X0070631Y0055604D01*
X0070631Y0056203D02*
X0072047Y0056203D01*
X0070631Y0056203D01*
X0070631Y0056801D02*
X0072047Y0056801D01*
X0070631Y0056801D01*
X0070631Y0057400D02*
X0072047Y0057400D01*
X0070631Y0057400D01*
X0070631Y0057998D02*
X0072047Y0057998D01*
X0070631Y0057998D01*
X0070631Y0058597D02*
X0072047Y0058597D01*
X0070631Y0058597D01*
X0070631Y0059195D02*
X0072047Y0059195D01*
X0070631Y0059195D01*
X0070631Y0059794D02*
X0072047Y0059794D01*
X0070631Y0059794D01*
X0070631Y0060392D02*
X0072047Y0060392D01*
X0070631Y0060392D01*
X0070631Y0060991D02*
X0072047Y0060991D01*
X0070631Y0060991D01*
X0070631Y0061589D02*
X0072047Y0061589D01*
X0070631Y0061589D01*
X0070631Y0062188D02*
X0072047Y0062188D01*
X0070631Y0062188D01*
X0070631Y0062786D02*
X0072047Y0062786D01*
X0070631Y0062786D01*
X0070631Y0063385D02*
X0072047Y0063385D01*
X0070631Y0063385D01*
X0070631Y0063983D02*
X0072047Y0063983D01*
X0070631Y0063983D01*
X0070631Y0064582D02*
X0072047Y0064582D01*
X0070631Y0064582D01*
X0070631Y0065180D02*
X0072047Y0065180D01*
X0070631Y0065180D01*
X0070631Y0065779D02*
X0072047Y0065779D01*
X0070631Y0065779D01*
X0070631Y0066377D02*
X0072047Y0066377D01*
X0070631Y0066377D01*
X0070631Y0066976D02*
X0072047Y0066976D01*
X0070631Y0066976D01*
X0070631Y0067574D02*
X0072047Y0067574D01*
X0070631Y0067574D01*
X0070631Y0068173D02*
X0072047Y0068173D01*
X0070631Y0068173D01*
X0070631Y0068772D02*
X0072047Y0068772D01*
X0070631Y0068772D01*
X0070631Y0069370D02*
X0072047Y0069370D01*
X0070631Y0069370D01*
X0070631Y0069969D02*
X0072047Y0069969D01*
X0070631Y0069969D01*
X0070631Y0070567D02*
X0072047Y0070567D01*
X0070631Y0070567D01*
X0070631Y0071166D02*
X0072047Y0071166D01*
X0070631Y0071166D01*
X0070631Y0071764D02*
X0072047Y0071764D01*
X0070631Y0071764D01*
X0070631Y0072363D02*
X0072047Y0072363D01*
X0070631Y0072363D01*
X0070631Y0072961D02*
X0072047Y0072961D01*
X0070631Y0072961D01*
X0070631Y0073560D02*
X0072047Y0073560D01*
X0070631Y0073560D01*
X0070631Y0074158D02*
X0072047Y0074158D01*
X0070631Y0074158D01*
X0070631Y0074757D02*
X0072047Y0074757D01*
X0070631Y0074757D01*
X0070631Y0075355D02*
X0072047Y0075355D01*
X0070631Y0075355D01*
X0070631Y0075954D02*
X0072047Y0075954D01*
X0070631Y0075954D01*
X0070631Y0076552D02*
X0072047Y0076552D01*
X0070631Y0076552D01*
X0070631Y0077151D02*
X0072047Y0077151D01*
X0070631Y0077151D01*
X0070631Y0077749D02*
X0072047Y0077749D01*
X0070631Y0077749D01*
X0070631Y0078348D02*
X0072047Y0078348D01*
X0070631Y0078348D01*
X0070631Y0078946D02*
X0072047Y0078946D01*
X0070631Y0078946D01*
X0070631Y0079545D02*
X0072047Y0079545D01*
X0070631Y0079545D01*
X0070631Y0080143D02*
X0072047Y0080143D01*
X0070631Y0080143D01*
X0070631Y0080742D02*
X0072047Y0080742D01*
X0070631Y0080742D01*
X0070631Y0081340D02*
X0072047Y0081340D01*
X0070631Y0081340D01*
X0070631Y0081939D02*
X0072047Y0081939D01*
X0070631Y0081939D01*
X0070631Y0082537D02*
X0072047Y0082537D01*
X0070631Y0082537D01*
X0070631Y0083136D02*
X0072047Y0083136D01*
X0070631Y0083136D01*
X0070631Y0083734D02*
X0072047Y0083734D01*
X0070631Y0083734D01*
X0070631Y0084333D02*
X0072047Y0084333D01*
X0070631Y0084333D01*
X0070631Y0084931D02*
X0072047Y0084931D01*
X0070631Y0084931D01*
X0070631Y0085530D02*
X0072047Y0085530D01*
X0070631Y0085530D01*
X0070631Y0086128D02*
X0072047Y0086128D01*
X0070631Y0086128D01*
X0070631Y0086727D02*
X0072047Y0086727D01*
X0070631Y0086727D01*
X0070631Y0087325D02*
X0072047Y0087325D01*
X0070631Y0087325D01*
X0070631Y0087924D02*
X0072047Y0087924D01*
X0070631Y0087924D01*
X0070631Y0088522D02*
X0072047Y0088522D01*
X0070631Y0088522D01*
X0070376Y0089121D02*
X0072224Y0089121D01*
X0070376Y0089121D01*
X0070624Y0089719D02*
X0071976Y0089719D01*
X0070624Y0089719D01*
X0070872Y0090318D02*
X0071728Y0090318D01*
X0070872Y0090318D01*
X0070900Y0090916D02*
X0071700Y0090916D01*
X0070900Y0090916D01*
X0070900Y0091515D02*
X0071700Y0091515D01*
X0070900Y0091515D01*
X0070900Y0092113D02*
X0071700Y0092113D01*
X0070900Y0092113D01*
X0070694Y0092712D02*
X0071906Y0092712D01*
X0070694Y0092712D01*
X0070446Y0093310D02*
X0072154Y0093310D01*
X0070446Y0093310D01*
X0070196Y0093909D02*
X0072404Y0093909D01*
X0070196Y0093909D01*
X0069598Y0094508D02*
X0073002Y0094508D01*
X0069598Y0094508D01*
X0068999Y0095106D02*
X0073601Y0095106D01*
X0068999Y0095106D01*
X0067687Y0095705D02*
X0074913Y0095705D01*
X0067687Y0095705D01*
X0077687Y0095705D02*
X0084913Y0095705D01*
X0077687Y0095705D01*
X0078999Y0095106D02*
X0083601Y0095106D01*
X0078999Y0095106D01*
X0079598Y0094508D02*
X0083002Y0094508D01*
X0079598Y0094508D01*
X0080196Y0093909D02*
X0082404Y0093909D01*
X0080196Y0093909D01*
X0080446Y0093310D02*
X0082154Y0093310D01*
X0080446Y0093310D01*
X0080694Y0092712D02*
X0081906Y0092712D01*
X0080694Y0092712D01*
X0080900Y0092113D02*
X0081700Y0092113D01*
X0080900Y0092113D01*
X0080900Y0091515D02*
X0081700Y0091515D01*
X0080900Y0091515D01*
X0080900Y0090916D02*
X0081700Y0090916D01*
X0080900Y0090916D01*
X0080872Y0090318D02*
X0081728Y0090318D01*
X0080872Y0090318D01*
X0080624Y0089719D02*
X0081976Y0089719D01*
X0080624Y0089719D01*
X0080376Y0089121D02*
X0082224Y0089121D01*
X0080376Y0089121D01*
X0080028Y0088522D02*
X0081684Y0088522D01*
X0080028Y0088522D01*
X0079429Y0087924D02*
X0081085Y0087924D01*
X0079429Y0087924D01*
X0078725Y0087325D02*
X0080487Y0087325D01*
X0078725Y0087325D01*
X0079888Y0086727D02*
X0077280Y0086727D01*
X0079888Y0086727D01*
X0079290Y0086128D02*
X0074647Y0086128D01*
X0079290Y0086128D01*
X0078691Y0085530D02*
X0074647Y0085530D01*
X0078691Y0085530D01*
X0078093Y0084931D02*
X0074647Y0084931D01*
X0078093Y0084931D01*
X0077494Y0084333D02*
X0074647Y0084333D01*
X0077494Y0084333D01*
X0076896Y0083734D02*
X0074647Y0083734D01*
X0076896Y0083734D01*
X0076297Y0083136D02*
X0074647Y0083136D01*
X0076297Y0083136D01*
X0076063Y0082537D02*
X0074647Y0082537D01*
X0076063Y0082537D01*
X0076063Y0081939D02*
X0074647Y0081939D01*
X0076063Y0081939D01*
X0076063Y0081340D02*
X0074647Y0081340D01*
X0076063Y0081340D01*
X0076063Y0080742D02*
X0074647Y0080742D01*
X0076063Y0080742D01*
X0076063Y0080143D02*
X0074647Y0080143D01*
X0076063Y0080143D01*
X0076063Y0079545D02*
X0074647Y0079545D01*
X0076063Y0079545D01*
X0076063Y0078946D02*
X0074647Y0078946D01*
X0076063Y0078946D01*
X0076063Y0078348D02*
X0074647Y0078348D01*
X0076063Y0078348D01*
X0076063Y0077749D02*
X0074647Y0077749D01*
X0076063Y0077749D01*
X0076063Y0077151D02*
X0074647Y0077151D01*
X0076063Y0077151D01*
X0076063Y0076552D02*
X0074647Y0076552D01*
X0076063Y0076552D01*
X0076063Y0075954D02*
X0074647Y0075954D01*
X0076063Y0075954D01*
X0076063Y0075355D02*
X0074647Y0075355D01*
X0076063Y0075355D01*
X0076063Y0074757D02*
X0074647Y0074757D01*
X0076063Y0074757D01*
X0076063Y0074158D02*
X0074647Y0074158D01*
X0076063Y0074158D01*
X0076063Y0073560D02*
X0074647Y0073560D01*
X0076063Y0073560D01*
X0076063Y0072961D02*
X0074647Y0072961D01*
X0076063Y0072961D01*
X0076063Y0072363D02*
X0074647Y0072363D01*
X0076063Y0072363D01*
X0076063Y0071764D02*
X0074647Y0071764D01*
X0076063Y0071764D01*
X0076063Y0071166D02*
X0074647Y0071166D01*
X0076063Y0071166D01*
X0076063Y0070567D02*
X0074647Y0070567D01*
X0076063Y0070567D01*
X0076063Y0069969D02*
X0074647Y0069969D01*
X0076063Y0069969D01*
X0076063Y0069370D02*
X0074647Y0069370D01*
X0076063Y0069370D01*
X0076063Y0068772D02*
X0074647Y0068772D01*
X0076063Y0068772D01*
X0076063Y0068173D02*
X0074647Y0068173D01*
X0076063Y0068173D01*
X0076063Y0067574D02*
X0074647Y0067574D01*
X0076063Y0067574D01*
X0076063Y0066976D02*
X0074647Y0066976D01*
X0076063Y0066976D01*
X0076063Y0066377D02*
X0074647Y0066377D01*
X0076063Y0066377D01*
X0076063Y0065779D02*
X0074647Y0065779D01*
X0076063Y0065779D01*
X0076063Y0065180D02*
X0074647Y0065180D01*
X0076063Y0065180D01*
X0076063Y0064582D02*
X0074647Y0064582D01*
X0076063Y0064582D01*
X0076063Y0063983D02*
X0074647Y0063983D01*
X0076063Y0063983D01*
X0076063Y0063385D02*
X0074647Y0063385D01*
X0076063Y0063385D01*
X0076063Y0062786D02*
X0074647Y0062786D01*
X0076063Y0062786D01*
X0076063Y0062188D02*
X0074647Y0062188D01*
X0076063Y0062188D01*
X0076063Y0061589D02*
X0074647Y0061589D01*
X0076063Y0061589D01*
X0076063Y0060991D02*
X0074647Y0060991D01*
X0076063Y0060991D01*
X0076063Y0060392D02*
X0074647Y0060392D01*
X0076063Y0060392D01*
X0076063Y0059794D02*
X0074647Y0059794D01*
X0076063Y0059794D01*
X0076063Y0059195D02*
X0074647Y0059195D01*
X0076063Y0059195D01*
X0076063Y0058597D02*
X0074647Y0058597D01*
X0076063Y0058597D01*
X0076063Y0057998D02*
X0074647Y0057998D01*
X0076063Y0057998D01*
X0076063Y0057400D02*
X0074647Y0057400D01*
X0076063Y0057400D01*
X0076063Y0056801D02*
X0074647Y0056801D01*
X0076063Y0056801D01*
X0076063Y0056203D02*
X0074647Y0056203D01*
X0076063Y0056203D01*
X0076063Y0055604D02*
X0074647Y0055604D01*
X0076063Y0055604D01*
X0076063Y0055006D02*
X0074647Y0055006D01*
X0076063Y0055006D01*
X0076063Y0054407D02*
X0074647Y0054407D01*
X0076063Y0054407D01*
X0076063Y0053809D02*
X0074647Y0053809D01*
X0076063Y0053809D01*
X0076063Y0053210D02*
X0074647Y0053210D01*
X0076063Y0053210D01*
X0076063Y0052612D02*
X0074647Y0052612D01*
X0076063Y0052612D01*
X0076063Y0052013D02*
X0074647Y0052013D01*
X0076063Y0052013D01*
X0076063Y0051415D02*
X0075711Y0051415D01*
X0076063Y0051415D01*
X0078663Y0051415D02*
X0079015Y0051415D01*
X0078663Y0051415D01*
X0078663Y0052013D02*
X0080079Y0052013D01*
X0078663Y0052013D01*
X0078663Y0052612D02*
X0080079Y0052612D01*
X0078663Y0052612D01*
X0078663Y0053210D02*
X0080079Y0053210D01*
X0078663Y0053210D01*
X0078663Y0053809D02*
X0080079Y0053809D01*
X0078663Y0053809D01*
X0078663Y0054407D02*
X0080079Y0054407D01*
X0078663Y0054407D01*
X0078663Y0055006D02*
X0080079Y0055006D01*
X0078663Y0055006D01*
X0078663Y0055604D02*
X0080079Y0055604D01*
X0078663Y0055604D01*
X0078663Y0056203D02*
X0080079Y0056203D01*
X0078663Y0056203D01*
X0078663Y0056801D02*
X0080079Y0056801D01*
X0078663Y0056801D01*
X0078663Y0057400D02*
X0080079Y0057400D01*
X0078663Y0057400D01*
X0078663Y0057998D02*
X0080079Y0057998D01*
X0078663Y0057998D01*
X0078663Y0058597D02*
X0080079Y0058597D01*
X0078663Y0058597D01*
X0078663Y0059195D02*
X0080079Y0059195D01*
X0078663Y0059195D01*
X0078663Y0059794D02*
X0080079Y0059794D01*
X0078663Y0059794D01*
X0078663Y0060392D02*
X0080079Y0060392D01*
X0078663Y0060392D01*
X0078663Y0060991D02*
X0080079Y0060991D01*
X0078663Y0060991D01*
X0078663Y0061589D02*
X0080079Y0061589D01*
X0078663Y0061589D01*
X0078663Y0062188D02*
X0080079Y0062188D01*
X0078663Y0062188D01*
X0078663Y0062786D02*
X0080079Y0062786D01*
X0078663Y0062786D01*
X0078663Y0063385D02*
X0080079Y0063385D01*
X0078663Y0063385D01*
X0078663Y0063983D02*
X0080079Y0063983D01*
X0078663Y0063983D01*
X0078663Y0064582D02*
X0080079Y0064582D01*
X0078663Y0064582D01*
X0078663Y0065180D02*
X0080079Y0065180D01*
X0078663Y0065180D01*
X0078663Y0065779D02*
X0080079Y0065779D01*
X0078663Y0065779D01*
X0078663Y0066377D02*
X0080079Y0066377D01*
X0078663Y0066377D01*
X0078663Y0066976D02*
X0080079Y0066976D01*
X0078663Y0066976D01*
X0078663Y0067574D02*
X0080079Y0067574D01*
X0078663Y0067574D01*
X0078663Y0068173D02*
X0080079Y0068173D01*
X0078663Y0068173D01*
X0078663Y0068772D02*
X0080079Y0068772D01*
X0078663Y0068772D01*
X0078663Y0069370D02*
X0080079Y0069370D01*
X0078663Y0069370D01*
X0078663Y0069969D02*
X0080079Y0069969D01*
X0078663Y0069969D01*
X0078663Y0070567D02*
X0080079Y0070567D01*
X0078663Y0070567D01*
X0078663Y0071166D02*
X0080079Y0071166D01*
X0078663Y0071166D01*
X0078663Y0071764D02*
X0080079Y0071764D01*
X0078663Y0071764D01*
X0078663Y0072363D02*
X0080079Y0072363D01*
X0078663Y0072363D01*
X0078663Y0072961D02*
X0080079Y0072961D01*
X0078663Y0072961D01*
X0078663Y0073560D02*
X0080079Y0073560D01*
X0078663Y0073560D01*
X0078663Y0074158D02*
X0080079Y0074158D01*
X0078663Y0074158D01*
X0078663Y0074757D02*
X0080079Y0074757D01*
X0078663Y0074757D01*
X0078663Y0075355D02*
X0080079Y0075355D01*
X0078663Y0075355D01*
X0078663Y0075954D02*
X0080079Y0075954D01*
X0078663Y0075954D01*
X0078663Y0076552D02*
X0080079Y0076552D01*
X0078663Y0076552D01*
X0078663Y0077151D02*
X0080312Y0077151D01*
X0078663Y0077151D01*
X0078663Y0077749D02*
X0080911Y0077749D01*
X0078663Y0077749D01*
X0078663Y0078348D02*
X0081509Y0078348D01*
X0078663Y0078348D01*
X0078663Y0078946D02*
X0082108Y0078946D01*
X0078663Y0078946D01*
X0078663Y0079545D02*
X0082706Y0079545D01*
X0078663Y0079545D01*
X0078663Y0080143D02*
X0083305Y0080143D01*
X0078663Y0080143D01*
X0078663Y0080742D02*
X0083903Y0080742D01*
X0078663Y0080742D01*
X0078663Y0081340D02*
X0084502Y0081340D01*
X0078663Y0081340D01*
X0078777Y0081939D02*
X0085100Y0081939D01*
X0078777Y0081939D01*
X0079376Y0082537D02*
X0085699Y0082537D01*
X0079376Y0082537D01*
X0079974Y0083136D02*
X0086297Y0083136D01*
X0079974Y0083136D01*
X0080573Y0083734D02*
X0086896Y0083734D01*
X0080573Y0083734D01*
X0081171Y0084333D02*
X0087494Y0084333D01*
X0081171Y0084333D01*
X0081770Y0084931D02*
X0088093Y0084931D01*
X0081770Y0084931D01*
X0082368Y0085530D02*
X0088691Y0085530D01*
X0082368Y0085530D01*
X0082967Y0086128D02*
X0089290Y0086128D01*
X0082967Y0086128D01*
X0083565Y0086727D02*
X0085320Y0086727D01*
X0083565Y0086727D01*
X0087280Y0086727D02*
X0089888Y0086727D01*
X0087280Y0086727D01*
X0088725Y0087325D02*
X0090487Y0087325D01*
X0088725Y0087325D01*
X0089429Y0087924D02*
X0091085Y0087924D01*
X0089429Y0087924D01*
X0090028Y0088522D02*
X0091684Y0088522D01*
X0090028Y0088522D01*
X0090376Y0089121D02*
X0092224Y0089121D01*
X0090376Y0089121D01*
X0090624Y0089719D02*
X0091976Y0089719D01*
X0090624Y0089719D01*
X0090872Y0090318D02*
X0091728Y0090318D01*
X0090872Y0090318D01*
X0090900Y0090916D02*
X0091700Y0090916D01*
X0090900Y0090916D01*
X0090900Y0091515D02*
X0091700Y0091515D01*
X0090900Y0091515D01*
X0090900Y0092113D02*
X0091700Y0092113D01*
X0090900Y0092113D01*
X0090694Y0092712D02*
X0091906Y0092712D01*
X0090694Y0092712D01*
X0090446Y0093310D02*
X0092154Y0093310D01*
X0090446Y0093310D01*
X0090196Y0093909D02*
X0092404Y0093909D01*
X0090196Y0093909D01*
X0089598Y0094508D02*
X0093002Y0094508D01*
X0089598Y0094508D01*
X0088999Y0095106D02*
X0093601Y0095106D01*
X0088999Y0095106D01*
X0087687Y0095705D02*
X0094913Y0095705D01*
X0087687Y0095705D01*
X0097687Y0095705D02*
X0104913Y0095705D01*
X0097687Y0095705D01*
X0098999Y0095106D02*
X0103601Y0095106D01*
X0098999Y0095106D01*
X0099598Y0094508D02*
X0103002Y0094508D01*
X0099598Y0094508D01*
X0100196Y0093909D02*
X0102404Y0093909D01*
X0100196Y0093909D01*
X0100446Y0093310D02*
X0102154Y0093310D01*
X0100446Y0093310D01*
X0100694Y0092712D02*
X0101906Y0092712D01*
X0100694Y0092712D01*
X0100900Y0092113D02*
X0101700Y0092113D01*
X0100900Y0092113D01*
X0100900Y0091515D02*
X0101700Y0091515D01*
X0100900Y0091515D01*
X0100900Y0090916D02*
X0101700Y0090916D01*
X0100900Y0090916D01*
X0100872Y0090318D02*
X0101728Y0090318D01*
X0100872Y0090318D01*
X0100624Y0089719D02*
X0101976Y0089719D01*
X0100624Y0089719D01*
X0100376Y0089121D02*
X0102224Y0089121D01*
X0100376Y0089121D01*
X0100028Y0088522D02*
X0101684Y0088522D01*
X0100028Y0088522D01*
X0099429Y0087924D02*
X0101085Y0087924D01*
X0099429Y0087924D01*
X0098725Y0087325D02*
X0100487Y0087325D01*
X0098725Y0087325D01*
X0099888Y0086727D02*
X0097280Y0086727D01*
X0099888Y0086727D01*
X0099290Y0086128D02*
X0092967Y0086128D01*
X0099290Y0086128D01*
X0098691Y0085530D02*
X0092368Y0085530D01*
X0098691Y0085530D01*
X0098093Y0084931D02*
X0091770Y0084931D01*
X0098093Y0084931D01*
X0097494Y0084333D02*
X0091171Y0084333D01*
X0097494Y0084333D01*
X0096896Y0083734D02*
X0090573Y0083734D01*
X0096896Y0083734D01*
X0096297Y0083136D02*
X0089974Y0083136D01*
X0096297Y0083136D01*
X0095699Y0082537D02*
X0089376Y0082537D01*
X0095699Y0082537D01*
X0095100Y0081939D02*
X0088777Y0081939D01*
X0095100Y0081939D01*
X0094502Y0081340D02*
X0088179Y0081340D01*
X0094502Y0081340D01*
X0093903Y0080742D02*
X0087580Y0080742D01*
X0093903Y0080742D01*
X0093305Y0080143D02*
X0086982Y0080143D01*
X0093305Y0080143D01*
X0092706Y0079545D02*
X0086383Y0079545D01*
X0092706Y0079545D01*
X0092108Y0078946D02*
X0085785Y0078946D01*
X0092108Y0078946D01*
X0091509Y0078348D02*
X0085186Y0078348D01*
X0091509Y0078348D01*
X0090911Y0077749D02*
X0084588Y0077749D01*
X0090911Y0077749D01*
X0090312Y0077151D02*
X0083989Y0077151D01*
X0090312Y0077151D01*
X0089714Y0076552D02*
X0083391Y0076552D01*
X0089714Y0076552D01*
X0089115Y0075954D02*
X0082792Y0075954D01*
X0089115Y0075954D01*
X0088517Y0075355D02*
X0082679Y0075355D01*
X0088517Y0075355D01*
X0087918Y0074757D02*
X0082679Y0074757D01*
X0087918Y0074757D01*
X0087320Y0074158D02*
X0082679Y0074158D01*
X0087320Y0074158D01*
X0086721Y0073560D02*
X0082679Y0073560D01*
X0086721Y0073560D01*
X0086123Y0072961D02*
X0082679Y0072961D01*
X0086123Y0072961D01*
X0085524Y0072363D02*
X0082679Y0072363D01*
X0085524Y0072363D01*
X0084926Y0071764D02*
X0082679Y0071764D01*
X0084926Y0071764D01*
X0084327Y0071166D02*
X0082679Y0071166D01*
X0084327Y0071166D01*
X0084024Y0070567D02*
X0082679Y0070567D01*
X0084024Y0070567D01*
X0084024Y0069969D02*
X0082679Y0069969D01*
X0084024Y0069969D01*
X0084024Y0069370D02*
X0082679Y0069370D01*
X0084024Y0069370D01*
X0084024Y0068772D02*
X0082679Y0068772D01*
X0084024Y0068772D01*
X0084024Y0068173D02*
X0082679Y0068173D01*
X0084024Y0068173D01*
X0084024Y0067574D02*
X0082679Y0067574D01*
X0084024Y0067574D01*
X0084024Y0066976D02*
X0082679Y0066976D01*
X0084024Y0066976D01*
X0084024Y0066377D02*
X0082679Y0066377D01*
X0084024Y0066377D01*
X0084024Y0065779D02*
X0082679Y0065779D01*
X0084024Y0065779D01*
X0084024Y0065180D02*
X0082679Y0065180D01*
X0084024Y0065180D01*
X0084094Y0064582D02*
X0082679Y0064582D01*
X0084094Y0064582D01*
X0084094Y0063983D02*
X0082679Y0063983D01*
X0084094Y0063983D01*
X0084094Y0063385D02*
X0082679Y0063385D01*
X0084094Y0063385D01*
X0084094Y0062786D02*
X0082679Y0062786D01*
X0084094Y0062786D01*
X0084094Y0062188D02*
X0082679Y0062188D01*
X0084094Y0062188D01*
X0084094Y0061589D02*
X0082679Y0061589D01*
X0084094Y0061589D01*
X0084094Y0060991D02*
X0082679Y0060991D01*
X0084094Y0060991D01*
X0084094Y0060392D02*
X0082679Y0060392D01*
X0084094Y0060392D01*
X0084094Y0059794D02*
X0082679Y0059794D01*
X0084094Y0059794D01*
X0084094Y0059195D02*
X0082679Y0059195D01*
X0084094Y0059195D01*
X0084094Y0058597D02*
X0082679Y0058597D01*
X0084094Y0058597D01*
X0084094Y0057998D02*
X0082679Y0057998D01*
X0084094Y0057998D01*
X0084094Y0057400D02*
X0082679Y0057400D01*
X0084094Y0057400D01*
X0084094Y0056801D02*
X0082679Y0056801D01*
X0084094Y0056801D01*
X0084094Y0056203D02*
X0082679Y0056203D01*
X0084094Y0056203D01*
X0084094Y0055604D02*
X0082679Y0055604D01*
X0084094Y0055604D01*
X0084094Y0055006D02*
X0082679Y0055006D01*
X0084094Y0055006D01*
X0084094Y0054407D02*
X0082679Y0054407D01*
X0084094Y0054407D01*
X0084094Y0053809D02*
X0082679Y0053809D01*
X0084094Y0053809D01*
X0084094Y0053210D02*
X0082679Y0053210D01*
X0084094Y0053210D01*
X0084094Y0052612D02*
X0082679Y0052612D01*
X0084094Y0052612D01*
X0084094Y0052013D02*
X0082679Y0052013D01*
X0084094Y0052013D01*
X0084094Y0051415D02*
X0083743Y0051415D01*
X0084094Y0051415D01*
X0086694Y0051415D02*
X0136700Y0051415D01*
X0103773Y0051415D01*
X0103608Y0051415D02*
X0103008Y0051415D01*
X0102842Y0051415D02*
X0086694Y0051415D01*
X0086694Y0052013D02*
X0136700Y0052013D01*
X0086694Y0052013D01*
X0086694Y0052612D02*
X0136700Y0052612D01*
X0086694Y0052612D01*
X0086694Y0053210D02*
X0136700Y0053210D01*
X0086694Y0053210D01*
X0086694Y0053809D02*
X0136700Y0053809D01*
X0086694Y0053809D01*
X0086694Y0054407D02*
X0136700Y0054407D01*
X0086694Y0054407D01*
X0086694Y0055006D02*
X0136700Y0055006D01*
X0086694Y0055006D01*
X0086694Y0055604D02*
X0136700Y0055604D01*
X0086694Y0055604D01*
X0086694Y0056203D02*
X0136700Y0056203D01*
X0086694Y0056203D01*
X0086694Y0056801D02*
X0136700Y0056801D01*
X0086694Y0056801D01*
X0086694Y0057400D02*
X0136700Y0057400D01*
X0086694Y0057400D01*
X0086694Y0057998D02*
X0136700Y0057998D01*
X0086694Y0057998D01*
X0086694Y0058597D02*
X0136700Y0058597D01*
X0086694Y0058597D01*
X0086694Y0059195D02*
X0136700Y0059195D01*
X0086694Y0059195D01*
X0086694Y0059794D02*
X0136700Y0059794D01*
X0086694Y0059794D01*
X0086694Y0060392D02*
X0136700Y0060392D01*
X0086694Y0060392D01*
X0086694Y0060991D02*
X0136700Y0060991D01*
X0086694Y0060991D01*
X0086694Y0061589D02*
X0136700Y0061589D01*
X0086694Y0061589D01*
X0086694Y0062188D02*
X0136700Y0062188D01*
X0086694Y0062188D01*
X0086694Y0062786D02*
X0136700Y0062786D01*
X0086694Y0062786D01*
X0086694Y0063385D02*
X0136700Y0063385D01*
X0086694Y0063385D01*
X0086694Y0063983D02*
X0087152Y0063983D01*
X0086694Y0063983D01*
X0091432Y0063983D02*
X0096168Y0063983D01*
X0091432Y0063983D01*
X0092061Y0064582D02*
X0095539Y0064582D01*
X0092061Y0064582D01*
X0092608Y0065180D02*
X0094992Y0065180D01*
X0092608Y0065180D01*
X0092856Y0065779D02*
X0094744Y0065779D01*
X0092856Y0065779D01*
X0093104Y0066377D02*
X0094496Y0066377D01*
X0093104Y0066377D01*
X0093161Y0066976D02*
X0094439Y0066976D01*
X0093161Y0066976D01*
X0093161Y0067574D02*
X0094439Y0067574D01*
X0093161Y0067574D01*
X0093111Y0068173D02*
X0094489Y0068173D01*
X0093111Y0068173D01*
X0092863Y0068772D02*
X0094737Y0068772D01*
X0092863Y0068772D01*
X0092615Y0069370D02*
X0094985Y0069370D01*
X0092615Y0069370D01*
X0092079Y0069969D02*
X0095521Y0069969D01*
X0092079Y0069969D01*
X0091476Y0070567D02*
X0096124Y0070567D01*
X0091476Y0070567D01*
X0089201Y0072363D02*
X0136700Y0072363D01*
X0089201Y0072363D01*
X0089800Y0072961D02*
X0136700Y0072961D01*
X0089800Y0072961D01*
X0090398Y0073560D02*
X0136700Y0073560D01*
X0090398Y0073560D01*
X0090997Y0074158D02*
X0136700Y0074158D01*
X0090997Y0074158D01*
X0091595Y0074757D02*
X0136700Y0074757D01*
X0091595Y0074757D01*
X0092194Y0075355D02*
X0136700Y0075355D01*
X0092194Y0075355D01*
X0092792Y0075954D02*
X0136700Y0075954D01*
X0092792Y0075954D01*
X0093391Y0076552D02*
X0136700Y0076552D01*
X0093391Y0076552D01*
X0093989Y0077151D02*
X0136700Y0077151D01*
X0093989Y0077151D01*
X0094588Y0077749D02*
X0136700Y0077749D01*
X0094588Y0077749D01*
X0095186Y0078348D02*
X0136700Y0078348D01*
X0095186Y0078348D01*
X0095785Y0078946D02*
X0136700Y0078946D01*
X0095785Y0078946D01*
X0096383Y0079545D02*
X0136700Y0079545D01*
X0096383Y0079545D01*
X0096982Y0080143D02*
X0136700Y0080143D01*
X0096982Y0080143D01*
X0097580Y0080742D02*
X0123976Y0080742D01*
X0097580Y0080742D01*
X0098179Y0081340D02*
X0121951Y0081340D01*
X0098179Y0081340D01*
X0098777Y0081939D02*
X0120914Y0081939D01*
X0098777Y0081939D01*
X0099376Y0082537D02*
X0119877Y0082537D01*
X0099376Y0082537D01*
X0099974Y0083136D02*
X0119191Y0083136D01*
X0099974Y0083136D01*
X0100573Y0083734D02*
X0118592Y0083734D01*
X0100573Y0083734D01*
X0101171Y0084333D02*
X0117994Y0084333D01*
X0101171Y0084333D01*
X0101770Y0084931D02*
X0117506Y0084931D01*
X0101770Y0084931D01*
X0102368Y0085530D02*
X0117161Y0085530D01*
X0102368Y0085530D01*
X0102967Y0086128D02*
X0116815Y0086128D01*
X0102967Y0086128D01*
X0103565Y0086727D02*
X0105320Y0086727D01*
X0103565Y0086727D01*
X0107280Y0086727D02*
X0116470Y0086727D01*
X0107280Y0086727D01*
X0108725Y0087325D02*
X0116184Y0087325D01*
X0108725Y0087325D01*
X0109429Y0087924D02*
X0116024Y0087924D01*
X0109429Y0087924D01*
X0110028Y0088522D02*
X0115863Y0088522D01*
X0110028Y0088522D01*
X0110376Y0089121D02*
X0115703Y0089121D01*
X0110376Y0089121D01*
X0110624Y0089719D02*
X0115543Y0089719D01*
X0110624Y0089719D01*
X0110872Y0090318D02*
X0115500Y0090318D01*
X0110872Y0090318D01*
X0110900Y0090916D02*
X0115500Y0090916D01*
X0110900Y0090916D01*
X0110900Y0091515D02*
X0115500Y0091515D01*
X0110900Y0091515D01*
X0110900Y0092113D02*
X0115500Y0092113D01*
X0110900Y0092113D01*
X0110694Y0092712D02*
X0115500Y0092712D01*
X0110694Y0092712D01*
X0110446Y0093310D02*
X0115658Y0093310D01*
X0110446Y0093310D01*
X0110196Y0093909D02*
X0115818Y0093909D01*
X0110196Y0093909D01*
X0109598Y0094508D02*
X0115978Y0094508D01*
X0109598Y0094508D01*
X0108999Y0095106D02*
X0116139Y0095106D01*
X0108999Y0095106D01*
X0107687Y0095705D02*
X0116372Y0095705D01*
X0107687Y0095705D01*
X0095320Y0086727D02*
X0093565Y0086727D01*
X0095320Y0086727D01*
X0097538Y0071153D02*
X0096117Y0070564D01*
X0095028Y0069476D01*
X0094439Y0068054D01*
X0094439Y0066515D01*
X0095028Y0065093D01*
X0096117Y0064005D01*
X0097538Y0063416D01*
X0099077Y0063416D01*
X0100499Y0064005D01*
X0101587Y0065093D01*
X0102176Y0066515D01*
X0102176Y0068054D01*
X0101587Y0069476D01*
X0100499Y0070564D01*
X0099077Y0071153D01*
X0097538Y0071153D01*
X0096117Y0070564D01*
X0095028Y0069476D01*
X0094439Y0068054D01*
X0094439Y0066515D01*
X0095028Y0065093D01*
X0096117Y0064005D01*
X0097538Y0063416D01*
X0099077Y0063416D01*
X0100499Y0064005D01*
X0101587Y0065093D01*
X0102176Y0066515D01*
X0102176Y0068054D01*
X0101587Y0069476D01*
X0100499Y0070564D01*
X0099077Y0071153D01*
X0097538Y0071153D01*
X0100491Y0070567D02*
X0136700Y0070567D01*
X0100491Y0070567D01*
X0101094Y0069969D02*
X0136700Y0069969D01*
X0101094Y0069969D01*
X0101631Y0069370D02*
X0136700Y0069370D01*
X0101631Y0069370D01*
X0101879Y0068772D02*
X0136700Y0068772D01*
X0101879Y0068772D01*
X0102127Y0068173D02*
X0136700Y0068173D01*
X0102127Y0068173D01*
X0102176Y0067574D02*
X0136700Y0067574D01*
X0102176Y0067574D01*
X0102176Y0066976D02*
X0136700Y0066976D01*
X0102176Y0066976D01*
X0102120Y0066377D02*
X0136700Y0066377D01*
X0102120Y0066377D01*
X0101872Y0065779D02*
X0136700Y0065779D01*
X0101872Y0065779D01*
X0101624Y0065180D02*
X0136700Y0065180D01*
X0101624Y0065180D01*
X0101076Y0064582D02*
X0136700Y0064582D01*
X0101076Y0064582D01*
X0100448Y0063983D02*
X0136700Y0063983D01*
X0100448Y0063983D01*
X0088603Y0071764D02*
X0136700Y0071764D01*
X0088603Y0071764D01*
X0088004Y0071166D02*
X0136700Y0071166D01*
X0088004Y0071166D01*
X0075320Y0086727D02*
X0074647Y0086727D01*
X0075320Y0086727D01*
X0068031Y0086727D02*
X0067280Y0086727D01*
X0068031Y0086727D01*
X0059035Y0086727D02*
X0057280Y0086727D01*
X0059035Y0086727D01*
X0049035Y0086727D02*
X0047280Y0086727D01*
X0049035Y0086727D01*
X0045062Y0071153D02*
X0043523Y0071153D01*
X0042101Y0070564D01*
X0041013Y0069476D01*
X0040424Y0068054D01*
X0040424Y0066515D01*
X0041013Y0065093D01*
X0042101Y0064005D01*
X0043523Y0063416D01*
X0045062Y0063416D01*
X0046483Y0064005D01*
X0047572Y0065093D01*
X0048161Y0066515D01*
X0048161Y0068054D01*
X0047572Y0069476D01*
X0046483Y0070564D01*
X0045062Y0071153D01*
X0043523Y0071153D01*
X0042101Y0070564D01*
X0041013Y0069476D01*
X0040424Y0068054D01*
X0040424Y0066515D01*
X0041013Y0065093D01*
X0042101Y0064005D01*
X0043523Y0063416D01*
X0045062Y0063416D01*
X0046483Y0064005D01*
X0047572Y0065093D01*
X0048161Y0066515D01*
X0048161Y0068054D01*
X0047572Y0069476D01*
X0046483Y0070564D01*
X0045062Y0071153D01*
X0046476Y0070567D02*
X0051124Y0070567D01*
X0046476Y0070567D01*
X0047079Y0069969D02*
X0050521Y0069969D01*
X0047079Y0069969D01*
X0047615Y0069370D02*
X0049985Y0069370D01*
X0047615Y0069370D01*
X0047863Y0068772D02*
X0049737Y0068772D01*
X0047863Y0068772D01*
X0048111Y0068173D02*
X0049489Y0068173D01*
X0048111Y0068173D01*
X0048161Y0067574D02*
X0049439Y0067574D01*
X0048161Y0067574D01*
X0048161Y0066976D02*
X0049439Y0066976D01*
X0048161Y0066976D01*
X0048104Y0066377D02*
X0049496Y0066377D01*
X0048104Y0066377D01*
X0047856Y0065779D02*
X0049744Y0065779D01*
X0047856Y0065779D01*
X0047608Y0065180D02*
X0049992Y0065180D01*
X0047608Y0065180D01*
X0047061Y0064582D02*
X0050539Y0064582D01*
X0047061Y0064582D01*
X0046432Y0063983D02*
X0051168Y0063983D01*
X0046432Y0063983D01*
X0055448Y0063983D02*
X0055984Y0063983D01*
X0055448Y0063983D01*
X0054322Y0050816D02*
X0041018Y0050816D01*
X0042063Y0050816D02*
X0054322Y0050816D01*
X0053888Y0050218D02*
X0042463Y0050218D01*
X0043103Y0050218D02*
X0053888Y0050218D01*
X0053640Y0049619D02*
X0043266Y0049619D01*
X0043832Y0049619D02*
X0053640Y0049619D01*
X0053416Y0049021D02*
X0043865Y0049021D01*
X0044395Y0049021D02*
X0053416Y0049021D01*
X0053416Y0048422D02*
X0044463Y0048422D01*
X0044841Y0048422D02*
X0053416Y0048422D01*
X0053416Y0047824D02*
X0044768Y0047824D01*
X0045187Y0047824D02*
X0053416Y0047824D01*
X0053545Y0047225D02*
X0045016Y0047225D01*
X0045449Y0047225D02*
X0053545Y0047225D01*
X0053793Y0046627D02*
X0045264Y0046627D01*
X0045652Y0046627D02*
X0053793Y0046627D01*
X0054093Y0046028D02*
X0045507Y0046028D01*
X0045803Y0046028D02*
X0054093Y0046028D01*
X0054692Y0045430D02*
X0045507Y0045430D01*
X0045882Y0045430D02*
X0054692Y0045430D01*
X0055569Y0044831D02*
X0045507Y0044831D01*
X0045507Y0044233D02*
X0058762Y0044233D01*
X0045889Y0044233D01*
X0045810Y0043634D02*
X0058163Y0043634D01*
X0045507Y0043634D01*
X0045667Y0043036D02*
X0057832Y0043036D01*
X0045287Y0043036D01*
X0045472Y0042437D02*
X0057584Y0042437D01*
X0045039Y0042437D01*
X0048302Y0041839D02*
X0057431Y0041839D01*
X0048302Y0041839D01*
X0050479Y0041240D02*
X0057431Y0041240D01*
X0050479Y0041240D01*
X0051515Y0040641D02*
X0057431Y0040641D01*
X0051515Y0040641D01*
X0052552Y0040043D02*
X0057633Y0040043D01*
X0052552Y0040043D01*
X0053284Y0039444D02*
X0057881Y0039444D01*
X0053284Y0039444D01*
X0053883Y0038846D02*
X0058283Y0038846D01*
X0053883Y0038846D01*
X0054481Y0038247D02*
X0058882Y0038247D01*
X0054481Y0038247D01*
X0054987Y0037649D02*
X0060006Y0037649D01*
X0054987Y0037649D01*
X0055333Y0037050D02*
X0087267Y0037050D01*
X0055333Y0037050D01*
X0055678Y0036452D02*
X0086922Y0036452D01*
X0055678Y0036452D01*
X0056024Y0035853D02*
X0086576Y0035853D01*
X0056024Y0035853D01*
X0056315Y0035255D02*
X0086285Y0035255D01*
X0056315Y0035255D01*
X0056476Y0034656D02*
X0086124Y0034656D01*
X0056476Y0034656D01*
X0056636Y0034058D02*
X0085964Y0034058D01*
X0056636Y0034058D01*
X0056796Y0033459D02*
X0085804Y0033459D01*
X0056796Y0033459D01*
X0056957Y0032861D02*
X0085643Y0032861D01*
X0056957Y0032861D01*
X0056998Y0032262D02*
X0085602Y0032262D01*
X0056998Y0032262D01*
X0056998Y0031664D02*
X0085602Y0031664D01*
X0056998Y0031664D01*
X0056998Y0031065D02*
X0085602Y0031065D01*
X0056998Y0031065D01*
X0056998Y0030467D02*
X0085602Y0030467D01*
X0056998Y0030467D01*
X0056991Y0029868D02*
X0085609Y0029868D01*
X0056991Y0029868D01*
X0056831Y0029270D02*
X0085769Y0029270D01*
X0056831Y0029270D01*
X0056671Y0028671D02*
X0085929Y0028671D01*
X0056671Y0028671D01*
X0056510Y0028073D02*
X0086090Y0028073D01*
X0056510Y0028073D01*
X0056350Y0027474D02*
X0086250Y0027474D01*
X0056350Y0027474D01*
X0056098Y0026876D02*
X0086502Y0026876D01*
X0056098Y0026876D01*
X0055753Y0026277D02*
X0086847Y0026277D01*
X0055753Y0026277D01*
X0055407Y0025679D02*
X0087193Y0025679D01*
X0055407Y0025679D01*
X0055062Y0025080D02*
X0087538Y0025080D01*
X0055062Y0025080D01*
X0054610Y0024482D02*
X0087990Y0024482D01*
X0054610Y0024482D01*
X0054012Y0023883D02*
X0088588Y0023883D01*
X0054012Y0023883D01*
X0053413Y0023285D02*
X0089187Y0023285D01*
X0053413Y0023285D01*
X0052776Y0022686D02*
X0089824Y0022686D01*
X0052776Y0022686D01*
X0051739Y0022088D02*
X0090861Y0022088D01*
X0051739Y0022088D01*
X0050702Y0021489D02*
X0091898Y0021489D01*
X0050702Y0021489D01*
X0048784Y0020891D02*
X0093816Y0020891D01*
X0048784Y0020891D01*
X0043816Y0020891D02*
X0026120Y0020891D01*
X0043816Y0020891D01*
X0041898Y0021489D02*
X0025775Y0021489D01*
X0041898Y0021489D01*
X0040861Y0022088D02*
X0025429Y0022088D01*
X0040861Y0022088D01*
X0039824Y0022686D02*
X0025084Y0022686D01*
X0039824Y0022686D01*
X0039187Y0023285D02*
X0024589Y0023285D01*
X0039187Y0023285D01*
X0038588Y0023883D02*
X0023990Y0023883D01*
X0038588Y0023883D01*
X0037990Y0024482D02*
X0023392Y0024482D01*
X0037990Y0024482D01*
X0037538Y0025080D02*
X0022692Y0025080D01*
X0037538Y0025080D01*
X0037193Y0025679D02*
X0021656Y0025679D01*
X0037193Y0025679D01*
X0036847Y0026277D02*
X0020619Y0026277D01*
X0036847Y0026277D01*
X0036502Y0026876D02*
X0018559Y0026876D01*
X0036502Y0026876D01*
X0026411Y0020292D02*
X0116189Y0020292D01*
X0026411Y0020292D01*
X0026572Y0019694D02*
X0116028Y0019694D01*
X0026572Y0019694D01*
X0026732Y0019095D02*
X0115868Y0019095D01*
X0026732Y0019095D01*
X0026892Y0018497D02*
X0115708Y0018497D01*
X0026892Y0018497D01*
X0027053Y0017898D02*
X0115547Y0017898D01*
X0027053Y0017898D01*
X0027100Y0017300D02*
X0115500Y0017300D01*
X0027100Y0017300D01*
X0027100Y0016701D02*
X0115500Y0016701D01*
X0027100Y0016701D01*
X0027100Y0016103D02*
X0115500Y0016103D01*
X0027100Y0016103D01*
X0027100Y0015504D02*
X0115500Y0015504D01*
X0027100Y0015504D01*
X0027100Y0014905D02*
X0115500Y0014905D01*
X0027100Y0014905D01*
X0026947Y0014307D02*
X0115653Y0014307D01*
X0026947Y0014307D01*
X0026787Y0013708D02*
X0115813Y0013708D01*
X0026787Y0013708D01*
X0026626Y0013110D02*
X0115974Y0013110D01*
X0026626Y0013110D01*
X0026466Y0012511D02*
X0116134Y0012511D01*
X0026466Y0012511D01*
X0026238Y0011913D02*
X0116362Y0011913D01*
X0026238Y0011913D01*
X0025892Y0011314D02*
X0116708Y0011314D01*
X0025892Y0011314D01*
X0025547Y0010716D02*
X0117053Y0010716D01*
X0025547Y0010716D01*
X0025201Y0010117D02*
X0117399Y0010117D01*
X0025201Y0010117D01*
X0024792Y0009519D02*
X0117808Y0009519D01*
X0024792Y0009519D01*
X0024194Y0008920D02*
X0118406Y0008920D01*
X0024194Y0008920D01*
X0023595Y0008322D02*
X0119005Y0008322D01*
X0023595Y0008322D01*
X0022997Y0007723D02*
X0119603Y0007723D01*
X0022997Y0007723D01*
X0022008Y0007125D02*
X0120592Y0007125D01*
X0022008Y0007125D01*
X0020972Y0006526D02*
X0121628Y0006526D01*
X0020972Y0006526D01*
X0019318Y0005928D02*
X0123281Y0005928D01*
X0019318Y0005928D01*
X0062594Y0037649D02*
X0068037Y0037649D01*
X0062594Y0037649D01*
X0063718Y0038247D02*
X0066913Y0038247D01*
X0063718Y0038247D01*
X0064317Y0038846D02*
X0066315Y0038846D01*
X0064317Y0038846D01*
X0064719Y0039444D02*
X0065913Y0039444D01*
X0064719Y0039444D01*
X0064967Y0040043D02*
X0065665Y0040043D01*
X0064967Y0040043D01*
X0065168Y0040641D02*
X0065463Y0040641D01*
X0065168Y0040641D01*
X0065168Y0041240D02*
X0065463Y0041240D01*
X0065168Y0041240D01*
X0065168Y0041839D02*
X0065463Y0041839D01*
X0065168Y0041839D01*
X0065016Y0042437D02*
X0065615Y0042437D01*
X0065016Y0042437D01*
X0064768Y0043036D02*
X0065863Y0043036D01*
X0064768Y0043036D01*
X0064437Y0043634D02*
X0066195Y0043634D01*
X0064437Y0043634D01*
X0063838Y0044233D02*
X0066793Y0044233D01*
X0063838Y0044233D01*
X0063601Y0044831D02*
X0062884Y0044831D01*
X0063601Y0044831D01*
X0062723Y0045430D02*
X0062600Y0045430D01*
X0062723Y0045430D01*
X0060000Y0045430D02*
X0059877Y0045430D01*
X0060000Y0045430D01*
X0059716Y0044831D02*
X0058999Y0044831D01*
X0059716Y0044831D01*
X0055569Y0044831D02*
X0039592Y0044831D01*
X0067031Y0044831D02*
X0067747Y0044831D01*
X0067031Y0044831D01*
X0067908Y0045430D02*
X0068031Y0045430D01*
X0067908Y0045430D01*
X0070631Y0045430D02*
X0070755Y0045430D01*
X0070631Y0045430D01*
X0070916Y0044831D02*
X0071632Y0044831D01*
X0070916Y0044831D01*
X0071870Y0044233D02*
X0074825Y0044233D01*
X0071870Y0044233D01*
X0072468Y0043634D02*
X0074226Y0043634D01*
X0072468Y0043634D01*
X0072800Y0043036D02*
X0073895Y0043036D01*
X0072800Y0043036D01*
X0073048Y0042437D02*
X0073647Y0042437D01*
X0073048Y0042437D01*
X0073200Y0041839D02*
X0073494Y0041839D01*
X0073200Y0041839D01*
X0073200Y0041240D02*
X0073494Y0041240D01*
X0073200Y0041240D01*
X0073200Y0040641D02*
X0073494Y0040641D01*
X0073200Y0040641D01*
X0072998Y0040043D02*
X0073696Y0040043D01*
X0072998Y0040043D01*
X0072750Y0039444D02*
X0073944Y0039444D01*
X0072750Y0039444D01*
X0072348Y0038846D02*
X0074346Y0038846D01*
X0072348Y0038846D01*
X0071750Y0038247D02*
X0074945Y0038247D01*
X0071750Y0038247D01*
X0070626Y0037649D02*
X0076069Y0037649D01*
X0070626Y0037649D01*
X0078657Y0037649D02*
X0081836Y0037649D01*
X0078657Y0037649D01*
X0079781Y0038247D02*
X0081526Y0038247D01*
X0079781Y0038247D01*
X0080380Y0038846D02*
X0081526Y0038846D01*
X0080380Y0038846D01*
X0080782Y0039444D02*
X0081526Y0039444D01*
X0080782Y0039444D01*
X0081030Y0040043D02*
X0081526Y0040043D01*
X0081030Y0040043D01*
X0081231Y0040641D02*
X0081526Y0040641D01*
X0081231Y0040641D01*
X0081231Y0041240D02*
X0081526Y0041240D01*
X0081231Y0041240D01*
X0081231Y0041839D02*
X0081526Y0041839D01*
X0081231Y0041839D01*
X0081079Y0042437D02*
X0081526Y0042437D01*
X0081079Y0042437D01*
X0080831Y0043036D02*
X0081526Y0043036D01*
X0080831Y0043036D01*
X0080500Y0043634D02*
X0081526Y0043634D01*
X0080500Y0043634D01*
X0079901Y0044233D02*
X0081526Y0044233D01*
X0079901Y0044233D01*
X0079664Y0044831D02*
X0078947Y0044831D01*
X0079664Y0044831D01*
X0078786Y0045430D02*
X0078663Y0045430D01*
X0078786Y0045430D01*
X0076063Y0045430D02*
X0075940Y0045430D01*
X0076063Y0045430D01*
X0075779Y0044831D02*
X0075062Y0044831D01*
X0075779Y0044831D01*
X0083710Y0045168D02*
X0084094Y0045168D01*
X0084094Y0045553D01*
X0083710Y0045168D01*
X0083971Y0045430D02*
X0084094Y0045430D01*
X0086694Y0045430D02*
X0097093Y0045430D01*
X0096718Y0045430D02*
X0086694Y0045430D01*
X0086694Y0046028D02*
X0097093Y0046028D01*
X0096797Y0046028D02*
X0086694Y0046028D01*
X0086694Y0046627D02*
X0097336Y0046627D01*
X0096948Y0046627D02*
X0086694Y0046627D01*
X0086694Y0047225D02*
X0097584Y0047225D01*
X0097151Y0047225D02*
X0086694Y0047225D01*
X0086694Y0047824D02*
X0097832Y0047824D01*
X0097413Y0047824D02*
X0086694Y0047824D01*
X0086694Y0048422D02*
X0098137Y0048422D01*
X0097759Y0048422D02*
X0086694Y0048422D01*
X0086694Y0049021D02*
X0098735Y0049021D01*
X0098205Y0049021D02*
X0086694Y0049021D01*
X0086694Y0049619D02*
X0099334Y0049619D01*
X0098768Y0049619D02*
X0086694Y0049619D01*
X0086694Y0050218D02*
X0100137Y0050218D01*
X0099497Y0050218D02*
X0086694Y0050218D01*
X0086694Y0050816D02*
X0101582Y0050816D01*
X0100537Y0050816D02*
X0086694Y0050816D01*
X0089073Y0044831D02*
X0097093Y0044831D01*
X0097093Y0044233D02*
X0089263Y0044233D01*
X0096711Y0044233D01*
X0096790Y0043634D02*
X0089263Y0043634D01*
X0097093Y0043634D01*
X0096933Y0043036D02*
X0089263Y0043036D01*
X0097313Y0043036D01*
X0097128Y0042437D02*
X0089263Y0042437D01*
X0097561Y0042437D01*
X0094298Y0041839D02*
X0089263Y0041839D01*
X0094298Y0041839D01*
X0092121Y0041240D02*
X0089263Y0041240D01*
X0092121Y0041240D01*
X0091085Y0040641D02*
X0089263Y0040641D01*
X0091085Y0040641D01*
X0090048Y0040043D02*
X0089263Y0040043D01*
X0090048Y0040043D01*
X0089316Y0039444D02*
X0089263Y0039444D01*
X0089316Y0039444D01*
X0089073Y0044831D02*
X0103008Y0044831D01*
X0103008Y0045430D02*
X0103608Y0045430D01*
X0103608Y0046028D02*
X0103008Y0046028D01*
X0103008Y0046627D02*
X0103608Y0046627D01*
X0103608Y0047225D02*
X0103008Y0047225D01*
X0103008Y0047824D02*
X0103608Y0047824D01*
X0103608Y0048422D02*
X0103008Y0048422D01*
X0103008Y0049021D02*
X0103608Y0049021D01*
X0103608Y0049619D02*
X0103008Y0049619D01*
X0103008Y0050218D02*
X0103608Y0050218D01*
X0103608Y0050816D02*
X0103008Y0050816D01*
X0105033Y0050816D02*
X0136700Y0050816D01*
X0106079Y0050816D01*
X0106478Y0050218D02*
X0136700Y0050218D01*
X0107119Y0050218D01*
X0107282Y0049619D02*
X0136700Y0049619D01*
X0107848Y0049619D01*
X0107880Y0049021D02*
X0136700Y0049021D01*
X0108410Y0049021D01*
X0108479Y0048422D02*
X0136700Y0048422D01*
X0108857Y0048422D01*
X0108784Y0047824D02*
X0136700Y0047824D01*
X0109203Y0047824D01*
X0109032Y0047225D02*
X0136700Y0047225D01*
X0109465Y0047225D01*
X0109280Y0046627D02*
X0136700Y0046627D01*
X0109668Y0046627D01*
X0109523Y0046028D02*
X0136700Y0046028D01*
X0109819Y0046028D01*
X0109898Y0045430D02*
X0136700Y0045430D01*
X0109523Y0045430D01*
X0109523Y0044831D02*
X0136700Y0044831D01*
X0103608Y0044831D01*
X0109523Y0044233D02*
X0136700Y0044233D01*
X0109905Y0044233D01*
X0109826Y0043634D02*
X0136700Y0043634D01*
X0109523Y0043634D01*
X0109682Y0043036D02*
X0136700Y0043036D01*
X0109302Y0043036D01*
X0109487Y0042437D02*
X0136700Y0042437D01*
X0109054Y0042437D01*
X0109234Y0041839D02*
X0136700Y0041839D01*
X0108807Y0041839D01*
X0108889Y0041240D02*
X0136700Y0041240D01*
X0108533Y0041240D01*
X0108452Y0040641D02*
X0136700Y0040641D01*
X0107935Y0040641D01*
X0107902Y0040043D02*
X0136700Y0040043D01*
X0107336Y0040043D01*
X0107190Y0039444D02*
X0136700Y0039444D01*
X0106609Y0039444D01*
X0106210Y0038846D02*
X0136700Y0038846D01*
X0105164Y0038846D01*
X0104481Y0038247D02*
X0136700Y0038247D01*
X0104481Y0038247D01*
X0104987Y0037649D02*
X0136700Y0037649D01*
X0104987Y0037649D01*
X0105333Y0037050D02*
X0136700Y0037050D01*
X0105333Y0037050D01*
X0105678Y0036452D02*
X0136700Y0036452D01*
X0105678Y0036452D01*
X0106024Y0035853D02*
X0136700Y0035853D01*
X0106024Y0035853D01*
X0106315Y0035255D02*
X0136700Y0035255D01*
X0106315Y0035255D01*
X0106476Y0034656D02*
X0136700Y0034656D01*
X0106476Y0034656D01*
X0106636Y0034058D02*
X0136700Y0034058D01*
X0106636Y0034058D01*
X0106796Y0033459D02*
X0136700Y0033459D01*
X0106796Y0033459D01*
X0106957Y0032861D02*
X0136700Y0032861D01*
X0106957Y0032861D01*
X0106998Y0032262D02*
X0136700Y0032262D01*
X0106998Y0032262D01*
X0106998Y0031664D02*
X0136700Y0031664D01*
X0106998Y0031664D01*
X0106998Y0031065D02*
X0136700Y0031065D01*
X0106998Y0031065D01*
X0106998Y0030467D02*
X0136700Y0030467D01*
X0106998Y0030467D01*
X0106991Y0029868D02*
X0136700Y0029868D01*
X0106991Y0029868D01*
X0106831Y0029270D02*
X0136700Y0029270D01*
X0106831Y0029270D01*
X0106671Y0028671D02*
X0136700Y0028671D01*
X0106671Y0028671D01*
X0106510Y0028073D02*
X0136700Y0028073D01*
X0106510Y0028073D01*
X0106350Y0027474D02*
X0136700Y0027474D01*
X0106350Y0027474D01*
X0106098Y0026876D02*
X0124041Y0026876D01*
X0106098Y0026876D01*
X0105753Y0026277D02*
X0121981Y0026277D01*
X0105753Y0026277D01*
X0105407Y0025679D02*
X0120944Y0025679D01*
X0105407Y0025679D01*
X0105062Y0025080D02*
X0119908Y0025080D01*
X0105062Y0025080D01*
X0104610Y0024482D02*
X0119208Y0024482D01*
X0104610Y0024482D01*
X0104012Y0023883D02*
X0118610Y0023883D01*
X0104012Y0023883D01*
X0103413Y0023285D02*
X0118011Y0023285D01*
X0103413Y0023285D01*
X0102776Y0022686D02*
X0117516Y0022686D01*
X0102776Y0022686D01*
X0101739Y0022088D02*
X0117171Y0022088D01*
X0101739Y0022088D01*
X0100702Y0021489D02*
X0116825Y0021489D01*
X0100702Y0021489D01*
X0098784Y0020891D02*
X0116480Y0020891D01*
X0098784Y0020891D01*
X0128559Y0026876D02*
X0136700Y0026876D01*
X0128559Y0026876D01*
X0130619Y0026277D02*
X0136700Y0026277D01*
X0130619Y0026277D01*
X0131656Y0025679D02*
X0136700Y0025679D01*
X0131656Y0025679D01*
X0132692Y0025080D02*
X0136700Y0025080D01*
X0132692Y0025080D01*
X0133392Y0024482D02*
X0136700Y0024482D01*
X0133392Y0024482D01*
X0133990Y0023883D02*
X0136700Y0023883D01*
X0133990Y0023883D01*
X0134589Y0023285D02*
X0136700Y0023285D01*
X0134589Y0023285D01*
X0135084Y0022686D02*
X0136700Y0022686D01*
X0135084Y0022686D01*
X0135429Y0022088D02*
X0136700Y0022088D01*
X0135429Y0022088D01*
X0135775Y0021489D02*
X0136700Y0021489D01*
X0135775Y0021489D01*
X0136120Y0020891D02*
X0136700Y0020891D01*
X0136120Y0020891D01*
X0136411Y0020292D02*
X0136700Y0020292D01*
X0136411Y0020292D01*
X0136572Y0019694D02*
X0136700Y0019694D01*
X0136572Y0019694D01*
X0136700Y0013385D02*
X0136700Y0005900D01*
X0129215Y0005900D01*
X0130469Y0006236D01*
X0132931Y0007658D01*
X0134942Y0009669D01*
X0136364Y0012131D01*
X0136700Y0013385D01*
X0136700Y0013110D02*
X0136626Y0013110D01*
X0136700Y0012511D02*
X0136466Y0012511D01*
X0136238Y0011913D02*
X0136700Y0011913D01*
X0136700Y0011314D02*
X0135892Y0011314D01*
X0135547Y0010716D02*
X0136700Y0010716D01*
X0136700Y0010117D02*
X0135201Y0010117D01*
X0134792Y0009519D02*
X0136700Y0009519D01*
X0136700Y0008920D02*
X0134194Y0008920D01*
X0133595Y0008322D02*
X0136700Y0008322D01*
X0136700Y0007723D02*
X0132997Y0007723D01*
X0132008Y0007125D02*
X0136700Y0007125D01*
X0136700Y0006526D02*
X0130972Y0006526D01*
X0129318Y0005928D02*
X0136700Y0005928D01*
X0136700Y0080742D02*
X0128624Y0080742D01*
X0136700Y0080742D01*
X0136700Y0081340D02*
X0130649Y0081340D01*
X0136700Y0081340D01*
X0136700Y0081939D02*
X0131686Y0081939D01*
X0136700Y0081939D01*
X0136700Y0082537D02*
X0132723Y0082537D01*
X0136700Y0082537D01*
X0136700Y0083136D02*
X0133409Y0083136D01*
X0136700Y0083136D01*
X0136700Y0083734D02*
X0134008Y0083734D01*
X0136700Y0083734D01*
X0136700Y0084333D02*
X0134606Y0084333D01*
X0136700Y0084333D01*
X0136700Y0084931D02*
X0135094Y0084931D01*
X0136700Y0084931D01*
X0136700Y0085530D02*
X0135439Y0085530D01*
X0136700Y0085530D01*
X0136700Y0086128D02*
X0135785Y0086128D01*
X0136700Y0086128D01*
X0136700Y0086727D02*
X0136130Y0086727D01*
X0136700Y0086727D01*
X0136700Y0087325D02*
X0136416Y0087325D01*
X0136700Y0087325D01*
X0136700Y0087924D02*
X0136576Y0087924D01*
X0136700Y0087924D01*
X0136700Y0094215D02*
X0136364Y0095469D01*
X0134942Y0097931D01*
X0132931Y0099942D01*
X0130469Y0101364D01*
X0129215Y0101700D01*
X0136700Y0101700D01*
X0136700Y0094215D01*
X0136700Y0094508D02*
X0136622Y0094508D01*
X0136700Y0095106D02*
X0136461Y0095106D01*
X0136228Y0095705D02*
X0136700Y0095705D01*
X0136700Y0096303D02*
X0135882Y0096303D01*
X0135537Y0096902D02*
X0136700Y0096902D01*
X0136700Y0097500D02*
X0135191Y0097500D01*
X0134775Y0098099D02*
X0136700Y0098099D01*
X0136700Y0098697D02*
X0134176Y0098697D01*
X0133578Y0099296D02*
X0136700Y0099296D01*
X0136700Y0099894D02*
X0132979Y0099894D01*
X0131978Y0100493D02*
X0136700Y0100493D01*
X0136700Y0101091D02*
X0130941Y0101091D01*
X0129253Y0101690D02*
X0136700Y0101690D01*
D11*
X0085394Y0041300D03*
D12*
X0077363Y0041300D03*
X0069331Y0041300D03*
X0061300Y0041300D03*
X0057284Y0048308D03*
X0065316Y0048308D03*
X0073347Y0048308D03*
X0081379Y0048308D03*
X0089292Y0067284D03*
X0098308Y0067284D03*
X0053308Y0067284D03*
X0044292Y0067284D03*
D13*
X0009800Y0091300D02*
X0009802Y0091461D01*
X0009808Y0091621D01*
X0009818Y0091782D01*
X0009832Y0091942D01*
X0009850Y0092102D01*
X0009871Y0092261D01*
X0009897Y0092420D01*
X0009927Y0092578D01*
X0009960Y0092735D01*
X0009998Y0092892D01*
X0010039Y0093047D01*
X0010084Y0093201D01*
X0010133Y0093354D01*
X0010186Y0093506D01*
X0010242Y0093657D01*
X0010303Y0093806D01*
X0010366Y0093954D01*
X0010434Y0094100D01*
X0010505Y0094244D01*
X0010579Y0094386D01*
X0010657Y0094527D01*
X0010739Y0094665D01*
X0010824Y0094802D01*
X0010912Y0094936D01*
X0011004Y0095068D01*
X0011099Y0095198D01*
X0011197Y0095326D01*
X0011298Y0095451D01*
X0011402Y0095573D01*
X0011509Y0095693D01*
X0011619Y0095810D01*
X0011732Y0095925D01*
X0011848Y0096036D01*
X0011967Y0096145D01*
X0012088Y0096250D01*
X0012212Y0096353D01*
X0012338Y0096453D01*
X0012466Y0096549D01*
X0012597Y0096642D01*
X0012731Y0096732D01*
X0012866Y0096819D01*
X0013004Y0096902D01*
X0013143Y0096982D01*
X0013285Y0097058D01*
X0013428Y0097131D01*
X0013573Y0097200D01*
X0013720Y0097266D01*
X0013868Y0097328D01*
X0014018Y0097386D01*
X0014169Y0097441D01*
X0014322Y0097492D01*
X0014476Y0097539D01*
X0014631Y0097582D01*
X0014787Y0097621D01*
X0014943Y0097657D01*
X0015101Y0097688D01*
X0015259Y0097716D01*
X0015418Y0097740D01*
X0015578Y0097760D01*
X0015738Y0097776D01*
X0015898Y0097788D01*
X0016059Y0097796D01*
X0016220Y0097800D01*
X0016380Y0097800D01*
X0016541Y0097796D01*
X0016702Y0097788D01*
X0016862Y0097776D01*
X0017022Y0097760D01*
X0017182Y0097740D01*
X0017341Y0097716D01*
X0017499Y0097688D01*
X0017657Y0097657D01*
X0017813Y0097621D01*
X0017969Y0097582D01*
X0018124Y0097539D01*
X0018278Y0097492D01*
X0018431Y0097441D01*
X0018582Y0097386D01*
X0018732Y0097328D01*
X0018880Y0097266D01*
X0019027Y0097200D01*
X0019172Y0097131D01*
X0019315Y0097058D01*
X0019457Y0096982D01*
X0019596Y0096902D01*
X0019734Y0096819D01*
X0019869Y0096732D01*
X0020003Y0096642D01*
X0020134Y0096549D01*
X0020262Y0096453D01*
X0020388Y0096353D01*
X0020512Y0096250D01*
X0020633Y0096145D01*
X0020752Y0096036D01*
X0020868Y0095925D01*
X0020981Y0095810D01*
X0021091Y0095693D01*
X0021198Y0095573D01*
X0021302Y0095451D01*
X0021403Y0095326D01*
X0021501Y0095198D01*
X0021596Y0095068D01*
X0021688Y0094936D01*
X0021776Y0094802D01*
X0021861Y0094665D01*
X0021943Y0094527D01*
X0022021Y0094386D01*
X0022095Y0094244D01*
X0022166Y0094100D01*
X0022234Y0093954D01*
X0022297Y0093806D01*
X0022358Y0093657D01*
X0022414Y0093506D01*
X0022467Y0093354D01*
X0022516Y0093201D01*
X0022561Y0093047D01*
X0022602Y0092892D01*
X0022640Y0092735D01*
X0022673Y0092578D01*
X0022703Y0092420D01*
X0022729Y0092261D01*
X0022750Y0092102D01*
X0022768Y0091942D01*
X0022782Y0091782D01*
X0022792Y0091621D01*
X0022798Y0091461D01*
X0022800Y0091300D01*
X0022798Y0091139D01*
X0022792Y0090979D01*
X0022782Y0090818D01*
X0022768Y0090658D01*
X0022750Y0090498D01*
X0022729Y0090339D01*
X0022703Y0090180D01*
X0022673Y0090022D01*
X0022640Y0089865D01*
X0022602Y0089708D01*
X0022561Y0089553D01*
X0022516Y0089399D01*
X0022467Y0089246D01*
X0022414Y0089094D01*
X0022358Y0088943D01*
X0022297Y0088794D01*
X0022234Y0088646D01*
X0022166Y0088500D01*
X0022095Y0088356D01*
X0022021Y0088214D01*
X0021943Y0088073D01*
X0021861Y0087935D01*
X0021776Y0087798D01*
X0021688Y0087664D01*
X0021596Y0087532D01*
X0021501Y0087402D01*
X0021403Y0087274D01*
X0021302Y0087149D01*
X0021198Y0087027D01*
X0021091Y0086907D01*
X0020981Y0086790D01*
X0020868Y0086675D01*
X0020752Y0086564D01*
X0020633Y0086455D01*
X0020512Y0086350D01*
X0020388Y0086247D01*
X0020262Y0086147D01*
X0020134Y0086051D01*
X0020003Y0085958D01*
X0019869Y0085868D01*
X0019734Y0085781D01*
X0019596Y0085698D01*
X0019457Y0085618D01*
X0019315Y0085542D01*
X0019172Y0085469D01*
X0019027Y0085400D01*
X0018880Y0085334D01*
X0018732Y0085272D01*
X0018582Y0085214D01*
X0018431Y0085159D01*
X0018278Y0085108D01*
X0018124Y0085061D01*
X0017969Y0085018D01*
X0017813Y0084979D01*
X0017657Y0084943D01*
X0017499Y0084912D01*
X0017341Y0084884D01*
X0017182Y0084860D01*
X0017022Y0084840D01*
X0016862Y0084824D01*
X0016702Y0084812D01*
X0016541Y0084804D01*
X0016380Y0084800D01*
X0016220Y0084800D01*
X0016059Y0084804D01*
X0015898Y0084812D01*
X0015738Y0084824D01*
X0015578Y0084840D01*
X0015418Y0084860D01*
X0015259Y0084884D01*
X0015101Y0084912D01*
X0014943Y0084943D01*
X0014787Y0084979D01*
X0014631Y0085018D01*
X0014476Y0085061D01*
X0014322Y0085108D01*
X0014169Y0085159D01*
X0014018Y0085214D01*
X0013868Y0085272D01*
X0013720Y0085334D01*
X0013573Y0085400D01*
X0013428Y0085469D01*
X0013285Y0085542D01*
X0013143Y0085618D01*
X0013004Y0085698D01*
X0012866Y0085781D01*
X0012731Y0085868D01*
X0012597Y0085958D01*
X0012466Y0086051D01*
X0012338Y0086147D01*
X0012212Y0086247D01*
X0012088Y0086350D01*
X0011967Y0086455D01*
X0011848Y0086564D01*
X0011732Y0086675D01*
X0011619Y0086790D01*
X0011509Y0086907D01*
X0011402Y0087027D01*
X0011298Y0087149D01*
X0011197Y0087274D01*
X0011099Y0087402D01*
X0011004Y0087532D01*
X0010912Y0087664D01*
X0010824Y0087798D01*
X0010739Y0087935D01*
X0010657Y0088073D01*
X0010579Y0088214D01*
X0010505Y0088356D01*
X0010434Y0088500D01*
X0010366Y0088646D01*
X0010303Y0088794D01*
X0010242Y0088943D01*
X0010186Y0089094D01*
X0010133Y0089246D01*
X0010084Y0089399D01*
X0010039Y0089553D01*
X0009998Y0089708D01*
X0009960Y0089865D01*
X0009927Y0090022D01*
X0009897Y0090180D01*
X0009871Y0090339D01*
X0009850Y0090498D01*
X0009832Y0090658D01*
X0009818Y0090818D01*
X0009808Y0090979D01*
X0009802Y0091139D01*
X0009800Y0091300D01*
X0039902Y0031300D02*
X0039904Y0031460D01*
X0039910Y0031619D01*
X0039920Y0031778D01*
X0039934Y0031937D01*
X0039952Y0032096D01*
X0039973Y0032254D01*
X0039999Y0032411D01*
X0040029Y0032568D01*
X0040062Y0032724D01*
X0040100Y0032879D01*
X0040141Y0033033D01*
X0040186Y0033186D01*
X0040235Y0033338D01*
X0040288Y0033488D01*
X0040344Y0033637D01*
X0040404Y0033785D01*
X0040468Y0033931D01*
X0040536Y0034076D01*
X0040607Y0034219D01*
X0040681Y0034360D01*
X0040759Y0034499D01*
X0040841Y0034636D01*
X0040926Y0034771D01*
X0041014Y0034904D01*
X0041105Y0035035D01*
X0041200Y0035163D01*
X0041298Y0035289D01*
X0041399Y0035413D01*
X0041503Y0035533D01*
X0041610Y0035652D01*
X0041720Y0035767D01*
X0041833Y0035880D01*
X0041948Y0035990D01*
X0042067Y0036097D01*
X0042187Y0036201D01*
X0042311Y0036302D01*
X0042437Y0036400D01*
X0042565Y0036495D01*
X0042696Y0036586D01*
X0042829Y0036674D01*
X0042964Y0036759D01*
X0043101Y0036841D01*
X0043240Y0036919D01*
X0043381Y0036993D01*
X0043524Y0037064D01*
X0043669Y0037132D01*
X0043815Y0037196D01*
X0043963Y0037256D01*
X0044112Y0037312D01*
X0044262Y0037365D01*
X0044414Y0037414D01*
X0044567Y0037459D01*
X0044721Y0037500D01*
X0044876Y0037538D01*
X0045032Y0037571D01*
X0045189Y0037601D01*
X0045346Y0037627D01*
X0045504Y0037648D01*
X0045663Y0037666D01*
X0045822Y0037680D01*
X0045981Y0037690D01*
X0046140Y0037696D01*
X0046300Y0037698D01*
X0046460Y0037696D01*
X0046619Y0037690D01*
X0046778Y0037680D01*
X0046937Y0037666D01*
X0047096Y0037648D01*
X0047254Y0037627D01*
X0047411Y0037601D01*
X0047568Y0037571D01*
X0047724Y0037538D01*
X0047879Y0037500D01*
X0048033Y0037459D01*
X0048186Y0037414D01*
X0048338Y0037365D01*
X0048488Y0037312D01*
X0048637Y0037256D01*
X0048785Y0037196D01*
X0048931Y0037132D01*
X0049076Y0037064D01*
X0049219Y0036993D01*
X0049360Y0036919D01*
X0049499Y0036841D01*
X0049636Y0036759D01*
X0049771Y0036674D01*
X0049904Y0036586D01*
X0050035Y0036495D01*
X0050163Y0036400D01*
X0050289Y0036302D01*
X0050413Y0036201D01*
X0050533Y0036097D01*
X0050652Y0035990D01*
X0050767Y0035880D01*
X0050880Y0035767D01*
X0050990Y0035652D01*
X0051097Y0035533D01*
X0051201Y0035413D01*
X0051302Y0035289D01*
X0051400Y0035163D01*
X0051495Y0035035D01*
X0051586Y0034904D01*
X0051674Y0034771D01*
X0051759Y0034636D01*
X0051841Y0034499D01*
X0051919Y0034360D01*
X0051993Y0034219D01*
X0052064Y0034076D01*
X0052132Y0033931D01*
X0052196Y0033785D01*
X0052256Y0033637D01*
X0052312Y0033488D01*
X0052365Y0033338D01*
X0052414Y0033186D01*
X0052459Y0033033D01*
X0052500Y0032879D01*
X0052538Y0032724D01*
X0052571Y0032568D01*
X0052601Y0032411D01*
X0052627Y0032254D01*
X0052648Y0032096D01*
X0052666Y0031937D01*
X0052680Y0031778D01*
X0052690Y0031619D01*
X0052696Y0031460D01*
X0052698Y0031300D01*
X0052696Y0031140D01*
X0052690Y0030981D01*
X0052680Y0030822D01*
X0052666Y0030663D01*
X0052648Y0030504D01*
X0052627Y0030346D01*
X0052601Y0030189D01*
X0052571Y0030032D01*
X0052538Y0029876D01*
X0052500Y0029721D01*
X0052459Y0029567D01*
X0052414Y0029414D01*
X0052365Y0029262D01*
X0052312Y0029112D01*
X0052256Y0028963D01*
X0052196Y0028815D01*
X0052132Y0028669D01*
X0052064Y0028524D01*
X0051993Y0028381D01*
X0051919Y0028240D01*
X0051841Y0028101D01*
X0051759Y0027964D01*
X0051674Y0027829D01*
X0051586Y0027696D01*
X0051495Y0027565D01*
X0051400Y0027437D01*
X0051302Y0027311D01*
X0051201Y0027187D01*
X0051097Y0027067D01*
X0050990Y0026948D01*
X0050880Y0026833D01*
X0050767Y0026720D01*
X0050652Y0026610D01*
X0050533Y0026503D01*
X0050413Y0026399D01*
X0050289Y0026298D01*
X0050163Y0026200D01*
X0050035Y0026105D01*
X0049904Y0026014D01*
X0049771Y0025926D01*
X0049636Y0025841D01*
X0049499Y0025759D01*
X0049360Y0025681D01*
X0049219Y0025607D01*
X0049076Y0025536D01*
X0048931Y0025468D01*
X0048785Y0025404D01*
X0048637Y0025344D01*
X0048488Y0025288D01*
X0048338Y0025235D01*
X0048186Y0025186D01*
X0048033Y0025141D01*
X0047879Y0025100D01*
X0047724Y0025062D01*
X0047568Y0025029D01*
X0047411Y0024999D01*
X0047254Y0024973D01*
X0047096Y0024952D01*
X0046937Y0024934D01*
X0046778Y0024920D01*
X0046619Y0024910D01*
X0046460Y0024904D01*
X0046300Y0024902D01*
X0046140Y0024904D01*
X0045981Y0024910D01*
X0045822Y0024920D01*
X0045663Y0024934D01*
X0045504Y0024952D01*
X0045346Y0024973D01*
X0045189Y0024999D01*
X0045032Y0025029D01*
X0044876Y0025062D01*
X0044721Y0025100D01*
X0044567Y0025141D01*
X0044414Y0025186D01*
X0044262Y0025235D01*
X0044112Y0025288D01*
X0043963Y0025344D01*
X0043815Y0025404D01*
X0043669Y0025468D01*
X0043524Y0025536D01*
X0043381Y0025607D01*
X0043240Y0025681D01*
X0043101Y0025759D01*
X0042964Y0025841D01*
X0042829Y0025926D01*
X0042696Y0026014D01*
X0042565Y0026105D01*
X0042437Y0026200D01*
X0042311Y0026298D01*
X0042187Y0026399D01*
X0042067Y0026503D01*
X0041948Y0026610D01*
X0041833Y0026720D01*
X0041720Y0026833D01*
X0041610Y0026948D01*
X0041503Y0027067D01*
X0041399Y0027187D01*
X0041298Y0027311D01*
X0041200Y0027437D01*
X0041105Y0027565D01*
X0041014Y0027696D01*
X0040926Y0027829D01*
X0040841Y0027964D01*
X0040759Y0028101D01*
X0040681Y0028240D01*
X0040607Y0028381D01*
X0040536Y0028524D01*
X0040468Y0028669D01*
X0040404Y0028815D01*
X0040344Y0028963D01*
X0040288Y0029112D01*
X0040235Y0029262D01*
X0040186Y0029414D01*
X0040141Y0029567D01*
X0040100Y0029721D01*
X0040062Y0029876D01*
X0040029Y0030032D01*
X0039999Y0030189D01*
X0039973Y0030346D01*
X0039952Y0030504D01*
X0039934Y0030663D01*
X0039920Y0030822D01*
X0039910Y0030981D01*
X0039904Y0031140D01*
X0039902Y0031300D01*
X0009800Y0016300D02*
X0009802Y0016461D01*
X0009808Y0016621D01*
X0009818Y0016782D01*
X0009832Y0016942D01*
X0009850Y0017102D01*
X0009871Y0017261D01*
X0009897Y0017420D01*
X0009927Y0017578D01*
X0009960Y0017735D01*
X0009998Y0017892D01*
X0010039Y0018047D01*
X0010084Y0018201D01*
X0010133Y0018354D01*
X0010186Y0018506D01*
X0010242Y0018657D01*
X0010303Y0018806D01*
X0010366Y0018954D01*
X0010434Y0019100D01*
X0010505Y0019244D01*
X0010579Y0019386D01*
X0010657Y0019527D01*
X0010739Y0019665D01*
X0010824Y0019802D01*
X0010912Y0019936D01*
X0011004Y0020068D01*
X0011099Y0020198D01*
X0011197Y0020326D01*
X0011298Y0020451D01*
X0011402Y0020573D01*
X0011509Y0020693D01*
X0011619Y0020810D01*
X0011732Y0020925D01*
X0011848Y0021036D01*
X0011967Y0021145D01*
X0012088Y0021250D01*
X0012212Y0021353D01*
X0012338Y0021453D01*
X0012466Y0021549D01*
X0012597Y0021642D01*
X0012731Y0021732D01*
X0012866Y0021819D01*
X0013004Y0021902D01*
X0013143Y0021982D01*
X0013285Y0022058D01*
X0013428Y0022131D01*
X0013573Y0022200D01*
X0013720Y0022266D01*
X0013868Y0022328D01*
X0014018Y0022386D01*
X0014169Y0022441D01*
X0014322Y0022492D01*
X0014476Y0022539D01*
X0014631Y0022582D01*
X0014787Y0022621D01*
X0014943Y0022657D01*
X0015101Y0022688D01*
X0015259Y0022716D01*
X0015418Y0022740D01*
X0015578Y0022760D01*
X0015738Y0022776D01*
X0015898Y0022788D01*
X0016059Y0022796D01*
X0016220Y0022800D01*
X0016380Y0022800D01*
X0016541Y0022796D01*
X0016702Y0022788D01*
X0016862Y0022776D01*
X0017022Y0022760D01*
X0017182Y0022740D01*
X0017341Y0022716D01*
X0017499Y0022688D01*
X0017657Y0022657D01*
X0017813Y0022621D01*
X0017969Y0022582D01*
X0018124Y0022539D01*
X0018278Y0022492D01*
X0018431Y0022441D01*
X0018582Y0022386D01*
X0018732Y0022328D01*
X0018880Y0022266D01*
X0019027Y0022200D01*
X0019172Y0022131D01*
X0019315Y0022058D01*
X0019457Y0021982D01*
X0019596Y0021902D01*
X0019734Y0021819D01*
X0019869Y0021732D01*
X0020003Y0021642D01*
X0020134Y0021549D01*
X0020262Y0021453D01*
X0020388Y0021353D01*
X0020512Y0021250D01*
X0020633Y0021145D01*
X0020752Y0021036D01*
X0020868Y0020925D01*
X0020981Y0020810D01*
X0021091Y0020693D01*
X0021198Y0020573D01*
X0021302Y0020451D01*
X0021403Y0020326D01*
X0021501Y0020198D01*
X0021596Y0020068D01*
X0021688Y0019936D01*
X0021776Y0019802D01*
X0021861Y0019665D01*
X0021943Y0019527D01*
X0022021Y0019386D01*
X0022095Y0019244D01*
X0022166Y0019100D01*
X0022234Y0018954D01*
X0022297Y0018806D01*
X0022358Y0018657D01*
X0022414Y0018506D01*
X0022467Y0018354D01*
X0022516Y0018201D01*
X0022561Y0018047D01*
X0022602Y0017892D01*
X0022640Y0017735D01*
X0022673Y0017578D01*
X0022703Y0017420D01*
X0022729Y0017261D01*
X0022750Y0017102D01*
X0022768Y0016942D01*
X0022782Y0016782D01*
X0022792Y0016621D01*
X0022798Y0016461D01*
X0022800Y0016300D01*
X0022798Y0016139D01*
X0022792Y0015979D01*
X0022782Y0015818D01*
X0022768Y0015658D01*
X0022750Y0015498D01*
X0022729Y0015339D01*
X0022703Y0015180D01*
X0022673Y0015022D01*
X0022640Y0014865D01*
X0022602Y0014708D01*
X0022561Y0014553D01*
X0022516Y0014399D01*
X0022467Y0014246D01*
X0022414Y0014094D01*
X0022358Y0013943D01*
X0022297Y0013794D01*
X0022234Y0013646D01*
X0022166Y0013500D01*
X0022095Y0013356D01*
X0022021Y0013214D01*
X0021943Y0013073D01*
X0021861Y0012935D01*
X0021776Y0012798D01*
X0021688Y0012664D01*
X0021596Y0012532D01*
X0021501Y0012402D01*
X0021403Y0012274D01*
X0021302Y0012149D01*
X0021198Y0012027D01*
X0021091Y0011907D01*
X0020981Y0011790D01*
X0020868Y0011675D01*
X0020752Y0011564D01*
X0020633Y0011455D01*
X0020512Y0011350D01*
X0020388Y0011247D01*
X0020262Y0011147D01*
X0020134Y0011051D01*
X0020003Y0010958D01*
X0019869Y0010868D01*
X0019734Y0010781D01*
X0019596Y0010698D01*
X0019457Y0010618D01*
X0019315Y0010542D01*
X0019172Y0010469D01*
X0019027Y0010400D01*
X0018880Y0010334D01*
X0018732Y0010272D01*
X0018582Y0010214D01*
X0018431Y0010159D01*
X0018278Y0010108D01*
X0018124Y0010061D01*
X0017969Y0010018D01*
X0017813Y0009979D01*
X0017657Y0009943D01*
X0017499Y0009912D01*
X0017341Y0009884D01*
X0017182Y0009860D01*
X0017022Y0009840D01*
X0016862Y0009824D01*
X0016702Y0009812D01*
X0016541Y0009804D01*
X0016380Y0009800D01*
X0016220Y0009800D01*
X0016059Y0009804D01*
X0015898Y0009812D01*
X0015738Y0009824D01*
X0015578Y0009840D01*
X0015418Y0009860D01*
X0015259Y0009884D01*
X0015101Y0009912D01*
X0014943Y0009943D01*
X0014787Y0009979D01*
X0014631Y0010018D01*
X0014476Y0010061D01*
X0014322Y0010108D01*
X0014169Y0010159D01*
X0014018Y0010214D01*
X0013868Y0010272D01*
X0013720Y0010334D01*
X0013573Y0010400D01*
X0013428Y0010469D01*
X0013285Y0010542D01*
X0013143Y0010618D01*
X0013004Y0010698D01*
X0012866Y0010781D01*
X0012731Y0010868D01*
X0012597Y0010958D01*
X0012466Y0011051D01*
X0012338Y0011147D01*
X0012212Y0011247D01*
X0012088Y0011350D01*
X0011967Y0011455D01*
X0011848Y0011564D01*
X0011732Y0011675D01*
X0011619Y0011790D01*
X0011509Y0011907D01*
X0011402Y0012027D01*
X0011298Y0012149D01*
X0011197Y0012274D01*
X0011099Y0012402D01*
X0011004Y0012532D01*
X0010912Y0012664D01*
X0010824Y0012798D01*
X0010739Y0012935D01*
X0010657Y0013073D01*
X0010579Y0013214D01*
X0010505Y0013356D01*
X0010434Y0013500D01*
X0010366Y0013646D01*
X0010303Y0013794D01*
X0010242Y0013943D01*
X0010186Y0014094D01*
X0010133Y0014246D01*
X0010084Y0014399D01*
X0010039Y0014553D01*
X0009998Y0014708D01*
X0009960Y0014865D01*
X0009927Y0015022D01*
X0009897Y0015180D01*
X0009871Y0015339D01*
X0009850Y0015498D01*
X0009832Y0015658D01*
X0009818Y0015818D01*
X0009808Y0015979D01*
X0009802Y0016139D01*
X0009800Y0016300D01*
X0089902Y0031300D02*
X0089904Y0031460D01*
X0089910Y0031619D01*
X0089920Y0031778D01*
X0089934Y0031937D01*
X0089952Y0032096D01*
X0089973Y0032254D01*
X0089999Y0032411D01*
X0090029Y0032568D01*
X0090062Y0032724D01*
X0090100Y0032879D01*
X0090141Y0033033D01*
X0090186Y0033186D01*
X0090235Y0033338D01*
X0090288Y0033488D01*
X0090344Y0033637D01*
X0090404Y0033785D01*
X0090468Y0033931D01*
X0090536Y0034076D01*
X0090607Y0034219D01*
X0090681Y0034360D01*
X0090759Y0034499D01*
X0090841Y0034636D01*
X0090926Y0034771D01*
X0091014Y0034904D01*
X0091105Y0035035D01*
X0091200Y0035163D01*
X0091298Y0035289D01*
X0091399Y0035413D01*
X0091503Y0035533D01*
X0091610Y0035652D01*
X0091720Y0035767D01*
X0091833Y0035880D01*
X0091948Y0035990D01*
X0092067Y0036097D01*
X0092187Y0036201D01*
X0092311Y0036302D01*
X0092437Y0036400D01*
X0092565Y0036495D01*
X0092696Y0036586D01*
X0092829Y0036674D01*
X0092964Y0036759D01*
X0093101Y0036841D01*
X0093240Y0036919D01*
X0093381Y0036993D01*
X0093524Y0037064D01*
X0093669Y0037132D01*
X0093815Y0037196D01*
X0093963Y0037256D01*
X0094112Y0037312D01*
X0094262Y0037365D01*
X0094414Y0037414D01*
X0094567Y0037459D01*
X0094721Y0037500D01*
X0094876Y0037538D01*
X0095032Y0037571D01*
X0095189Y0037601D01*
X0095346Y0037627D01*
X0095504Y0037648D01*
X0095663Y0037666D01*
X0095822Y0037680D01*
X0095981Y0037690D01*
X0096140Y0037696D01*
X0096300Y0037698D01*
X0096460Y0037696D01*
X0096619Y0037690D01*
X0096778Y0037680D01*
X0096937Y0037666D01*
X0097096Y0037648D01*
X0097254Y0037627D01*
X0097411Y0037601D01*
X0097568Y0037571D01*
X0097724Y0037538D01*
X0097879Y0037500D01*
X0098033Y0037459D01*
X0098186Y0037414D01*
X0098338Y0037365D01*
X0098488Y0037312D01*
X0098637Y0037256D01*
X0098785Y0037196D01*
X0098931Y0037132D01*
X0099076Y0037064D01*
X0099219Y0036993D01*
X0099360Y0036919D01*
X0099499Y0036841D01*
X0099636Y0036759D01*
X0099771Y0036674D01*
X0099904Y0036586D01*
X0100035Y0036495D01*
X0100163Y0036400D01*
X0100289Y0036302D01*
X0100413Y0036201D01*
X0100533Y0036097D01*
X0100652Y0035990D01*
X0100767Y0035880D01*
X0100880Y0035767D01*
X0100990Y0035652D01*
X0101097Y0035533D01*
X0101201Y0035413D01*
X0101302Y0035289D01*
X0101400Y0035163D01*
X0101495Y0035035D01*
X0101586Y0034904D01*
X0101674Y0034771D01*
X0101759Y0034636D01*
X0101841Y0034499D01*
X0101919Y0034360D01*
X0101993Y0034219D01*
X0102064Y0034076D01*
X0102132Y0033931D01*
X0102196Y0033785D01*
X0102256Y0033637D01*
X0102312Y0033488D01*
X0102365Y0033338D01*
X0102414Y0033186D01*
X0102459Y0033033D01*
X0102500Y0032879D01*
X0102538Y0032724D01*
X0102571Y0032568D01*
X0102601Y0032411D01*
X0102627Y0032254D01*
X0102648Y0032096D01*
X0102666Y0031937D01*
X0102680Y0031778D01*
X0102690Y0031619D01*
X0102696Y0031460D01*
X0102698Y0031300D01*
X0102696Y0031140D01*
X0102690Y0030981D01*
X0102680Y0030822D01*
X0102666Y0030663D01*
X0102648Y0030504D01*
X0102627Y0030346D01*
X0102601Y0030189D01*
X0102571Y0030032D01*
X0102538Y0029876D01*
X0102500Y0029721D01*
X0102459Y0029567D01*
X0102414Y0029414D01*
X0102365Y0029262D01*
X0102312Y0029112D01*
X0102256Y0028963D01*
X0102196Y0028815D01*
X0102132Y0028669D01*
X0102064Y0028524D01*
X0101993Y0028381D01*
X0101919Y0028240D01*
X0101841Y0028101D01*
X0101759Y0027964D01*
X0101674Y0027829D01*
X0101586Y0027696D01*
X0101495Y0027565D01*
X0101400Y0027437D01*
X0101302Y0027311D01*
X0101201Y0027187D01*
X0101097Y0027067D01*
X0100990Y0026948D01*
X0100880Y0026833D01*
X0100767Y0026720D01*
X0100652Y0026610D01*
X0100533Y0026503D01*
X0100413Y0026399D01*
X0100289Y0026298D01*
X0100163Y0026200D01*
X0100035Y0026105D01*
X0099904Y0026014D01*
X0099771Y0025926D01*
X0099636Y0025841D01*
X0099499Y0025759D01*
X0099360Y0025681D01*
X0099219Y0025607D01*
X0099076Y0025536D01*
X0098931Y0025468D01*
X0098785Y0025404D01*
X0098637Y0025344D01*
X0098488Y0025288D01*
X0098338Y0025235D01*
X0098186Y0025186D01*
X0098033Y0025141D01*
X0097879Y0025100D01*
X0097724Y0025062D01*
X0097568Y0025029D01*
X0097411Y0024999D01*
X0097254Y0024973D01*
X0097096Y0024952D01*
X0096937Y0024934D01*
X0096778Y0024920D01*
X0096619Y0024910D01*
X0096460Y0024904D01*
X0096300Y0024902D01*
X0096140Y0024904D01*
X0095981Y0024910D01*
X0095822Y0024920D01*
X0095663Y0024934D01*
X0095504Y0024952D01*
X0095346Y0024973D01*
X0095189Y0024999D01*
X0095032Y0025029D01*
X0094876Y0025062D01*
X0094721Y0025100D01*
X0094567Y0025141D01*
X0094414Y0025186D01*
X0094262Y0025235D01*
X0094112Y0025288D01*
X0093963Y0025344D01*
X0093815Y0025404D01*
X0093669Y0025468D01*
X0093524Y0025536D01*
X0093381Y0025607D01*
X0093240Y0025681D01*
X0093101Y0025759D01*
X0092964Y0025841D01*
X0092829Y0025926D01*
X0092696Y0026014D01*
X0092565Y0026105D01*
X0092437Y0026200D01*
X0092311Y0026298D01*
X0092187Y0026399D01*
X0092067Y0026503D01*
X0091948Y0026610D01*
X0091833Y0026720D01*
X0091720Y0026833D01*
X0091610Y0026948D01*
X0091503Y0027067D01*
X0091399Y0027187D01*
X0091298Y0027311D01*
X0091200Y0027437D01*
X0091105Y0027565D01*
X0091014Y0027696D01*
X0090926Y0027829D01*
X0090841Y0027964D01*
X0090759Y0028101D01*
X0090681Y0028240D01*
X0090607Y0028381D01*
X0090536Y0028524D01*
X0090468Y0028669D01*
X0090404Y0028815D01*
X0090344Y0028963D01*
X0090288Y0029112D01*
X0090235Y0029262D01*
X0090186Y0029414D01*
X0090141Y0029567D01*
X0090100Y0029721D01*
X0090062Y0029876D01*
X0090029Y0030032D01*
X0089999Y0030189D01*
X0089973Y0030346D01*
X0089952Y0030504D01*
X0089934Y0030663D01*
X0089920Y0030822D01*
X0089910Y0030981D01*
X0089904Y0031140D01*
X0089902Y0031300D01*
X0119800Y0016300D02*
X0119802Y0016461D01*
X0119808Y0016621D01*
X0119818Y0016782D01*
X0119832Y0016942D01*
X0119850Y0017102D01*
X0119871Y0017261D01*
X0119897Y0017420D01*
X0119927Y0017578D01*
X0119960Y0017735D01*
X0119998Y0017892D01*
X0120039Y0018047D01*
X0120084Y0018201D01*
X0120133Y0018354D01*
X0120186Y0018506D01*
X0120242Y0018657D01*
X0120303Y0018806D01*
X0120366Y0018954D01*
X0120434Y0019100D01*
X0120505Y0019244D01*
X0120579Y0019386D01*
X0120657Y0019527D01*
X0120739Y0019665D01*
X0120824Y0019802D01*
X0120912Y0019936D01*
X0121004Y0020068D01*
X0121099Y0020198D01*
X0121197Y0020326D01*
X0121298Y0020451D01*
X0121402Y0020573D01*
X0121509Y0020693D01*
X0121619Y0020810D01*
X0121732Y0020925D01*
X0121848Y0021036D01*
X0121967Y0021145D01*
X0122088Y0021250D01*
X0122212Y0021353D01*
X0122338Y0021453D01*
X0122466Y0021549D01*
X0122597Y0021642D01*
X0122731Y0021732D01*
X0122866Y0021819D01*
X0123004Y0021902D01*
X0123143Y0021982D01*
X0123285Y0022058D01*
X0123428Y0022131D01*
X0123573Y0022200D01*
X0123720Y0022266D01*
X0123868Y0022328D01*
X0124018Y0022386D01*
X0124169Y0022441D01*
X0124322Y0022492D01*
X0124476Y0022539D01*
X0124631Y0022582D01*
X0124787Y0022621D01*
X0124943Y0022657D01*
X0125101Y0022688D01*
X0125259Y0022716D01*
X0125418Y0022740D01*
X0125578Y0022760D01*
X0125738Y0022776D01*
X0125898Y0022788D01*
X0126059Y0022796D01*
X0126220Y0022800D01*
X0126380Y0022800D01*
X0126541Y0022796D01*
X0126702Y0022788D01*
X0126862Y0022776D01*
X0127022Y0022760D01*
X0127182Y0022740D01*
X0127341Y0022716D01*
X0127499Y0022688D01*
X0127657Y0022657D01*
X0127813Y0022621D01*
X0127969Y0022582D01*
X0128124Y0022539D01*
X0128278Y0022492D01*
X0128431Y0022441D01*
X0128582Y0022386D01*
X0128732Y0022328D01*
X0128880Y0022266D01*
X0129027Y0022200D01*
X0129172Y0022131D01*
X0129315Y0022058D01*
X0129457Y0021982D01*
X0129596Y0021902D01*
X0129734Y0021819D01*
X0129869Y0021732D01*
X0130003Y0021642D01*
X0130134Y0021549D01*
X0130262Y0021453D01*
X0130388Y0021353D01*
X0130512Y0021250D01*
X0130633Y0021145D01*
X0130752Y0021036D01*
X0130868Y0020925D01*
X0130981Y0020810D01*
X0131091Y0020693D01*
X0131198Y0020573D01*
X0131302Y0020451D01*
X0131403Y0020326D01*
X0131501Y0020198D01*
X0131596Y0020068D01*
X0131688Y0019936D01*
X0131776Y0019802D01*
X0131861Y0019665D01*
X0131943Y0019527D01*
X0132021Y0019386D01*
X0132095Y0019244D01*
X0132166Y0019100D01*
X0132234Y0018954D01*
X0132297Y0018806D01*
X0132358Y0018657D01*
X0132414Y0018506D01*
X0132467Y0018354D01*
X0132516Y0018201D01*
X0132561Y0018047D01*
X0132602Y0017892D01*
X0132640Y0017735D01*
X0132673Y0017578D01*
X0132703Y0017420D01*
X0132729Y0017261D01*
X0132750Y0017102D01*
X0132768Y0016942D01*
X0132782Y0016782D01*
X0132792Y0016621D01*
X0132798Y0016461D01*
X0132800Y0016300D01*
X0132798Y0016139D01*
X0132792Y0015979D01*
X0132782Y0015818D01*
X0132768Y0015658D01*
X0132750Y0015498D01*
X0132729Y0015339D01*
X0132703Y0015180D01*
X0132673Y0015022D01*
X0132640Y0014865D01*
X0132602Y0014708D01*
X0132561Y0014553D01*
X0132516Y0014399D01*
X0132467Y0014246D01*
X0132414Y0014094D01*
X0132358Y0013943D01*
X0132297Y0013794D01*
X0132234Y0013646D01*
X0132166Y0013500D01*
X0132095Y0013356D01*
X0132021Y0013214D01*
X0131943Y0013073D01*
X0131861Y0012935D01*
X0131776Y0012798D01*
X0131688Y0012664D01*
X0131596Y0012532D01*
X0131501Y0012402D01*
X0131403Y0012274D01*
X0131302Y0012149D01*
X0131198Y0012027D01*
X0131091Y0011907D01*
X0130981Y0011790D01*
X0130868Y0011675D01*
X0130752Y0011564D01*
X0130633Y0011455D01*
X0130512Y0011350D01*
X0130388Y0011247D01*
X0130262Y0011147D01*
X0130134Y0011051D01*
X0130003Y0010958D01*
X0129869Y0010868D01*
X0129734Y0010781D01*
X0129596Y0010698D01*
X0129457Y0010618D01*
X0129315Y0010542D01*
X0129172Y0010469D01*
X0129027Y0010400D01*
X0128880Y0010334D01*
X0128732Y0010272D01*
X0128582Y0010214D01*
X0128431Y0010159D01*
X0128278Y0010108D01*
X0128124Y0010061D01*
X0127969Y0010018D01*
X0127813Y0009979D01*
X0127657Y0009943D01*
X0127499Y0009912D01*
X0127341Y0009884D01*
X0127182Y0009860D01*
X0127022Y0009840D01*
X0126862Y0009824D01*
X0126702Y0009812D01*
X0126541Y0009804D01*
X0126380Y0009800D01*
X0126220Y0009800D01*
X0126059Y0009804D01*
X0125898Y0009812D01*
X0125738Y0009824D01*
X0125578Y0009840D01*
X0125418Y0009860D01*
X0125259Y0009884D01*
X0125101Y0009912D01*
X0124943Y0009943D01*
X0124787Y0009979D01*
X0124631Y0010018D01*
X0124476Y0010061D01*
X0124322Y0010108D01*
X0124169Y0010159D01*
X0124018Y0010214D01*
X0123868Y0010272D01*
X0123720Y0010334D01*
X0123573Y0010400D01*
X0123428Y0010469D01*
X0123285Y0010542D01*
X0123143Y0010618D01*
X0123004Y0010698D01*
X0122866Y0010781D01*
X0122731Y0010868D01*
X0122597Y0010958D01*
X0122466Y0011051D01*
X0122338Y0011147D01*
X0122212Y0011247D01*
X0122088Y0011350D01*
X0121967Y0011455D01*
X0121848Y0011564D01*
X0121732Y0011675D01*
X0121619Y0011790D01*
X0121509Y0011907D01*
X0121402Y0012027D01*
X0121298Y0012149D01*
X0121197Y0012274D01*
X0121099Y0012402D01*
X0121004Y0012532D01*
X0120912Y0012664D01*
X0120824Y0012798D01*
X0120739Y0012935D01*
X0120657Y0013073D01*
X0120579Y0013214D01*
X0120505Y0013356D01*
X0120434Y0013500D01*
X0120366Y0013646D01*
X0120303Y0013794D01*
X0120242Y0013943D01*
X0120186Y0014094D01*
X0120133Y0014246D01*
X0120084Y0014399D01*
X0120039Y0014553D01*
X0119998Y0014708D01*
X0119960Y0014865D01*
X0119927Y0015022D01*
X0119897Y0015180D01*
X0119871Y0015339D01*
X0119850Y0015498D01*
X0119832Y0015658D01*
X0119818Y0015818D01*
X0119808Y0015979D01*
X0119802Y0016139D01*
X0119800Y0016300D01*
X0119800Y0091300D02*
X0119802Y0091461D01*
X0119808Y0091621D01*
X0119818Y0091782D01*
X0119832Y0091942D01*
X0119850Y0092102D01*
X0119871Y0092261D01*
X0119897Y0092420D01*
X0119927Y0092578D01*
X0119960Y0092735D01*
X0119998Y0092892D01*
X0120039Y0093047D01*
X0120084Y0093201D01*
X0120133Y0093354D01*
X0120186Y0093506D01*
X0120242Y0093657D01*
X0120303Y0093806D01*
X0120366Y0093954D01*
X0120434Y0094100D01*
X0120505Y0094244D01*
X0120579Y0094386D01*
X0120657Y0094527D01*
X0120739Y0094665D01*
X0120824Y0094802D01*
X0120912Y0094936D01*
X0121004Y0095068D01*
X0121099Y0095198D01*
X0121197Y0095326D01*
X0121298Y0095451D01*
X0121402Y0095573D01*
X0121509Y0095693D01*
X0121619Y0095810D01*
X0121732Y0095925D01*
X0121848Y0096036D01*
X0121967Y0096145D01*
X0122088Y0096250D01*
X0122212Y0096353D01*
X0122338Y0096453D01*
X0122466Y0096549D01*
X0122597Y0096642D01*
X0122731Y0096732D01*
X0122866Y0096819D01*
X0123004Y0096902D01*
X0123143Y0096982D01*
X0123285Y0097058D01*
X0123428Y0097131D01*
X0123573Y0097200D01*
X0123720Y0097266D01*
X0123868Y0097328D01*
X0124018Y0097386D01*
X0124169Y0097441D01*
X0124322Y0097492D01*
X0124476Y0097539D01*
X0124631Y0097582D01*
X0124787Y0097621D01*
X0124943Y0097657D01*
X0125101Y0097688D01*
X0125259Y0097716D01*
X0125418Y0097740D01*
X0125578Y0097760D01*
X0125738Y0097776D01*
X0125898Y0097788D01*
X0126059Y0097796D01*
X0126220Y0097800D01*
X0126380Y0097800D01*
X0126541Y0097796D01*
X0126702Y0097788D01*
X0126862Y0097776D01*
X0127022Y0097760D01*
X0127182Y0097740D01*
X0127341Y0097716D01*
X0127499Y0097688D01*
X0127657Y0097657D01*
X0127813Y0097621D01*
X0127969Y0097582D01*
X0128124Y0097539D01*
X0128278Y0097492D01*
X0128431Y0097441D01*
X0128582Y0097386D01*
X0128732Y0097328D01*
X0128880Y0097266D01*
X0129027Y0097200D01*
X0129172Y0097131D01*
X0129315Y0097058D01*
X0129457Y0096982D01*
X0129596Y0096902D01*
X0129734Y0096819D01*
X0129869Y0096732D01*
X0130003Y0096642D01*
X0130134Y0096549D01*
X0130262Y0096453D01*
X0130388Y0096353D01*
X0130512Y0096250D01*
X0130633Y0096145D01*
X0130752Y0096036D01*
X0130868Y0095925D01*
X0130981Y0095810D01*
X0131091Y0095693D01*
X0131198Y0095573D01*
X0131302Y0095451D01*
X0131403Y0095326D01*
X0131501Y0095198D01*
X0131596Y0095068D01*
X0131688Y0094936D01*
X0131776Y0094802D01*
X0131861Y0094665D01*
X0131943Y0094527D01*
X0132021Y0094386D01*
X0132095Y0094244D01*
X0132166Y0094100D01*
X0132234Y0093954D01*
X0132297Y0093806D01*
X0132358Y0093657D01*
X0132414Y0093506D01*
X0132467Y0093354D01*
X0132516Y0093201D01*
X0132561Y0093047D01*
X0132602Y0092892D01*
X0132640Y0092735D01*
X0132673Y0092578D01*
X0132703Y0092420D01*
X0132729Y0092261D01*
X0132750Y0092102D01*
X0132768Y0091942D01*
X0132782Y0091782D01*
X0132792Y0091621D01*
X0132798Y0091461D01*
X0132800Y0091300D01*
X0132798Y0091139D01*
X0132792Y0090979D01*
X0132782Y0090818D01*
X0132768Y0090658D01*
X0132750Y0090498D01*
X0132729Y0090339D01*
X0132703Y0090180D01*
X0132673Y0090022D01*
X0132640Y0089865D01*
X0132602Y0089708D01*
X0132561Y0089553D01*
X0132516Y0089399D01*
X0132467Y0089246D01*
X0132414Y0089094D01*
X0132358Y0088943D01*
X0132297Y0088794D01*
X0132234Y0088646D01*
X0132166Y0088500D01*
X0132095Y0088356D01*
X0132021Y0088214D01*
X0131943Y0088073D01*
X0131861Y0087935D01*
X0131776Y0087798D01*
X0131688Y0087664D01*
X0131596Y0087532D01*
X0131501Y0087402D01*
X0131403Y0087274D01*
X0131302Y0087149D01*
X0131198Y0087027D01*
X0131091Y0086907D01*
X0130981Y0086790D01*
X0130868Y0086675D01*
X0130752Y0086564D01*
X0130633Y0086455D01*
X0130512Y0086350D01*
X0130388Y0086247D01*
X0130262Y0086147D01*
X0130134Y0086051D01*
X0130003Y0085958D01*
X0129869Y0085868D01*
X0129734Y0085781D01*
X0129596Y0085698D01*
X0129457Y0085618D01*
X0129315Y0085542D01*
X0129172Y0085469D01*
X0129027Y0085400D01*
X0128880Y0085334D01*
X0128732Y0085272D01*
X0128582Y0085214D01*
X0128431Y0085159D01*
X0128278Y0085108D01*
X0128124Y0085061D01*
X0127969Y0085018D01*
X0127813Y0084979D01*
X0127657Y0084943D01*
X0127499Y0084912D01*
X0127341Y0084884D01*
X0127182Y0084860D01*
X0127022Y0084840D01*
X0126862Y0084824D01*
X0126702Y0084812D01*
X0126541Y0084804D01*
X0126380Y0084800D01*
X0126220Y0084800D01*
X0126059Y0084804D01*
X0125898Y0084812D01*
X0125738Y0084824D01*
X0125578Y0084840D01*
X0125418Y0084860D01*
X0125259Y0084884D01*
X0125101Y0084912D01*
X0124943Y0084943D01*
X0124787Y0084979D01*
X0124631Y0085018D01*
X0124476Y0085061D01*
X0124322Y0085108D01*
X0124169Y0085159D01*
X0124018Y0085214D01*
X0123868Y0085272D01*
X0123720Y0085334D01*
X0123573Y0085400D01*
X0123428Y0085469D01*
X0123285Y0085542D01*
X0123143Y0085618D01*
X0123004Y0085698D01*
X0122866Y0085781D01*
X0122731Y0085868D01*
X0122597Y0085958D01*
X0122466Y0086051D01*
X0122338Y0086147D01*
X0122212Y0086247D01*
X0122088Y0086350D01*
X0121967Y0086455D01*
X0121848Y0086564D01*
X0121732Y0086675D01*
X0121619Y0086790D01*
X0121509Y0086907D01*
X0121402Y0087027D01*
X0121298Y0087149D01*
X0121197Y0087274D01*
X0121099Y0087402D01*
X0121004Y0087532D01*
X0120912Y0087664D01*
X0120824Y0087798D01*
X0120739Y0087935D01*
X0120657Y0088073D01*
X0120579Y0088214D01*
X0120505Y0088356D01*
X0120434Y0088500D01*
X0120366Y0088646D01*
X0120303Y0088794D01*
X0120242Y0088943D01*
X0120186Y0089094D01*
X0120133Y0089246D01*
X0120084Y0089399D01*
X0120039Y0089553D01*
X0119998Y0089708D01*
X0119960Y0089865D01*
X0119927Y0090022D01*
X0119897Y0090180D01*
X0119871Y0090339D01*
X0119850Y0090498D01*
X0119832Y0090658D01*
X0119818Y0090818D01*
X0119808Y0090979D01*
X0119802Y0091139D01*
X0119800Y0091300D01*
D14*
X0103308Y0044804D03*
X0039292Y0044804D03*
D15*
X0036300Y0091300D03*
X0046300Y0091300D03*
X0056300Y0091300D03*
X0066300Y0091300D03*
X0076300Y0091300D03*
X0086300Y0091300D03*
X0096300Y0091300D03*
X0106300Y0091300D03*
D16*
X0085324Y0070324D01*
X0085324Y0065640D01*
X0085394Y0065570D01*
X0085394Y0041300D01*
X0077363Y0041300D02*
X0077363Y0082363D01*
X0086300Y0091300D01*
X0076300Y0091300D02*
X0073347Y0088347D01*
X0073347Y0048308D01*
X0065316Y0048308D02*
X0065316Y0082284D01*
X0056300Y0091300D01*
X0046300Y0091300D02*
X0061300Y0076300D01*
X0061300Y0041300D01*
X0069331Y0041300D02*
X0069331Y0088269D01*
X0066300Y0091300D01*
X0081379Y0076379D02*
X0096300Y0091300D01*
X0081379Y0076379D02*
X0081379Y0048308D01*
X0057284Y0048308D02*
X0057284Y0070316D01*
X0036300Y0091300D01*
M02*
