%
M48
M72
T01C0.03937
T02C0.04000
T03C0.07087
T04C0.12795
T05C0.13000
%
T01
X44292Y67284
X53308Y67284
X57284Y48308
X65316Y48308
X73347Y48308
X81379Y48308
X85394Y41300
X77363Y41300
X69331Y41300
X61300Y41300
X89292Y67284
X98308Y67284
T02
X36300Y91300
X46300Y91300
X56300Y91300
X66300Y91300
X76300Y91300
X86300Y91300
X96300Y91300
X106300Y91300
T03
X39292Y44804
X103308Y44804
T04
X46300Y31300
X96300Y31300
T05
X16300Y91300
X16300Y16300
X126300Y16300
X126300Y91300
M30
