G75*
%MOIN*%
%OFA0B0*%
%FSLAX25Y25*%
%IPPOS*%
%LPD*%
%AMOC8*
5,1,8,0,0,1.08239X$1,22.5*
%
%ADD10C,0.00600*%
%ADD11C,0.00000*%
%ADD12C,0.07400*%
%ADD13OC8,0.06000*%
%ADD14C,0.01200*%
D10*
X0001300Y0001300D02*
X0001300Y0121300D01*
X0111300Y0121300D01*
X0111300Y0001300D01*
X0001300Y0001300D01*
X0005900Y0005900D02*
X0013385Y0005900D01*
X0012131Y0006236D01*
X0009669Y0007658D01*
X0007658Y0009669D01*
X0006236Y0012131D01*
X0005900Y0013385D01*
X0005900Y0005900D01*
X0005900Y0005928D02*
X0013281Y0005928D01*
X0011628Y0006526D02*
X0005900Y0006526D01*
X0005900Y0007125D02*
X0010592Y0007125D01*
X0009603Y0007723D02*
X0005900Y0007723D01*
X0005900Y0008322D02*
X0009005Y0008322D01*
X0008406Y0008920D02*
X0005900Y0008920D01*
X0005900Y0009519D02*
X0007808Y0009519D01*
X0007399Y0010117D02*
X0005900Y0010117D01*
X0005900Y0010716D02*
X0007053Y0010716D01*
X0006708Y0011314D02*
X0005900Y0011314D01*
X0005900Y0011913D02*
X0006362Y0011913D01*
X0006134Y0012511D02*
X0005900Y0012511D01*
X0005900Y0013110D02*
X0005974Y0013110D01*
X0005900Y0019215D02*
X0005900Y0103385D01*
X0006236Y0102131D01*
X0007658Y0099669D01*
X0009669Y0097658D01*
X0012131Y0096236D01*
X0014878Y0095500D01*
X0017722Y0095500D01*
X0020469Y0096236D01*
X0022931Y0097658D01*
X0024942Y0099669D01*
X0026364Y0102131D01*
X0027100Y0104878D01*
X0027100Y0107722D01*
X0026364Y0110469D01*
X0024942Y0112931D01*
X0022931Y0114942D01*
X0020469Y0116364D01*
X0019215Y0116700D01*
X0093385Y0116700D01*
X0092131Y0116364D01*
X0089669Y0114942D01*
X0087658Y0112931D01*
X0086236Y0110469D01*
X0085500Y0107722D01*
X0085500Y0104878D01*
X0086236Y0102131D01*
X0087658Y0099669D01*
X0089669Y0097658D01*
X0092131Y0096236D01*
X0094878Y0095500D01*
X0097722Y0095500D01*
X0100469Y0096236D01*
X0102931Y0097658D01*
X0104942Y0099669D01*
X0106364Y0102131D01*
X0106700Y0103385D01*
X0106700Y0019215D01*
X0106364Y0020469D01*
X0104942Y0022931D01*
X0102931Y0024942D01*
X0100469Y0026364D01*
X0097722Y0027100D01*
X0094878Y0027100D01*
X0092131Y0026364D01*
X0089669Y0024942D01*
X0087658Y0022931D01*
X0086236Y0020469D01*
X0085500Y0017722D01*
X0085500Y0014878D01*
X0086236Y0012131D01*
X0087658Y0009669D01*
X0089669Y0007658D01*
X0092131Y0006236D01*
X0093385Y0005900D01*
X0019215Y0005900D01*
X0020469Y0006236D01*
X0022931Y0007658D01*
X0024942Y0009669D01*
X0026364Y0012131D01*
X0027100Y0014878D01*
X0027100Y0017722D01*
X0026364Y0020469D01*
X0024942Y0022931D01*
X0022931Y0024942D01*
X0020469Y0026364D01*
X0017722Y0027100D01*
X0014878Y0027100D01*
X0012131Y0026364D01*
X0009669Y0024942D01*
X0007658Y0022931D01*
X0006236Y0020469D01*
X0005900Y0019215D01*
X0005900Y0019694D02*
X0006028Y0019694D01*
X0005900Y0020292D02*
X0006189Y0020292D01*
X0005900Y0020891D02*
X0006480Y0020891D01*
X0006825Y0021489D02*
X0005900Y0021489D01*
X0005900Y0022088D02*
X0007171Y0022088D01*
X0007516Y0022686D02*
X0005900Y0022686D01*
X0005900Y0023285D02*
X0008011Y0023285D01*
X0008610Y0023883D02*
X0005900Y0023883D01*
X0005900Y0024482D02*
X0009208Y0024482D01*
X0009908Y0025080D02*
X0005900Y0025080D01*
X0005900Y0025679D02*
X0010944Y0025679D01*
X0011981Y0026277D02*
X0005900Y0026277D01*
X0005900Y0026876D02*
X0014041Y0026876D01*
X0018559Y0026876D02*
X0094041Y0026876D01*
X0091981Y0026277D02*
X0020619Y0026277D01*
X0021656Y0025679D02*
X0090944Y0025679D01*
X0089908Y0025080D02*
X0022692Y0025080D01*
X0023392Y0024482D02*
X0089208Y0024482D01*
X0088610Y0023883D02*
X0023990Y0023883D01*
X0024589Y0023285D02*
X0088011Y0023285D01*
X0087516Y0022686D02*
X0025084Y0022686D01*
X0025429Y0022088D02*
X0087171Y0022088D01*
X0086825Y0021489D02*
X0025775Y0021489D01*
X0026120Y0020891D02*
X0086480Y0020891D01*
X0086189Y0020292D02*
X0026411Y0020292D01*
X0026572Y0019694D02*
X0086028Y0019694D01*
X0085868Y0019095D02*
X0026732Y0019095D01*
X0026892Y0018497D02*
X0085708Y0018497D01*
X0085547Y0017898D02*
X0027053Y0017898D01*
X0027100Y0017300D02*
X0085500Y0017300D01*
X0085500Y0016701D02*
X0027100Y0016701D01*
X0027100Y0016103D02*
X0085500Y0016103D01*
X0085500Y0015504D02*
X0027100Y0015504D01*
X0027100Y0014905D02*
X0085500Y0014905D01*
X0085653Y0014307D02*
X0026947Y0014307D01*
X0026787Y0013708D02*
X0085813Y0013708D01*
X0085974Y0013110D02*
X0026626Y0013110D01*
X0026466Y0012511D02*
X0086134Y0012511D01*
X0086362Y0011913D02*
X0026238Y0011913D01*
X0025892Y0011314D02*
X0086708Y0011314D01*
X0087053Y0010716D02*
X0025547Y0010716D01*
X0025201Y0010117D02*
X0087399Y0010117D01*
X0087808Y0009519D02*
X0024792Y0009519D01*
X0024194Y0008920D02*
X0088406Y0008920D01*
X0089005Y0008322D02*
X0023595Y0008322D01*
X0022997Y0007723D02*
X0089603Y0007723D01*
X0090592Y0007125D02*
X0022008Y0007125D01*
X0020972Y0006526D02*
X0091628Y0006526D01*
X0093281Y0005928D02*
X0019318Y0005928D01*
X0005900Y0027474D02*
X0106700Y0027474D01*
X0106700Y0026876D02*
X0098559Y0026876D01*
X0100619Y0026277D02*
X0106700Y0026277D01*
X0106700Y0025679D02*
X0101656Y0025679D01*
X0102692Y0025080D02*
X0106700Y0025080D01*
X0106700Y0024482D02*
X0103392Y0024482D01*
X0103990Y0023883D02*
X0106700Y0023883D01*
X0106700Y0023285D02*
X0104589Y0023285D01*
X0105084Y0022686D02*
X0106700Y0022686D01*
X0106700Y0022088D02*
X0105429Y0022088D01*
X0105775Y0021489D02*
X0106700Y0021489D01*
X0106700Y0020891D02*
X0106120Y0020891D01*
X0106411Y0020292D02*
X0106700Y0020292D01*
X0106700Y0019694D02*
X0106572Y0019694D01*
X0106700Y0013385D02*
X0106700Y0005900D01*
X0099215Y0005900D01*
X0100469Y0006236D01*
X0102931Y0007658D01*
X0104942Y0009669D01*
X0106364Y0012131D01*
X0106700Y0013385D01*
X0106700Y0013110D02*
X0106626Y0013110D01*
X0106700Y0012511D02*
X0106466Y0012511D01*
X0106238Y0011913D02*
X0106700Y0011913D01*
X0106700Y0011314D02*
X0105892Y0011314D01*
X0105547Y0010716D02*
X0106700Y0010716D01*
X0106700Y0010117D02*
X0105201Y0010117D01*
X0104792Y0009519D02*
X0106700Y0009519D01*
X0106700Y0008920D02*
X0104194Y0008920D01*
X0103595Y0008322D02*
X0106700Y0008322D01*
X0106700Y0007723D02*
X0102997Y0007723D01*
X0102008Y0007125D02*
X0106700Y0007125D01*
X0106700Y0006526D02*
X0100972Y0006526D01*
X0099318Y0005928D02*
X0106700Y0005928D01*
X0106700Y0028073D02*
X0005900Y0028073D01*
X0005900Y0028671D02*
X0106700Y0028671D01*
X0106700Y0029270D02*
X0005900Y0029270D01*
X0005900Y0029868D02*
X0106700Y0029868D01*
X0106700Y0030467D02*
X0005900Y0030467D01*
X0005900Y0031065D02*
X0106700Y0031065D01*
X0106700Y0031664D02*
X0005900Y0031664D01*
X0005900Y0032262D02*
X0106700Y0032262D01*
X0106700Y0032861D02*
X0005900Y0032861D01*
X0005900Y0033459D02*
X0106700Y0033459D01*
X0106700Y0034058D02*
X0005900Y0034058D01*
X0005900Y0034656D02*
X0106700Y0034656D01*
X0106700Y0035255D02*
X0005900Y0035255D01*
X0005900Y0035853D02*
X0033946Y0035853D01*
X0034891Y0035600D02*
X0037709Y0035600D01*
X0040430Y0036329D01*
X0042870Y0037738D01*
X0044862Y0039730D01*
X0046271Y0042170D01*
X0047000Y0044891D01*
X0047000Y0047709D01*
X0046271Y0050430D01*
X0044862Y0052870D01*
X0042870Y0054862D01*
X0040430Y0056271D01*
X0037709Y0057000D01*
X0034891Y0057000D01*
X0032170Y0056271D01*
X0029730Y0054862D01*
X0027738Y0052870D01*
X0026329Y0050430D01*
X0025600Y0047709D01*
X0025600Y0044891D01*
X0026329Y0042170D01*
X0027738Y0039730D01*
X0029730Y0037738D01*
X0032170Y0036329D01*
X0034891Y0035600D01*
X0031957Y0036452D02*
X0005900Y0036452D01*
X0005900Y0037050D02*
X0030921Y0037050D01*
X0029884Y0037649D02*
X0005900Y0037649D01*
X0005900Y0038247D02*
X0029220Y0038247D01*
X0028622Y0038846D02*
X0005900Y0038846D01*
X0005900Y0039444D02*
X0028023Y0039444D01*
X0027557Y0040043D02*
X0005900Y0040043D01*
X0005900Y0040641D02*
X0027212Y0040641D01*
X0026866Y0041240D02*
X0005900Y0041240D01*
X0005900Y0041839D02*
X0026521Y0041839D01*
X0026258Y0042437D02*
X0005900Y0042437D01*
X0005900Y0043036D02*
X0026097Y0043036D01*
X0025937Y0043634D02*
X0005900Y0043634D01*
X0005900Y0044233D02*
X0025777Y0044233D01*
X0025616Y0044831D02*
X0005900Y0044831D01*
X0005900Y0045430D02*
X0025600Y0045430D01*
X0025600Y0046028D02*
X0005900Y0046028D01*
X0005900Y0046627D02*
X0025600Y0046627D01*
X0025600Y0047225D02*
X0005900Y0047225D01*
X0005900Y0047824D02*
X0025631Y0047824D01*
X0025791Y0048422D02*
X0005900Y0048422D01*
X0005900Y0049021D02*
X0025952Y0049021D01*
X0026112Y0049619D02*
X0005900Y0049619D01*
X0005900Y0050218D02*
X0026272Y0050218D01*
X0026552Y0050816D02*
X0005900Y0050816D01*
X0005900Y0051415D02*
X0026898Y0051415D01*
X0027243Y0052013D02*
X0005900Y0052013D01*
X0005900Y0052612D02*
X0027589Y0052612D01*
X0028078Y0053210D02*
X0005900Y0053210D01*
X0005900Y0053809D02*
X0028677Y0053809D01*
X0029275Y0054407D02*
X0005900Y0054407D01*
X0005900Y0055006D02*
X0029979Y0055006D01*
X0031015Y0055604D02*
X0005900Y0055604D01*
X0005900Y0056203D02*
X0032052Y0056203D01*
X0034150Y0056801D02*
X0005900Y0056801D01*
X0005900Y0057400D02*
X0106700Y0057400D01*
X0106700Y0057998D02*
X0005900Y0057998D01*
X0005900Y0058597D02*
X0106700Y0058597D01*
X0106700Y0059195D02*
X0005900Y0059195D01*
X0005900Y0059794D02*
X0106700Y0059794D01*
X0106700Y0060392D02*
X0005900Y0060392D01*
X0005900Y0060991D02*
X0106700Y0060991D01*
X0106700Y0061589D02*
X0005900Y0061589D01*
X0005900Y0062188D02*
X0106700Y0062188D01*
X0106700Y0062786D02*
X0005900Y0062786D01*
X0005900Y0063385D02*
X0106700Y0063385D01*
X0106700Y0063983D02*
X0005900Y0063983D01*
X0005900Y0064582D02*
X0106700Y0064582D01*
X0106700Y0065180D02*
X0005900Y0065180D01*
X0005900Y0065779D02*
X0106700Y0065779D01*
X0106700Y0066377D02*
X0005900Y0066377D01*
X0005900Y0066976D02*
X0047219Y0066976D01*
X0047885Y0066700D02*
X0046194Y0067400D01*
X0044900Y0068694D01*
X0044200Y0070385D01*
X0044200Y0072215D01*
X0044900Y0073906D01*
X0046194Y0075200D01*
X0047300Y0075658D01*
X0047300Y0078295D01*
X0046406Y0077400D01*
X0044715Y0076700D01*
X0042885Y0076700D01*
X0041194Y0077400D01*
X0039900Y0078694D01*
X0039200Y0080385D01*
X0039200Y0082215D01*
X0039900Y0083906D01*
X0040737Y0084742D01*
X0032997Y0092482D01*
X0032915Y0092400D01*
X0029685Y0092400D01*
X0027400Y0094685D01*
X0027400Y0097915D01*
X0029685Y0100200D01*
X0032915Y0100200D01*
X0035200Y0097915D01*
X0035200Y0094685D01*
X0035118Y0094603D01*
X0043821Y0085900D01*
X0044715Y0085900D01*
X0046406Y0085200D01*
X0047300Y0084305D01*
X0047300Y0088179D01*
X0042997Y0092482D01*
X0042915Y0092400D01*
X0039685Y0092400D01*
X0037400Y0094685D01*
X0037400Y0097915D01*
X0039685Y0100200D01*
X0042915Y0100200D01*
X0045200Y0097915D01*
X0045200Y0094685D01*
X0045118Y0094603D01*
X0050300Y0089421D01*
X0050300Y0084305D01*
X0051194Y0085200D01*
X0052300Y0085658D01*
X0052300Y0092400D01*
X0049685Y0092400D01*
X0047400Y0094685D01*
X0047400Y0097915D01*
X0049685Y0100200D01*
X0052915Y0100200D01*
X0055200Y0097915D01*
X0055200Y0094685D01*
X0055118Y0094603D01*
X0055300Y0094421D01*
X0055300Y0085658D01*
X0056406Y0085200D01*
X0057300Y0084305D01*
X0057300Y0094421D01*
X0057482Y0094603D01*
X0057400Y0094685D01*
X0057400Y0097915D01*
X0059685Y0100200D01*
X0062915Y0100200D01*
X0065200Y0097915D01*
X0065200Y0094685D01*
X0062915Y0092400D01*
X0060300Y0092400D01*
X0060300Y0084305D01*
X0061194Y0085200D01*
X0062300Y0085658D01*
X0062300Y0089421D01*
X0067482Y0094603D01*
X0067400Y0094685D01*
X0067400Y0097915D01*
X0069685Y0100200D01*
X0072915Y0100200D01*
X0075200Y0097915D01*
X0075200Y0094685D01*
X0072915Y0092400D01*
X0069685Y0092400D01*
X0069603Y0092482D01*
X0065300Y0088179D01*
X0065300Y0085658D01*
X0066406Y0085200D01*
X0067300Y0084305D01*
X0067300Y0084421D01*
X0077482Y0094603D01*
X0077400Y0094685D01*
X0077400Y0097915D01*
X0079685Y0100200D01*
X0082915Y0100200D01*
X0085200Y0097915D01*
X0085200Y0094685D01*
X0082915Y0092400D01*
X0079685Y0092400D01*
X0079603Y0092482D01*
X0070300Y0083179D01*
X0070300Y0075658D01*
X0071406Y0075200D01*
X0072700Y0073906D01*
X0073400Y0072215D01*
X0073400Y0070385D01*
X0072700Y0068694D01*
X0071406Y0067400D01*
X0069715Y0066700D01*
X0067885Y0066700D01*
X0066194Y0067400D01*
X0064900Y0068694D01*
X0064200Y0070385D01*
X0064200Y0072215D01*
X0064900Y0073906D01*
X0066194Y0075200D01*
X0067300Y0075658D01*
X0067300Y0078295D01*
X0066406Y0077400D01*
X0064715Y0076700D01*
X0062885Y0076700D01*
X0061194Y0077400D01*
X0060300Y0078295D01*
X0060300Y0075658D01*
X0061406Y0075200D01*
X0062700Y0073906D01*
X0063400Y0072215D01*
X0063400Y0070385D01*
X0062700Y0068694D01*
X0061406Y0067400D01*
X0059715Y0066700D01*
X0057885Y0066700D01*
X0056194Y0067400D01*
X0054900Y0068694D01*
X0054200Y0070385D01*
X0054200Y0072215D01*
X0054900Y0073906D01*
X0056194Y0075200D01*
X0057300Y0075658D01*
X0057300Y0078295D01*
X0056406Y0077400D01*
X0054715Y0076700D01*
X0052885Y0076700D01*
X0051194Y0077400D01*
X0050300Y0078295D01*
X0050300Y0075658D01*
X0051406Y0075200D01*
X0052700Y0073906D01*
X0053400Y0072215D01*
X0053400Y0070385D01*
X0052700Y0068694D01*
X0051406Y0067400D01*
X0049715Y0066700D01*
X0047885Y0066700D01*
X0046020Y0067574D02*
X0005900Y0067574D01*
X0005900Y0068173D02*
X0045422Y0068173D01*
X0044868Y0068772D02*
X0005900Y0068772D01*
X0005900Y0069370D02*
X0044620Y0069370D01*
X0044372Y0069969D02*
X0005900Y0069969D01*
X0005900Y0070567D02*
X0044200Y0070567D01*
X0044200Y0071166D02*
X0005900Y0071166D01*
X0005900Y0071764D02*
X0044200Y0071764D01*
X0044261Y0072363D02*
X0005900Y0072363D01*
X0005900Y0072961D02*
X0044509Y0072961D01*
X0044757Y0073560D02*
X0005900Y0073560D01*
X0005900Y0074158D02*
X0045153Y0074158D01*
X0045751Y0074757D02*
X0005900Y0074757D01*
X0005900Y0075355D02*
X0046570Y0075355D01*
X0047300Y0075954D02*
X0005900Y0075954D01*
X0005900Y0076552D02*
X0047300Y0076552D01*
X0047300Y0077151D02*
X0045803Y0077151D01*
X0046755Y0077749D02*
X0047300Y0077749D01*
X0050300Y0077749D02*
X0050845Y0077749D01*
X0050300Y0077151D02*
X0051797Y0077151D01*
X0051030Y0075355D02*
X0056570Y0075355D01*
X0057300Y0075954D02*
X0050300Y0075954D01*
X0050300Y0076552D02*
X0057300Y0076552D01*
X0057300Y0077151D02*
X0055803Y0077151D01*
X0056755Y0077749D02*
X0057300Y0077749D01*
X0060300Y0077749D02*
X0060845Y0077749D01*
X0060300Y0077151D02*
X0061797Y0077151D01*
X0060300Y0076552D02*
X0067300Y0076552D01*
X0067300Y0075954D02*
X0060300Y0075954D01*
X0061030Y0075355D02*
X0066570Y0075355D01*
X0065751Y0074757D02*
X0061849Y0074757D01*
X0062447Y0074158D02*
X0065153Y0074158D01*
X0064757Y0073560D02*
X0062843Y0073560D01*
X0063091Y0072961D02*
X0064509Y0072961D01*
X0064261Y0072363D02*
X0063339Y0072363D01*
X0063400Y0071764D02*
X0064200Y0071764D01*
X0064200Y0071166D02*
X0063400Y0071166D01*
X0063400Y0070567D02*
X0064200Y0070567D01*
X0064372Y0069969D02*
X0063227Y0069969D01*
X0062980Y0069370D02*
X0064620Y0069370D01*
X0064868Y0068772D02*
X0062732Y0068772D01*
X0062178Y0068173D02*
X0065422Y0068173D01*
X0066020Y0067574D02*
X0061580Y0067574D01*
X0060381Y0066976D02*
X0067219Y0066976D01*
X0070381Y0066976D02*
X0106700Y0066976D01*
X0106700Y0067574D02*
X0071580Y0067574D01*
X0072178Y0068173D02*
X0106700Y0068173D01*
X0106700Y0068772D02*
X0072732Y0068772D01*
X0072980Y0069370D02*
X0106700Y0069370D01*
X0106700Y0069969D02*
X0073227Y0069969D01*
X0073400Y0070567D02*
X0106700Y0070567D01*
X0106700Y0071166D02*
X0073400Y0071166D01*
X0073400Y0071764D02*
X0106700Y0071764D01*
X0106700Y0072363D02*
X0073339Y0072363D01*
X0073091Y0072961D02*
X0106700Y0072961D01*
X0106700Y0073560D02*
X0072843Y0073560D01*
X0072447Y0074158D02*
X0106700Y0074158D01*
X0106700Y0074757D02*
X0071849Y0074757D01*
X0071030Y0075355D02*
X0106700Y0075355D01*
X0106700Y0075954D02*
X0070300Y0075954D01*
X0070300Y0076552D02*
X0106700Y0076552D01*
X0106700Y0077151D02*
X0070300Y0077151D01*
X0070300Y0077749D02*
X0106700Y0077749D01*
X0106700Y0078348D02*
X0070300Y0078348D01*
X0070300Y0078946D02*
X0106700Y0078946D01*
X0106700Y0079545D02*
X0070300Y0079545D01*
X0070300Y0080143D02*
X0106700Y0080143D01*
X0106700Y0080742D02*
X0070300Y0080742D01*
X0070300Y0081340D02*
X0106700Y0081340D01*
X0106700Y0081939D02*
X0070300Y0081939D01*
X0070300Y0082537D02*
X0106700Y0082537D01*
X0106700Y0083136D02*
X0070300Y0083136D01*
X0070856Y0083734D02*
X0106700Y0083734D01*
X0106700Y0084333D02*
X0071454Y0084333D01*
X0072053Y0084931D02*
X0106700Y0084931D01*
X0106700Y0085530D02*
X0072651Y0085530D01*
X0073250Y0086128D02*
X0106700Y0086128D01*
X0106700Y0086727D02*
X0073848Y0086727D01*
X0074447Y0087325D02*
X0106700Y0087325D01*
X0106700Y0087924D02*
X0075045Y0087924D01*
X0075644Y0088522D02*
X0106700Y0088522D01*
X0106700Y0089121D02*
X0076242Y0089121D01*
X0076841Y0089719D02*
X0106700Y0089719D01*
X0106700Y0090318D02*
X0077439Y0090318D01*
X0078038Y0090916D02*
X0106700Y0090916D01*
X0106700Y0091515D02*
X0078636Y0091515D01*
X0079235Y0092113D02*
X0106700Y0092113D01*
X0106700Y0092712D02*
X0083227Y0092712D01*
X0083826Y0093310D02*
X0106700Y0093310D01*
X0106700Y0093909D02*
X0084424Y0093909D01*
X0085023Y0094508D02*
X0106700Y0094508D01*
X0106700Y0095106D02*
X0085200Y0095106D01*
X0085200Y0095705D02*
X0094115Y0095705D01*
X0092015Y0096303D02*
X0085200Y0096303D01*
X0085200Y0096902D02*
X0090979Y0096902D01*
X0089942Y0097500D02*
X0085200Y0097500D01*
X0085017Y0098099D02*
X0089228Y0098099D01*
X0088629Y0098697D02*
X0084418Y0098697D01*
X0083820Y0099296D02*
X0088031Y0099296D01*
X0087528Y0099894D02*
X0083221Y0099894D01*
X0086491Y0101690D02*
X0026109Y0101690D01*
X0026406Y0102288D02*
X0086194Y0102288D01*
X0086034Y0102887D02*
X0026566Y0102887D01*
X0026727Y0103485D02*
X0085873Y0103485D01*
X0085713Y0104084D02*
X0026887Y0104084D01*
X0027047Y0104682D02*
X0085552Y0104682D01*
X0085500Y0105281D02*
X0027100Y0105281D01*
X0027100Y0105879D02*
X0085500Y0105879D01*
X0085500Y0106478D02*
X0027100Y0106478D01*
X0027100Y0107076D02*
X0085500Y0107076D01*
X0085500Y0107675D02*
X0027100Y0107675D01*
X0026952Y0108273D02*
X0085648Y0108273D01*
X0085808Y0108872D02*
X0026792Y0108872D01*
X0026631Y0109470D02*
X0085969Y0109470D01*
X0086129Y0110069D02*
X0026471Y0110069D01*
X0026249Y0110667D02*
X0086351Y0110667D01*
X0086696Y0111266D02*
X0025904Y0111266D01*
X0025558Y0111864D02*
X0087042Y0111864D01*
X0087387Y0112463D02*
X0025213Y0112463D01*
X0024812Y0113061D02*
X0087788Y0113061D01*
X0088386Y0113660D02*
X0024214Y0113660D01*
X0023615Y0114258D02*
X0088985Y0114258D01*
X0089583Y0114857D02*
X0023017Y0114857D01*
X0022042Y0115455D02*
X0090558Y0115455D01*
X0091594Y0116054D02*
X0021006Y0116054D01*
X0019392Y0116652D02*
X0093208Y0116652D01*
X0099215Y0116700D02*
X0106700Y0116700D01*
X0106700Y0109215D01*
X0106364Y0110469D01*
X0104942Y0112931D01*
X0102931Y0114942D01*
X0100469Y0116364D01*
X0099215Y0116700D01*
X0099392Y0116652D02*
X0106700Y0116652D01*
X0106700Y0116054D02*
X0101006Y0116054D01*
X0102042Y0115455D02*
X0106700Y0115455D01*
X0106700Y0114857D02*
X0103017Y0114857D01*
X0103615Y0114258D02*
X0106700Y0114258D01*
X0106700Y0113660D02*
X0104214Y0113660D01*
X0104812Y0113061D02*
X0106700Y0113061D01*
X0106700Y0112463D02*
X0105213Y0112463D01*
X0105558Y0111864D02*
X0106700Y0111864D01*
X0106700Y0111266D02*
X0105904Y0111266D01*
X0106249Y0110667D02*
X0106700Y0110667D01*
X0106700Y0110069D02*
X0106471Y0110069D01*
X0106631Y0109470D02*
X0106700Y0109470D01*
X0106700Y0102887D02*
X0106566Y0102887D01*
X0106700Y0102288D02*
X0106406Y0102288D01*
X0106700Y0101690D02*
X0106109Y0101690D01*
X0105763Y0101091D02*
X0106700Y0101091D01*
X0106700Y0100493D02*
X0105418Y0100493D01*
X0105072Y0099894D02*
X0106700Y0099894D01*
X0106700Y0099296D02*
X0104569Y0099296D01*
X0103971Y0098697D02*
X0106700Y0098697D01*
X0106700Y0098099D02*
X0103372Y0098099D01*
X0102658Y0097500D02*
X0106700Y0097500D01*
X0106700Y0096902D02*
X0101621Y0096902D01*
X0100585Y0096303D02*
X0106700Y0096303D01*
X0106700Y0095705D02*
X0098485Y0095705D01*
X0087182Y0100493D02*
X0025418Y0100493D01*
X0025763Y0101091D02*
X0086837Y0101091D01*
X0079379Y0099894D02*
X0073221Y0099894D01*
X0073820Y0099296D02*
X0078780Y0099296D01*
X0078182Y0098697D02*
X0074418Y0098697D01*
X0075017Y0098099D02*
X0077583Y0098099D01*
X0077400Y0097500D02*
X0075200Y0097500D01*
X0075200Y0096902D02*
X0077400Y0096902D01*
X0077400Y0096303D02*
X0075200Y0096303D01*
X0075200Y0095705D02*
X0077400Y0095705D01*
X0077400Y0095106D02*
X0075200Y0095106D01*
X0075023Y0094508D02*
X0077386Y0094508D01*
X0076788Y0093909D02*
X0074424Y0093909D01*
X0073826Y0093310D02*
X0076189Y0093310D01*
X0075591Y0092712D02*
X0073227Y0092712D01*
X0074394Y0091515D02*
X0068636Y0091515D01*
X0068038Y0090916D02*
X0073795Y0090916D01*
X0073197Y0090318D02*
X0067439Y0090318D01*
X0066841Y0089719D02*
X0072598Y0089719D01*
X0072000Y0089121D02*
X0066242Y0089121D01*
X0065644Y0088522D02*
X0071401Y0088522D01*
X0070803Y0087924D02*
X0065300Y0087924D01*
X0065300Y0087325D02*
X0070204Y0087325D01*
X0069606Y0086727D02*
X0065300Y0086727D01*
X0065300Y0086128D02*
X0069007Y0086128D01*
X0068409Y0085530D02*
X0065609Y0085530D01*
X0066674Y0084931D02*
X0067810Y0084931D01*
X0067300Y0084333D02*
X0067273Y0084333D01*
X0062300Y0086128D02*
X0060300Y0086128D01*
X0060300Y0085530D02*
X0061991Y0085530D01*
X0060926Y0084931D02*
X0060300Y0084931D01*
X0060300Y0084333D02*
X0060327Y0084333D01*
X0060300Y0086727D02*
X0062300Y0086727D01*
X0062300Y0087325D02*
X0060300Y0087325D01*
X0060300Y0087924D02*
X0062300Y0087924D01*
X0062300Y0088522D02*
X0060300Y0088522D01*
X0060300Y0089121D02*
X0062300Y0089121D01*
X0062598Y0089719D02*
X0060300Y0089719D01*
X0060300Y0090318D02*
X0063197Y0090318D01*
X0063795Y0090916D02*
X0060300Y0090916D01*
X0060300Y0091515D02*
X0064394Y0091515D01*
X0064992Y0092113D02*
X0060300Y0092113D01*
X0063227Y0092712D02*
X0065591Y0092712D01*
X0066189Y0093310D02*
X0063826Y0093310D01*
X0064424Y0093909D02*
X0066788Y0093909D01*
X0067386Y0094508D02*
X0065023Y0094508D01*
X0065200Y0095106D02*
X0067400Y0095106D01*
X0067400Y0095705D02*
X0065200Y0095705D01*
X0065200Y0096303D02*
X0067400Y0096303D01*
X0067400Y0096902D02*
X0065200Y0096902D01*
X0065200Y0097500D02*
X0067400Y0097500D01*
X0067583Y0098099D02*
X0065017Y0098099D01*
X0064418Y0098697D02*
X0068182Y0098697D01*
X0068780Y0099296D02*
X0063820Y0099296D01*
X0063221Y0099894D02*
X0069379Y0099894D01*
X0069235Y0092113D02*
X0074992Y0092113D01*
X0067300Y0077749D02*
X0066755Y0077749D01*
X0067300Y0077151D02*
X0065803Y0077151D01*
X0057300Y0084333D02*
X0057273Y0084333D01*
X0057300Y0084931D02*
X0056674Y0084931D01*
X0057300Y0085530D02*
X0055609Y0085530D01*
X0055300Y0086128D02*
X0057300Y0086128D01*
X0057300Y0086727D02*
X0055300Y0086727D01*
X0055300Y0087325D02*
X0057300Y0087325D01*
X0057300Y0087924D02*
X0055300Y0087924D01*
X0055300Y0088522D02*
X0057300Y0088522D01*
X0057300Y0089121D02*
X0055300Y0089121D01*
X0055300Y0089719D02*
X0057300Y0089719D01*
X0057300Y0090318D02*
X0055300Y0090318D01*
X0055300Y0090916D02*
X0057300Y0090916D01*
X0057300Y0091515D02*
X0055300Y0091515D01*
X0055300Y0092113D02*
X0057300Y0092113D01*
X0057300Y0092712D02*
X0055300Y0092712D01*
X0055300Y0093310D02*
X0057300Y0093310D01*
X0057300Y0093909D02*
X0055300Y0093909D01*
X0055214Y0094508D02*
X0057386Y0094508D01*
X0057400Y0095106D02*
X0055200Y0095106D01*
X0055200Y0095705D02*
X0057400Y0095705D01*
X0057400Y0096303D02*
X0055200Y0096303D01*
X0055200Y0096902D02*
X0057400Y0096902D01*
X0057400Y0097500D02*
X0055200Y0097500D01*
X0055017Y0098099D02*
X0057583Y0098099D01*
X0058182Y0098697D02*
X0054418Y0098697D01*
X0053820Y0099296D02*
X0058780Y0099296D01*
X0059379Y0099894D02*
X0053221Y0099894D01*
X0049379Y0099894D02*
X0043221Y0099894D01*
X0043820Y0099296D02*
X0048780Y0099296D01*
X0048182Y0098697D02*
X0044418Y0098697D01*
X0045017Y0098099D02*
X0047583Y0098099D01*
X0047400Y0097500D02*
X0045200Y0097500D01*
X0045200Y0096902D02*
X0047400Y0096902D01*
X0047400Y0096303D02*
X0045200Y0096303D01*
X0045200Y0095705D02*
X0047400Y0095705D01*
X0047400Y0095106D02*
X0045200Y0095106D01*
X0045214Y0094508D02*
X0047577Y0094508D01*
X0048176Y0093909D02*
X0045812Y0093909D01*
X0046411Y0093310D02*
X0048774Y0093310D01*
X0049373Y0092712D02*
X0047009Y0092712D01*
X0047608Y0092113D02*
X0052300Y0092113D01*
X0052300Y0091515D02*
X0048206Y0091515D01*
X0048805Y0090916D02*
X0052300Y0090916D01*
X0052300Y0090318D02*
X0049403Y0090318D01*
X0050002Y0089719D02*
X0052300Y0089719D01*
X0052300Y0089121D02*
X0050300Y0089121D01*
X0050300Y0088522D02*
X0052300Y0088522D01*
X0052300Y0087924D02*
X0050300Y0087924D01*
X0050300Y0087325D02*
X0052300Y0087325D01*
X0052300Y0086727D02*
X0050300Y0086727D01*
X0050300Y0086128D02*
X0052300Y0086128D01*
X0051991Y0085530D02*
X0050300Y0085530D01*
X0050300Y0084931D02*
X0050926Y0084931D01*
X0050327Y0084333D02*
X0050300Y0084333D01*
X0047300Y0084333D02*
X0047273Y0084333D01*
X0047300Y0084931D02*
X0046674Y0084931D01*
X0047300Y0085530D02*
X0045609Y0085530D01*
X0047300Y0086128D02*
X0043593Y0086128D01*
X0042994Y0086727D02*
X0047300Y0086727D01*
X0047300Y0087325D02*
X0042396Y0087325D01*
X0041797Y0087924D02*
X0047300Y0087924D01*
X0046956Y0088522D02*
X0041199Y0088522D01*
X0040600Y0089121D02*
X0046358Y0089121D01*
X0045759Y0089719D02*
X0040002Y0089719D01*
X0039403Y0090318D02*
X0045161Y0090318D01*
X0044562Y0090916D02*
X0038805Y0090916D01*
X0038206Y0091515D02*
X0043964Y0091515D01*
X0043365Y0092113D02*
X0037608Y0092113D01*
X0037009Y0092712D02*
X0039373Y0092712D01*
X0038774Y0093310D02*
X0036411Y0093310D01*
X0035812Y0093909D02*
X0038176Y0093909D01*
X0037577Y0094508D02*
X0035214Y0094508D01*
X0035200Y0095106D02*
X0037400Y0095106D01*
X0037400Y0095705D02*
X0035200Y0095705D01*
X0035200Y0096303D02*
X0037400Y0096303D01*
X0037400Y0096902D02*
X0035200Y0096902D01*
X0035200Y0097500D02*
X0037400Y0097500D01*
X0037583Y0098099D02*
X0035017Y0098099D01*
X0034418Y0098697D02*
X0038182Y0098697D01*
X0038780Y0099296D02*
X0033820Y0099296D01*
X0033221Y0099894D02*
X0039379Y0099894D01*
X0033365Y0092113D02*
X0005900Y0092113D01*
X0005900Y0091515D02*
X0033964Y0091515D01*
X0034562Y0090916D02*
X0005900Y0090916D01*
X0005900Y0090318D02*
X0035161Y0090318D01*
X0035759Y0089719D02*
X0005900Y0089719D01*
X0005900Y0089121D02*
X0036358Y0089121D01*
X0036956Y0088522D02*
X0005900Y0088522D01*
X0005900Y0087924D02*
X0037555Y0087924D01*
X0038153Y0087325D02*
X0005900Y0087325D01*
X0005900Y0086727D02*
X0038752Y0086727D01*
X0039350Y0086128D02*
X0005900Y0086128D01*
X0005900Y0085530D02*
X0039949Y0085530D01*
X0040547Y0084931D02*
X0005900Y0084931D01*
X0005900Y0084333D02*
X0040327Y0084333D01*
X0039829Y0083734D02*
X0005900Y0083734D01*
X0005900Y0083136D02*
X0039581Y0083136D01*
X0039334Y0082537D02*
X0005900Y0082537D01*
X0005900Y0081939D02*
X0039200Y0081939D01*
X0039200Y0081340D02*
X0005900Y0081340D01*
X0005900Y0080742D02*
X0039200Y0080742D01*
X0039300Y0080143D02*
X0005900Y0080143D01*
X0005900Y0079545D02*
X0039548Y0079545D01*
X0039796Y0078946D02*
X0005900Y0078946D01*
X0005900Y0078348D02*
X0040247Y0078348D01*
X0040845Y0077749D02*
X0005900Y0077749D01*
X0005900Y0077151D02*
X0041797Y0077151D01*
X0050381Y0066976D02*
X0057219Y0066976D01*
X0056020Y0067574D02*
X0051580Y0067574D01*
X0052178Y0068173D02*
X0055422Y0068173D01*
X0054868Y0068772D02*
X0052732Y0068772D01*
X0052980Y0069370D02*
X0054620Y0069370D01*
X0054372Y0069969D02*
X0053227Y0069969D01*
X0053400Y0070567D02*
X0054200Y0070567D01*
X0054200Y0071166D02*
X0053400Y0071166D01*
X0053400Y0071764D02*
X0054200Y0071764D01*
X0054261Y0072363D02*
X0053339Y0072363D01*
X0053091Y0072961D02*
X0054509Y0072961D01*
X0054757Y0073560D02*
X0052843Y0073560D01*
X0052447Y0074158D02*
X0055153Y0074158D01*
X0055751Y0074757D02*
X0051849Y0074757D01*
X0038450Y0056801D02*
X0074150Y0056801D01*
X0074891Y0057000D02*
X0072170Y0056271D01*
X0069730Y0054862D01*
X0067738Y0052870D01*
X0066329Y0050430D01*
X0065600Y0047709D01*
X0065600Y0044891D01*
X0066329Y0042170D01*
X0067738Y0039730D01*
X0069730Y0037738D01*
X0072170Y0036329D01*
X0074891Y0035600D01*
X0077709Y0035600D01*
X0080430Y0036329D01*
X0082870Y0037738D01*
X0084862Y0039730D01*
X0086271Y0042170D01*
X0087000Y0044891D01*
X0087000Y0047709D01*
X0086271Y0050430D01*
X0084862Y0052870D01*
X0082870Y0054862D01*
X0080430Y0056271D01*
X0077709Y0057000D01*
X0074891Y0057000D01*
X0072052Y0056203D02*
X0040548Y0056203D01*
X0041585Y0055604D02*
X0071015Y0055604D01*
X0069979Y0055006D02*
X0042621Y0055006D01*
X0043325Y0054407D02*
X0069275Y0054407D01*
X0068677Y0053809D02*
X0043923Y0053809D01*
X0044522Y0053210D02*
X0068078Y0053210D01*
X0067589Y0052612D02*
X0045011Y0052612D01*
X0045357Y0052013D02*
X0067243Y0052013D01*
X0066898Y0051415D02*
X0045702Y0051415D01*
X0046048Y0050816D02*
X0066552Y0050816D01*
X0066272Y0050218D02*
X0046328Y0050218D01*
X0046488Y0049619D02*
X0066112Y0049619D01*
X0065952Y0049021D02*
X0046648Y0049021D01*
X0046809Y0048422D02*
X0065791Y0048422D01*
X0065631Y0047824D02*
X0046969Y0047824D01*
X0047000Y0047225D02*
X0065600Y0047225D01*
X0065600Y0046627D02*
X0047000Y0046627D01*
X0047000Y0046028D02*
X0065600Y0046028D01*
X0065600Y0045430D02*
X0047000Y0045430D01*
X0046984Y0044831D02*
X0065616Y0044831D01*
X0065777Y0044233D02*
X0046823Y0044233D01*
X0046663Y0043634D02*
X0065937Y0043634D01*
X0066097Y0043036D02*
X0046503Y0043036D01*
X0046342Y0042437D02*
X0066258Y0042437D01*
X0066521Y0041839D02*
X0046079Y0041839D01*
X0045734Y0041240D02*
X0066866Y0041240D01*
X0067212Y0040641D02*
X0045388Y0040641D01*
X0045043Y0040043D02*
X0067557Y0040043D01*
X0068023Y0039444D02*
X0044577Y0039444D01*
X0043978Y0038846D02*
X0068622Y0038846D01*
X0069220Y0038247D02*
X0043380Y0038247D01*
X0042716Y0037649D02*
X0069884Y0037649D01*
X0070921Y0037050D02*
X0041679Y0037050D01*
X0040643Y0036452D02*
X0071957Y0036452D01*
X0073946Y0035853D02*
X0038654Y0035853D01*
X0078654Y0035853D02*
X0106700Y0035853D01*
X0106700Y0036452D02*
X0080643Y0036452D01*
X0081679Y0037050D02*
X0106700Y0037050D01*
X0106700Y0037649D02*
X0082716Y0037649D01*
X0083380Y0038247D02*
X0106700Y0038247D01*
X0106700Y0038846D02*
X0083978Y0038846D01*
X0084577Y0039444D02*
X0106700Y0039444D01*
X0106700Y0040043D02*
X0085043Y0040043D01*
X0085388Y0040641D02*
X0106700Y0040641D01*
X0106700Y0041240D02*
X0085734Y0041240D01*
X0086079Y0041839D02*
X0106700Y0041839D01*
X0106700Y0042437D02*
X0086342Y0042437D01*
X0086503Y0043036D02*
X0106700Y0043036D01*
X0106700Y0043634D02*
X0086663Y0043634D01*
X0086823Y0044233D02*
X0106700Y0044233D01*
X0106700Y0044831D02*
X0086984Y0044831D01*
X0087000Y0045430D02*
X0106700Y0045430D01*
X0106700Y0046028D02*
X0087000Y0046028D01*
X0087000Y0046627D02*
X0106700Y0046627D01*
X0106700Y0047225D02*
X0087000Y0047225D01*
X0086969Y0047824D02*
X0106700Y0047824D01*
X0106700Y0048422D02*
X0086809Y0048422D01*
X0086648Y0049021D02*
X0106700Y0049021D01*
X0106700Y0049619D02*
X0086488Y0049619D01*
X0086328Y0050218D02*
X0106700Y0050218D01*
X0106700Y0050816D02*
X0086048Y0050816D01*
X0085702Y0051415D02*
X0106700Y0051415D01*
X0106700Y0052013D02*
X0085357Y0052013D01*
X0085011Y0052612D02*
X0106700Y0052612D01*
X0106700Y0053210D02*
X0084522Y0053210D01*
X0083923Y0053809D02*
X0106700Y0053809D01*
X0106700Y0054407D02*
X0083325Y0054407D01*
X0082621Y0055006D02*
X0106700Y0055006D01*
X0106700Y0055604D02*
X0081585Y0055604D01*
X0080548Y0056203D02*
X0106700Y0056203D01*
X0106700Y0056801D02*
X0078450Y0056801D01*
X0029373Y0092712D02*
X0005900Y0092712D01*
X0005900Y0093310D02*
X0028774Y0093310D01*
X0028176Y0093909D02*
X0005900Y0093909D01*
X0005900Y0094508D02*
X0027577Y0094508D01*
X0027400Y0095106D02*
X0005900Y0095106D01*
X0005900Y0095705D02*
X0014115Y0095705D01*
X0012015Y0096303D02*
X0005900Y0096303D01*
X0005900Y0096902D02*
X0010979Y0096902D01*
X0009942Y0097500D02*
X0005900Y0097500D01*
X0005900Y0098099D02*
X0009228Y0098099D01*
X0008629Y0098697D02*
X0005900Y0098697D01*
X0005900Y0099296D02*
X0008031Y0099296D01*
X0007528Y0099894D02*
X0005900Y0099894D01*
X0005900Y0100493D02*
X0007182Y0100493D01*
X0006837Y0101091D02*
X0005900Y0101091D01*
X0005900Y0101690D02*
X0006491Y0101690D01*
X0006194Y0102288D02*
X0005900Y0102288D01*
X0005900Y0102887D02*
X0006034Y0102887D01*
X0005900Y0109215D02*
X0005900Y0116700D01*
X0013385Y0116700D01*
X0012131Y0116364D01*
X0009669Y0114942D01*
X0007658Y0112931D01*
X0006236Y0110469D01*
X0005900Y0109215D01*
X0005900Y0109470D02*
X0005969Y0109470D01*
X0005900Y0110069D02*
X0006129Y0110069D01*
X0006351Y0110667D02*
X0005900Y0110667D01*
X0005900Y0111266D02*
X0006696Y0111266D01*
X0007042Y0111864D02*
X0005900Y0111864D01*
X0005900Y0112463D02*
X0007387Y0112463D01*
X0007788Y0113061D02*
X0005900Y0113061D01*
X0005900Y0113660D02*
X0008386Y0113660D01*
X0008985Y0114258D02*
X0005900Y0114258D01*
X0005900Y0114857D02*
X0009583Y0114857D01*
X0010558Y0115455D02*
X0005900Y0115455D01*
X0005900Y0116054D02*
X0011594Y0116054D01*
X0013208Y0116652D02*
X0005900Y0116652D01*
X0023372Y0098099D02*
X0027583Y0098099D01*
X0027400Y0097500D02*
X0022658Y0097500D01*
X0021621Y0096902D02*
X0027400Y0096902D01*
X0027400Y0096303D02*
X0020585Y0096303D01*
X0018485Y0095705D02*
X0027400Y0095705D01*
X0028182Y0098697D02*
X0023971Y0098697D01*
X0024569Y0099296D02*
X0028780Y0099296D01*
X0029379Y0099894D02*
X0025072Y0099894D01*
D11*
X0009800Y0106300D02*
X0009802Y0106461D01*
X0009808Y0106621D01*
X0009818Y0106782D01*
X0009832Y0106942D01*
X0009850Y0107102D01*
X0009871Y0107261D01*
X0009897Y0107420D01*
X0009927Y0107578D01*
X0009960Y0107735D01*
X0009998Y0107892D01*
X0010039Y0108047D01*
X0010084Y0108201D01*
X0010133Y0108354D01*
X0010186Y0108506D01*
X0010242Y0108657D01*
X0010303Y0108806D01*
X0010366Y0108954D01*
X0010434Y0109100D01*
X0010505Y0109244D01*
X0010579Y0109386D01*
X0010657Y0109527D01*
X0010739Y0109665D01*
X0010824Y0109802D01*
X0010912Y0109936D01*
X0011004Y0110068D01*
X0011099Y0110198D01*
X0011197Y0110326D01*
X0011298Y0110451D01*
X0011402Y0110573D01*
X0011509Y0110693D01*
X0011619Y0110810D01*
X0011732Y0110925D01*
X0011848Y0111036D01*
X0011967Y0111145D01*
X0012088Y0111250D01*
X0012212Y0111353D01*
X0012338Y0111453D01*
X0012466Y0111549D01*
X0012597Y0111642D01*
X0012731Y0111732D01*
X0012866Y0111819D01*
X0013004Y0111902D01*
X0013143Y0111982D01*
X0013285Y0112058D01*
X0013428Y0112131D01*
X0013573Y0112200D01*
X0013720Y0112266D01*
X0013868Y0112328D01*
X0014018Y0112386D01*
X0014169Y0112441D01*
X0014322Y0112492D01*
X0014476Y0112539D01*
X0014631Y0112582D01*
X0014787Y0112621D01*
X0014943Y0112657D01*
X0015101Y0112688D01*
X0015259Y0112716D01*
X0015418Y0112740D01*
X0015578Y0112760D01*
X0015738Y0112776D01*
X0015898Y0112788D01*
X0016059Y0112796D01*
X0016220Y0112800D01*
X0016380Y0112800D01*
X0016541Y0112796D01*
X0016702Y0112788D01*
X0016862Y0112776D01*
X0017022Y0112760D01*
X0017182Y0112740D01*
X0017341Y0112716D01*
X0017499Y0112688D01*
X0017657Y0112657D01*
X0017813Y0112621D01*
X0017969Y0112582D01*
X0018124Y0112539D01*
X0018278Y0112492D01*
X0018431Y0112441D01*
X0018582Y0112386D01*
X0018732Y0112328D01*
X0018880Y0112266D01*
X0019027Y0112200D01*
X0019172Y0112131D01*
X0019315Y0112058D01*
X0019457Y0111982D01*
X0019596Y0111902D01*
X0019734Y0111819D01*
X0019869Y0111732D01*
X0020003Y0111642D01*
X0020134Y0111549D01*
X0020262Y0111453D01*
X0020388Y0111353D01*
X0020512Y0111250D01*
X0020633Y0111145D01*
X0020752Y0111036D01*
X0020868Y0110925D01*
X0020981Y0110810D01*
X0021091Y0110693D01*
X0021198Y0110573D01*
X0021302Y0110451D01*
X0021403Y0110326D01*
X0021501Y0110198D01*
X0021596Y0110068D01*
X0021688Y0109936D01*
X0021776Y0109802D01*
X0021861Y0109665D01*
X0021943Y0109527D01*
X0022021Y0109386D01*
X0022095Y0109244D01*
X0022166Y0109100D01*
X0022234Y0108954D01*
X0022297Y0108806D01*
X0022358Y0108657D01*
X0022414Y0108506D01*
X0022467Y0108354D01*
X0022516Y0108201D01*
X0022561Y0108047D01*
X0022602Y0107892D01*
X0022640Y0107735D01*
X0022673Y0107578D01*
X0022703Y0107420D01*
X0022729Y0107261D01*
X0022750Y0107102D01*
X0022768Y0106942D01*
X0022782Y0106782D01*
X0022792Y0106621D01*
X0022798Y0106461D01*
X0022800Y0106300D01*
X0022798Y0106139D01*
X0022792Y0105979D01*
X0022782Y0105818D01*
X0022768Y0105658D01*
X0022750Y0105498D01*
X0022729Y0105339D01*
X0022703Y0105180D01*
X0022673Y0105022D01*
X0022640Y0104865D01*
X0022602Y0104708D01*
X0022561Y0104553D01*
X0022516Y0104399D01*
X0022467Y0104246D01*
X0022414Y0104094D01*
X0022358Y0103943D01*
X0022297Y0103794D01*
X0022234Y0103646D01*
X0022166Y0103500D01*
X0022095Y0103356D01*
X0022021Y0103214D01*
X0021943Y0103073D01*
X0021861Y0102935D01*
X0021776Y0102798D01*
X0021688Y0102664D01*
X0021596Y0102532D01*
X0021501Y0102402D01*
X0021403Y0102274D01*
X0021302Y0102149D01*
X0021198Y0102027D01*
X0021091Y0101907D01*
X0020981Y0101790D01*
X0020868Y0101675D01*
X0020752Y0101564D01*
X0020633Y0101455D01*
X0020512Y0101350D01*
X0020388Y0101247D01*
X0020262Y0101147D01*
X0020134Y0101051D01*
X0020003Y0100958D01*
X0019869Y0100868D01*
X0019734Y0100781D01*
X0019596Y0100698D01*
X0019457Y0100618D01*
X0019315Y0100542D01*
X0019172Y0100469D01*
X0019027Y0100400D01*
X0018880Y0100334D01*
X0018732Y0100272D01*
X0018582Y0100214D01*
X0018431Y0100159D01*
X0018278Y0100108D01*
X0018124Y0100061D01*
X0017969Y0100018D01*
X0017813Y0099979D01*
X0017657Y0099943D01*
X0017499Y0099912D01*
X0017341Y0099884D01*
X0017182Y0099860D01*
X0017022Y0099840D01*
X0016862Y0099824D01*
X0016702Y0099812D01*
X0016541Y0099804D01*
X0016380Y0099800D01*
X0016220Y0099800D01*
X0016059Y0099804D01*
X0015898Y0099812D01*
X0015738Y0099824D01*
X0015578Y0099840D01*
X0015418Y0099860D01*
X0015259Y0099884D01*
X0015101Y0099912D01*
X0014943Y0099943D01*
X0014787Y0099979D01*
X0014631Y0100018D01*
X0014476Y0100061D01*
X0014322Y0100108D01*
X0014169Y0100159D01*
X0014018Y0100214D01*
X0013868Y0100272D01*
X0013720Y0100334D01*
X0013573Y0100400D01*
X0013428Y0100469D01*
X0013285Y0100542D01*
X0013143Y0100618D01*
X0013004Y0100698D01*
X0012866Y0100781D01*
X0012731Y0100868D01*
X0012597Y0100958D01*
X0012466Y0101051D01*
X0012338Y0101147D01*
X0012212Y0101247D01*
X0012088Y0101350D01*
X0011967Y0101455D01*
X0011848Y0101564D01*
X0011732Y0101675D01*
X0011619Y0101790D01*
X0011509Y0101907D01*
X0011402Y0102027D01*
X0011298Y0102149D01*
X0011197Y0102274D01*
X0011099Y0102402D01*
X0011004Y0102532D01*
X0010912Y0102664D01*
X0010824Y0102798D01*
X0010739Y0102935D01*
X0010657Y0103073D01*
X0010579Y0103214D01*
X0010505Y0103356D01*
X0010434Y0103500D01*
X0010366Y0103646D01*
X0010303Y0103794D01*
X0010242Y0103943D01*
X0010186Y0104094D01*
X0010133Y0104246D01*
X0010084Y0104399D01*
X0010039Y0104553D01*
X0009998Y0104708D01*
X0009960Y0104865D01*
X0009927Y0105022D01*
X0009897Y0105180D01*
X0009871Y0105339D01*
X0009850Y0105498D01*
X0009832Y0105658D01*
X0009818Y0105818D01*
X0009808Y0105979D01*
X0009802Y0106139D01*
X0009800Y0106300D01*
X0029900Y0046300D02*
X0029902Y0046460D01*
X0029908Y0046619D01*
X0029918Y0046778D01*
X0029932Y0046937D01*
X0029950Y0047096D01*
X0029971Y0047254D01*
X0029997Y0047411D01*
X0030027Y0047568D01*
X0030060Y0047724D01*
X0030098Y0047879D01*
X0030139Y0048033D01*
X0030184Y0048186D01*
X0030233Y0048338D01*
X0030286Y0048489D01*
X0030342Y0048638D01*
X0030403Y0048786D01*
X0030466Y0048932D01*
X0030534Y0049077D01*
X0030605Y0049220D01*
X0030679Y0049361D01*
X0030757Y0049500D01*
X0030839Y0049637D01*
X0030924Y0049772D01*
X0031012Y0049905D01*
X0031104Y0050036D01*
X0031198Y0050164D01*
X0031296Y0050290D01*
X0031397Y0050414D01*
X0031501Y0050535D01*
X0031608Y0050653D01*
X0031718Y0050769D01*
X0031831Y0050882D01*
X0031947Y0050992D01*
X0032065Y0051099D01*
X0032186Y0051203D01*
X0032310Y0051304D01*
X0032436Y0051402D01*
X0032564Y0051496D01*
X0032695Y0051588D01*
X0032828Y0051676D01*
X0032963Y0051761D01*
X0033100Y0051843D01*
X0033239Y0051921D01*
X0033380Y0051995D01*
X0033523Y0052066D01*
X0033668Y0052134D01*
X0033814Y0052197D01*
X0033962Y0052258D01*
X0034111Y0052314D01*
X0034262Y0052367D01*
X0034414Y0052416D01*
X0034567Y0052461D01*
X0034721Y0052502D01*
X0034876Y0052540D01*
X0035032Y0052573D01*
X0035189Y0052603D01*
X0035346Y0052629D01*
X0035504Y0052650D01*
X0035663Y0052668D01*
X0035822Y0052682D01*
X0035981Y0052692D01*
X0036140Y0052698D01*
X0036300Y0052700D01*
X0036460Y0052698D01*
X0036619Y0052692D01*
X0036778Y0052682D01*
X0036937Y0052668D01*
X0037096Y0052650D01*
X0037254Y0052629D01*
X0037411Y0052603D01*
X0037568Y0052573D01*
X0037724Y0052540D01*
X0037879Y0052502D01*
X0038033Y0052461D01*
X0038186Y0052416D01*
X0038338Y0052367D01*
X0038489Y0052314D01*
X0038638Y0052258D01*
X0038786Y0052197D01*
X0038932Y0052134D01*
X0039077Y0052066D01*
X0039220Y0051995D01*
X0039361Y0051921D01*
X0039500Y0051843D01*
X0039637Y0051761D01*
X0039772Y0051676D01*
X0039905Y0051588D01*
X0040036Y0051496D01*
X0040164Y0051402D01*
X0040290Y0051304D01*
X0040414Y0051203D01*
X0040535Y0051099D01*
X0040653Y0050992D01*
X0040769Y0050882D01*
X0040882Y0050769D01*
X0040992Y0050653D01*
X0041099Y0050535D01*
X0041203Y0050414D01*
X0041304Y0050290D01*
X0041402Y0050164D01*
X0041496Y0050036D01*
X0041588Y0049905D01*
X0041676Y0049772D01*
X0041761Y0049637D01*
X0041843Y0049500D01*
X0041921Y0049361D01*
X0041995Y0049220D01*
X0042066Y0049077D01*
X0042134Y0048932D01*
X0042197Y0048786D01*
X0042258Y0048638D01*
X0042314Y0048489D01*
X0042367Y0048338D01*
X0042416Y0048186D01*
X0042461Y0048033D01*
X0042502Y0047879D01*
X0042540Y0047724D01*
X0042573Y0047568D01*
X0042603Y0047411D01*
X0042629Y0047254D01*
X0042650Y0047096D01*
X0042668Y0046937D01*
X0042682Y0046778D01*
X0042692Y0046619D01*
X0042698Y0046460D01*
X0042700Y0046300D01*
X0042698Y0046140D01*
X0042692Y0045981D01*
X0042682Y0045822D01*
X0042668Y0045663D01*
X0042650Y0045504D01*
X0042629Y0045346D01*
X0042603Y0045189D01*
X0042573Y0045032D01*
X0042540Y0044876D01*
X0042502Y0044721D01*
X0042461Y0044567D01*
X0042416Y0044414D01*
X0042367Y0044262D01*
X0042314Y0044111D01*
X0042258Y0043962D01*
X0042197Y0043814D01*
X0042134Y0043668D01*
X0042066Y0043523D01*
X0041995Y0043380D01*
X0041921Y0043239D01*
X0041843Y0043100D01*
X0041761Y0042963D01*
X0041676Y0042828D01*
X0041588Y0042695D01*
X0041496Y0042564D01*
X0041402Y0042436D01*
X0041304Y0042310D01*
X0041203Y0042186D01*
X0041099Y0042065D01*
X0040992Y0041947D01*
X0040882Y0041831D01*
X0040769Y0041718D01*
X0040653Y0041608D01*
X0040535Y0041501D01*
X0040414Y0041397D01*
X0040290Y0041296D01*
X0040164Y0041198D01*
X0040036Y0041104D01*
X0039905Y0041012D01*
X0039772Y0040924D01*
X0039637Y0040839D01*
X0039500Y0040757D01*
X0039361Y0040679D01*
X0039220Y0040605D01*
X0039077Y0040534D01*
X0038932Y0040466D01*
X0038786Y0040403D01*
X0038638Y0040342D01*
X0038489Y0040286D01*
X0038338Y0040233D01*
X0038186Y0040184D01*
X0038033Y0040139D01*
X0037879Y0040098D01*
X0037724Y0040060D01*
X0037568Y0040027D01*
X0037411Y0039997D01*
X0037254Y0039971D01*
X0037096Y0039950D01*
X0036937Y0039932D01*
X0036778Y0039918D01*
X0036619Y0039908D01*
X0036460Y0039902D01*
X0036300Y0039900D01*
X0036140Y0039902D01*
X0035981Y0039908D01*
X0035822Y0039918D01*
X0035663Y0039932D01*
X0035504Y0039950D01*
X0035346Y0039971D01*
X0035189Y0039997D01*
X0035032Y0040027D01*
X0034876Y0040060D01*
X0034721Y0040098D01*
X0034567Y0040139D01*
X0034414Y0040184D01*
X0034262Y0040233D01*
X0034111Y0040286D01*
X0033962Y0040342D01*
X0033814Y0040403D01*
X0033668Y0040466D01*
X0033523Y0040534D01*
X0033380Y0040605D01*
X0033239Y0040679D01*
X0033100Y0040757D01*
X0032963Y0040839D01*
X0032828Y0040924D01*
X0032695Y0041012D01*
X0032564Y0041104D01*
X0032436Y0041198D01*
X0032310Y0041296D01*
X0032186Y0041397D01*
X0032065Y0041501D01*
X0031947Y0041608D01*
X0031831Y0041718D01*
X0031718Y0041831D01*
X0031608Y0041947D01*
X0031501Y0042065D01*
X0031397Y0042186D01*
X0031296Y0042310D01*
X0031198Y0042436D01*
X0031104Y0042564D01*
X0031012Y0042695D01*
X0030924Y0042828D01*
X0030839Y0042963D01*
X0030757Y0043100D01*
X0030679Y0043239D01*
X0030605Y0043380D01*
X0030534Y0043523D01*
X0030466Y0043668D01*
X0030403Y0043814D01*
X0030342Y0043962D01*
X0030286Y0044111D01*
X0030233Y0044262D01*
X0030184Y0044414D01*
X0030139Y0044567D01*
X0030098Y0044721D01*
X0030060Y0044876D01*
X0030027Y0045032D01*
X0029997Y0045189D01*
X0029971Y0045346D01*
X0029950Y0045504D01*
X0029932Y0045663D01*
X0029918Y0045822D01*
X0029908Y0045981D01*
X0029902Y0046140D01*
X0029900Y0046300D01*
X0009800Y0016300D02*
X0009802Y0016461D01*
X0009808Y0016621D01*
X0009818Y0016782D01*
X0009832Y0016942D01*
X0009850Y0017102D01*
X0009871Y0017261D01*
X0009897Y0017420D01*
X0009927Y0017578D01*
X0009960Y0017735D01*
X0009998Y0017892D01*
X0010039Y0018047D01*
X0010084Y0018201D01*
X0010133Y0018354D01*
X0010186Y0018506D01*
X0010242Y0018657D01*
X0010303Y0018806D01*
X0010366Y0018954D01*
X0010434Y0019100D01*
X0010505Y0019244D01*
X0010579Y0019386D01*
X0010657Y0019527D01*
X0010739Y0019665D01*
X0010824Y0019802D01*
X0010912Y0019936D01*
X0011004Y0020068D01*
X0011099Y0020198D01*
X0011197Y0020326D01*
X0011298Y0020451D01*
X0011402Y0020573D01*
X0011509Y0020693D01*
X0011619Y0020810D01*
X0011732Y0020925D01*
X0011848Y0021036D01*
X0011967Y0021145D01*
X0012088Y0021250D01*
X0012212Y0021353D01*
X0012338Y0021453D01*
X0012466Y0021549D01*
X0012597Y0021642D01*
X0012731Y0021732D01*
X0012866Y0021819D01*
X0013004Y0021902D01*
X0013143Y0021982D01*
X0013285Y0022058D01*
X0013428Y0022131D01*
X0013573Y0022200D01*
X0013720Y0022266D01*
X0013868Y0022328D01*
X0014018Y0022386D01*
X0014169Y0022441D01*
X0014322Y0022492D01*
X0014476Y0022539D01*
X0014631Y0022582D01*
X0014787Y0022621D01*
X0014943Y0022657D01*
X0015101Y0022688D01*
X0015259Y0022716D01*
X0015418Y0022740D01*
X0015578Y0022760D01*
X0015738Y0022776D01*
X0015898Y0022788D01*
X0016059Y0022796D01*
X0016220Y0022800D01*
X0016380Y0022800D01*
X0016541Y0022796D01*
X0016702Y0022788D01*
X0016862Y0022776D01*
X0017022Y0022760D01*
X0017182Y0022740D01*
X0017341Y0022716D01*
X0017499Y0022688D01*
X0017657Y0022657D01*
X0017813Y0022621D01*
X0017969Y0022582D01*
X0018124Y0022539D01*
X0018278Y0022492D01*
X0018431Y0022441D01*
X0018582Y0022386D01*
X0018732Y0022328D01*
X0018880Y0022266D01*
X0019027Y0022200D01*
X0019172Y0022131D01*
X0019315Y0022058D01*
X0019457Y0021982D01*
X0019596Y0021902D01*
X0019734Y0021819D01*
X0019869Y0021732D01*
X0020003Y0021642D01*
X0020134Y0021549D01*
X0020262Y0021453D01*
X0020388Y0021353D01*
X0020512Y0021250D01*
X0020633Y0021145D01*
X0020752Y0021036D01*
X0020868Y0020925D01*
X0020981Y0020810D01*
X0021091Y0020693D01*
X0021198Y0020573D01*
X0021302Y0020451D01*
X0021403Y0020326D01*
X0021501Y0020198D01*
X0021596Y0020068D01*
X0021688Y0019936D01*
X0021776Y0019802D01*
X0021861Y0019665D01*
X0021943Y0019527D01*
X0022021Y0019386D01*
X0022095Y0019244D01*
X0022166Y0019100D01*
X0022234Y0018954D01*
X0022297Y0018806D01*
X0022358Y0018657D01*
X0022414Y0018506D01*
X0022467Y0018354D01*
X0022516Y0018201D01*
X0022561Y0018047D01*
X0022602Y0017892D01*
X0022640Y0017735D01*
X0022673Y0017578D01*
X0022703Y0017420D01*
X0022729Y0017261D01*
X0022750Y0017102D01*
X0022768Y0016942D01*
X0022782Y0016782D01*
X0022792Y0016621D01*
X0022798Y0016461D01*
X0022800Y0016300D01*
X0022798Y0016139D01*
X0022792Y0015979D01*
X0022782Y0015818D01*
X0022768Y0015658D01*
X0022750Y0015498D01*
X0022729Y0015339D01*
X0022703Y0015180D01*
X0022673Y0015022D01*
X0022640Y0014865D01*
X0022602Y0014708D01*
X0022561Y0014553D01*
X0022516Y0014399D01*
X0022467Y0014246D01*
X0022414Y0014094D01*
X0022358Y0013943D01*
X0022297Y0013794D01*
X0022234Y0013646D01*
X0022166Y0013500D01*
X0022095Y0013356D01*
X0022021Y0013214D01*
X0021943Y0013073D01*
X0021861Y0012935D01*
X0021776Y0012798D01*
X0021688Y0012664D01*
X0021596Y0012532D01*
X0021501Y0012402D01*
X0021403Y0012274D01*
X0021302Y0012149D01*
X0021198Y0012027D01*
X0021091Y0011907D01*
X0020981Y0011790D01*
X0020868Y0011675D01*
X0020752Y0011564D01*
X0020633Y0011455D01*
X0020512Y0011350D01*
X0020388Y0011247D01*
X0020262Y0011147D01*
X0020134Y0011051D01*
X0020003Y0010958D01*
X0019869Y0010868D01*
X0019734Y0010781D01*
X0019596Y0010698D01*
X0019457Y0010618D01*
X0019315Y0010542D01*
X0019172Y0010469D01*
X0019027Y0010400D01*
X0018880Y0010334D01*
X0018732Y0010272D01*
X0018582Y0010214D01*
X0018431Y0010159D01*
X0018278Y0010108D01*
X0018124Y0010061D01*
X0017969Y0010018D01*
X0017813Y0009979D01*
X0017657Y0009943D01*
X0017499Y0009912D01*
X0017341Y0009884D01*
X0017182Y0009860D01*
X0017022Y0009840D01*
X0016862Y0009824D01*
X0016702Y0009812D01*
X0016541Y0009804D01*
X0016380Y0009800D01*
X0016220Y0009800D01*
X0016059Y0009804D01*
X0015898Y0009812D01*
X0015738Y0009824D01*
X0015578Y0009840D01*
X0015418Y0009860D01*
X0015259Y0009884D01*
X0015101Y0009912D01*
X0014943Y0009943D01*
X0014787Y0009979D01*
X0014631Y0010018D01*
X0014476Y0010061D01*
X0014322Y0010108D01*
X0014169Y0010159D01*
X0014018Y0010214D01*
X0013868Y0010272D01*
X0013720Y0010334D01*
X0013573Y0010400D01*
X0013428Y0010469D01*
X0013285Y0010542D01*
X0013143Y0010618D01*
X0013004Y0010698D01*
X0012866Y0010781D01*
X0012731Y0010868D01*
X0012597Y0010958D01*
X0012466Y0011051D01*
X0012338Y0011147D01*
X0012212Y0011247D01*
X0012088Y0011350D01*
X0011967Y0011455D01*
X0011848Y0011564D01*
X0011732Y0011675D01*
X0011619Y0011790D01*
X0011509Y0011907D01*
X0011402Y0012027D01*
X0011298Y0012149D01*
X0011197Y0012274D01*
X0011099Y0012402D01*
X0011004Y0012532D01*
X0010912Y0012664D01*
X0010824Y0012798D01*
X0010739Y0012935D01*
X0010657Y0013073D01*
X0010579Y0013214D01*
X0010505Y0013356D01*
X0010434Y0013500D01*
X0010366Y0013646D01*
X0010303Y0013794D01*
X0010242Y0013943D01*
X0010186Y0014094D01*
X0010133Y0014246D01*
X0010084Y0014399D01*
X0010039Y0014553D01*
X0009998Y0014708D01*
X0009960Y0014865D01*
X0009927Y0015022D01*
X0009897Y0015180D01*
X0009871Y0015339D01*
X0009850Y0015498D01*
X0009832Y0015658D01*
X0009818Y0015818D01*
X0009808Y0015979D01*
X0009802Y0016139D01*
X0009800Y0016300D01*
X0069900Y0046300D02*
X0069902Y0046460D01*
X0069908Y0046619D01*
X0069918Y0046778D01*
X0069932Y0046937D01*
X0069950Y0047096D01*
X0069971Y0047254D01*
X0069997Y0047411D01*
X0070027Y0047568D01*
X0070060Y0047724D01*
X0070098Y0047879D01*
X0070139Y0048033D01*
X0070184Y0048186D01*
X0070233Y0048338D01*
X0070286Y0048489D01*
X0070342Y0048638D01*
X0070403Y0048786D01*
X0070466Y0048932D01*
X0070534Y0049077D01*
X0070605Y0049220D01*
X0070679Y0049361D01*
X0070757Y0049500D01*
X0070839Y0049637D01*
X0070924Y0049772D01*
X0071012Y0049905D01*
X0071104Y0050036D01*
X0071198Y0050164D01*
X0071296Y0050290D01*
X0071397Y0050414D01*
X0071501Y0050535D01*
X0071608Y0050653D01*
X0071718Y0050769D01*
X0071831Y0050882D01*
X0071947Y0050992D01*
X0072065Y0051099D01*
X0072186Y0051203D01*
X0072310Y0051304D01*
X0072436Y0051402D01*
X0072564Y0051496D01*
X0072695Y0051588D01*
X0072828Y0051676D01*
X0072963Y0051761D01*
X0073100Y0051843D01*
X0073239Y0051921D01*
X0073380Y0051995D01*
X0073523Y0052066D01*
X0073668Y0052134D01*
X0073814Y0052197D01*
X0073962Y0052258D01*
X0074111Y0052314D01*
X0074262Y0052367D01*
X0074414Y0052416D01*
X0074567Y0052461D01*
X0074721Y0052502D01*
X0074876Y0052540D01*
X0075032Y0052573D01*
X0075189Y0052603D01*
X0075346Y0052629D01*
X0075504Y0052650D01*
X0075663Y0052668D01*
X0075822Y0052682D01*
X0075981Y0052692D01*
X0076140Y0052698D01*
X0076300Y0052700D01*
X0076460Y0052698D01*
X0076619Y0052692D01*
X0076778Y0052682D01*
X0076937Y0052668D01*
X0077096Y0052650D01*
X0077254Y0052629D01*
X0077411Y0052603D01*
X0077568Y0052573D01*
X0077724Y0052540D01*
X0077879Y0052502D01*
X0078033Y0052461D01*
X0078186Y0052416D01*
X0078338Y0052367D01*
X0078489Y0052314D01*
X0078638Y0052258D01*
X0078786Y0052197D01*
X0078932Y0052134D01*
X0079077Y0052066D01*
X0079220Y0051995D01*
X0079361Y0051921D01*
X0079500Y0051843D01*
X0079637Y0051761D01*
X0079772Y0051676D01*
X0079905Y0051588D01*
X0080036Y0051496D01*
X0080164Y0051402D01*
X0080290Y0051304D01*
X0080414Y0051203D01*
X0080535Y0051099D01*
X0080653Y0050992D01*
X0080769Y0050882D01*
X0080882Y0050769D01*
X0080992Y0050653D01*
X0081099Y0050535D01*
X0081203Y0050414D01*
X0081304Y0050290D01*
X0081402Y0050164D01*
X0081496Y0050036D01*
X0081588Y0049905D01*
X0081676Y0049772D01*
X0081761Y0049637D01*
X0081843Y0049500D01*
X0081921Y0049361D01*
X0081995Y0049220D01*
X0082066Y0049077D01*
X0082134Y0048932D01*
X0082197Y0048786D01*
X0082258Y0048638D01*
X0082314Y0048489D01*
X0082367Y0048338D01*
X0082416Y0048186D01*
X0082461Y0048033D01*
X0082502Y0047879D01*
X0082540Y0047724D01*
X0082573Y0047568D01*
X0082603Y0047411D01*
X0082629Y0047254D01*
X0082650Y0047096D01*
X0082668Y0046937D01*
X0082682Y0046778D01*
X0082692Y0046619D01*
X0082698Y0046460D01*
X0082700Y0046300D01*
X0082698Y0046140D01*
X0082692Y0045981D01*
X0082682Y0045822D01*
X0082668Y0045663D01*
X0082650Y0045504D01*
X0082629Y0045346D01*
X0082603Y0045189D01*
X0082573Y0045032D01*
X0082540Y0044876D01*
X0082502Y0044721D01*
X0082461Y0044567D01*
X0082416Y0044414D01*
X0082367Y0044262D01*
X0082314Y0044111D01*
X0082258Y0043962D01*
X0082197Y0043814D01*
X0082134Y0043668D01*
X0082066Y0043523D01*
X0081995Y0043380D01*
X0081921Y0043239D01*
X0081843Y0043100D01*
X0081761Y0042963D01*
X0081676Y0042828D01*
X0081588Y0042695D01*
X0081496Y0042564D01*
X0081402Y0042436D01*
X0081304Y0042310D01*
X0081203Y0042186D01*
X0081099Y0042065D01*
X0080992Y0041947D01*
X0080882Y0041831D01*
X0080769Y0041718D01*
X0080653Y0041608D01*
X0080535Y0041501D01*
X0080414Y0041397D01*
X0080290Y0041296D01*
X0080164Y0041198D01*
X0080036Y0041104D01*
X0079905Y0041012D01*
X0079772Y0040924D01*
X0079637Y0040839D01*
X0079500Y0040757D01*
X0079361Y0040679D01*
X0079220Y0040605D01*
X0079077Y0040534D01*
X0078932Y0040466D01*
X0078786Y0040403D01*
X0078638Y0040342D01*
X0078489Y0040286D01*
X0078338Y0040233D01*
X0078186Y0040184D01*
X0078033Y0040139D01*
X0077879Y0040098D01*
X0077724Y0040060D01*
X0077568Y0040027D01*
X0077411Y0039997D01*
X0077254Y0039971D01*
X0077096Y0039950D01*
X0076937Y0039932D01*
X0076778Y0039918D01*
X0076619Y0039908D01*
X0076460Y0039902D01*
X0076300Y0039900D01*
X0076140Y0039902D01*
X0075981Y0039908D01*
X0075822Y0039918D01*
X0075663Y0039932D01*
X0075504Y0039950D01*
X0075346Y0039971D01*
X0075189Y0039997D01*
X0075032Y0040027D01*
X0074876Y0040060D01*
X0074721Y0040098D01*
X0074567Y0040139D01*
X0074414Y0040184D01*
X0074262Y0040233D01*
X0074111Y0040286D01*
X0073962Y0040342D01*
X0073814Y0040403D01*
X0073668Y0040466D01*
X0073523Y0040534D01*
X0073380Y0040605D01*
X0073239Y0040679D01*
X0073100Y0040757D01*
X0072963Y0040839D01*
X0072828Y0040924D01*
X0072695Y0041012D01*
X0072564Y0041104D01*
X0072436Y0041198D01*
X0072310Y0041296D01*
X0072186Y0041397D01*
X0072065Y0041501D01*
X0071947Y0041608D01*
X0071831Y0041718D01*
X0071718Y0041831D01*
X0071608Y0041947D01*
X0071501Y0042065D01*
X0071397Y0042186D01*
X0071296Y0042310D01*
X0071198Y0042436D01*
X0071104Y0042564D01*
X0071012Y0042695D01*
X0070924Y0042828D01*
X0070839Y0042963D01*
X0070757Y0043100D01*
X0070679Y0043239D01*
X0070605Y0043380D01*
X0070534Y0043523D01*
X0070466Y0043668D01*
X0070403Y0043814D01*
X0070342Y0043962D01*
X0070286Y0044111D01*
X0070233Y0044262D01*
X0070184Y0044414D01*
X0070139Y0044567D01*
X0070098Y0044721D01*
X0070060Y0044876D01*
X0070027Y0045032D01*
X0069997Y0045189D01*
X0069971Y0045346D01*
X0069950Y0045504D01*
X0069932Y0045663D01*
X0069918Y0045822D01*
X0069908Y0045981D01*
X0069902Y0046140D01*
X0069900Y0046300D01*
X0089800Y0016300D02*
X0089802Y0016461D01*
X0089808Y0016621D01*
X0089818Y0016782D01*
X0089832Y0016942D01*
X0089850Y0017102D01*
X0089871Y0017261D01*
X0089897Y0017420D01*
X0089927Y0017578D01*
X0089960Y0017735D01*
X0089998Y0017892D01*
X0090039Y0018047D01*
X0090084Y0018201D01*
X0090133Y0018354D01*
X0090186Y0018506D01*
X0090242Y0018657D01*
X0090303Y0018806D01*
X0090366Y0018954D01*
X0090434Y0019100D01*
X0090505Y0019244D01*
X0090579Y0019386D01*
X0090657Y0019527D01*
X0090739Y0019665D01*
X0090824Y0019802D01*
X0090912Y0019936D01*
X0091004Y0020068D01*
X0091099Y0020198D01*
X0091197Y0020326D01*
X0091298Y0020451D01*
X0091402Y0020573D01*
X0091509Y0020693D01*
X0091619Y0020810D01*
X0091732Y0020925D01*
X0091848Y0021036D01*
X0091967Y0021145D01*
X0092088Y0021250D01*
X0092212Y0021353D01*
X0092338Y0021453D01*
X0092466Y0021549D01*
X0092597Y0021642D01*
X0092731Y0021732D01*
X0092866Y0021819D01*
X0093004Y0021902D01*
X0093143Y0021982D01*
X0093285Y0022058D01*
X0093428Y0022131D01*
X0093573Y0022200D01*
X0093720Y0022266D01*
X0093868Y0022328D01*
X0094018Y0022386D01*
X0094169Y0022441D01*
X0094322Y0022492D01*
X0094476Y0022539D01*
X0094631Y0022582D01*
X0094787Y0022621D01*
X0094943Y0022657D01*
X0095101Y0022688D01*
X0095259Y0022716D01*
X0095418Y0022740D01*
X0095578Y0022760D01*
X0095738Y0022776D01*
X0095898Y0022788D01*
X0096059Y0022796D01*
X0096220Y0022800D01*
X0096380Y0022800D01*
X0096541Y0022796D01*
X0096702Y0022788D01*
X0096862Y0022776D01*
X0097022Y0022760D01*
X0097182Y0022740D01*
X0097341Y0022716D01*
X0097499Y0022688D01*
X0097657Y0022657D01*
X0097813Y0022621D01*
X0097969Y0022582D01*
X0098124Y0022539D01*
X0098278Y0022492D01*
X0098431Y0022441D01*
X0098582Y0022386D01*
X0098732Y0022328D01*
X0098880Y0022266D01*
X0099027Y0022200D01*
X0099172Y0022131D01*
X0099315Y0022058D01*
X0099457Y0021982D01*
X0099596Y0021902D01*
X0099734Y0021819D01*
X0099869Y0021732D01*
X0100003Y0021642D01*
X0100134Y0021549D01*
X0100262Y0021453D01*
X0100388Y0021353D01*
X0100512Y0021250D01*
X0100633Y0021145D01*
X0100752Y0021036D01*
X0100868Y0020925D01*
X0100981Y0020810D01*
X0101091Y0020693D01*
X0101198Y0020573D01*
X0101302Y0020451D01*
X0101403Y0020326D01*
X0101501Y0020198D01*
X0101596Y0020068D01*
X0101688Y0019936D01*
X0101776Y0019802D01*
X0101861Y0019665D01*
X0101943Y0019527D01*
X0102021Y0019386D01*
X0102095Y0019244D01*
X0102166Y0019100D01*
X0102234Y0018954D01*
X0102297Y0018806D01*
X0102358Y0018657D01*
X0102414Y0018506D01*
X0102467Y0018354D01*
X0102516Y0018201D01*
X0102561Y0018047D01*
X0102602Y0017892D01*
X0102640Y0017735D01*
X0102673Y0017578D01*
X0102703Y0017420D01*
X0102729Y0017261D01*
X0102750Y0017102D01*
X0102768Y0016942D01*
X0102782Y0016782D01*
X0102792Y0016621D01*
X0102798Y0016461D01*
X0102800Y0016300D01*
X0102798Y0016139D01*
X0102792Y0015979D01*
X0102782Y0015818D01*
X0102768Y0015658D01*
X0102750Y0015498D01*
X0102729Y0015339D01*
X0102703Y0015180D01*
X0102673Y0015022D01*
X0102640Y0014865D01*
X0102602Y0014708D01*
X0102561Y0014553D01*
X0102516Y0014399D01*
X0102467Y0014246D01*
X0102414Y0014094D01*
X0102358Y0013943D01*
X0102297Y0013794D01*
X0102234Y0013646D01*
X0102166Y0013500D01*
X0102095Y0013356D01*
X0102021Y0013214D01*
X0101943Y0013073D01*
X0101861Y0012935D01*
X0101776Y0012798D01*
X0101688Y0012664D01*
X0101596Y0012532D01*
X0101501Y0012402D01*
X0101403Y0012274D01*
X0101302Y0012149D01*
X0101198Y0012027D01*
X0101091Y0011907D01*
X0100981Y0011790D01*
X0100868Y0011675D01*
X0100752Y0011564D01*
X0100633Y0011455D01*
X0100512Y0011350D01*
X0100388Y0011247D01*
X0100262Y0011147D01*
X0100134Y0011051D01*
X0100003Y0010958D01*
X0099869Y0010868D01*
X0099734Y0010781D01*
X0099596Y0010698D01*
X0099457Y0010618D01*
X0099315Y0010542D01*
X0099172Y0010469D01*
X0099027Y0010400D01*
X0098880Y0010334D01*
X0098732Y0010272D01*
X0098582Y0010214D01*
X0098431Y0010159D01*
X0098278Y0010108D01*
X0098124Y0010061D01*
X0097969Y0010018D01*
X0097813Y0009979D01*
X0097657Y0009943D01*
X0097499Y0009912D01*
X0097341Y0009884D01*
X0097182Y0009860D01*
X0097022Y0009840D01*
X0096862Y0009824D01*
X0096702Y0009812D01*
X0096541Y0009804D01*
X0096380Y0009800D01*
X0096220Y0009800D01*
X0096059Y0009804D01*
X0095898Y0009812D01*
X0095738Y0009824D01*
X0095578Y0009840D01*
X0095418Y0009860D01*
X0095259Y0009884D01*
X0095101Y0009912D01*
X0094943Y0009943D01*
X0094787Y0009979D01*
X0094631Y0010018D01*
X0094476Y0010061D01*
X0094322Y0010108D01*
X0094169Y0010159D01*
X0094018Y0010214D01*
X0093868Y0010272D01*
X0093720Y0010334D01*
X0093573Y0010400D01*
X0093428Y0010469D01*
X0093285Y0010542D01*
X0093143Y0010618D01*
X0093004Y0010698D01*
X0092866Y0010781D01*
X0092731Y0010868D01*
X0092597Y0010958D01*
X0092466Y0011051D01*
X0092338Y0011147D01*
X0092212Y0011247D01*
X0092088Y0011350D01*
X0091967Y0011455D01*
X0091848Y0011564D01*
X0091732Y0011675D01*
X0091619Y0011790D01*
X0091509Y0011907D01*
X0091402Y0012027D01*
X0091298Y0012149D01*
X0091197Y0012274D01*
X0091099Y0012402D01*
X0091004Y0012532D01*
X0090912Y0012664D01*
X0090824Y0012798D01*
X0090739Y0012935D01*
X0090657Y0013073D01*
X0090579Y0013214D01*
X0090505Y0013356D01*
X0090434Y0013500D01*
X0090366Y0013646D01*
X0090303Y0013794D01*
X0090242Y0013943D01*
X0090186Y0014094D01*
X0090133Y0014246D01*
X0090084Y0014399D01*
X0090039Y0014553D01*
X0089998Y0014708D01*
X0089960Y0014865D01*
X0089927Y0015022D01*
X0089897Y0015180D01*
X0089871Y0015339D01*
X0089850Y0015498D01*
X0089832Y0015658D01*
X0089818Y0015818D01*
X0089808Y0015979D01*
X0089802Y0016139D01*
X0089800Y0016300D01*
X0089800Y0106300D02*
X0089802Y0106461D01*
X0089808Y0106621D01*
X0089818Y0106782D01*
X0089832Y0106942D01*
X0089850Y0107102D01*
X0089871Y0107261D01*
X0089897Y0107420D01*
X0089927Y0107578D01*
X0089960Y0107735D01*
X0089998Y0107892D01*
X0090039Y0108047D01*
X0090084Y0108201D01*
X0090133Y0108354D01*
X0090186Y0108506D01*
X0090242Y0108657D01*
X0090303Y0108806D01*
X0090366Y0108954D01*
X0090434Y0109100D01*
X0090505Y0109244D01*
X0090579Y0109386D01*
X0090657Y0109527D01*
X0090739Y0109665D01*
X0090824Y0109802D01*
X0090912Y0109936D01*
X0091004Y0110068D01*
X0091099Y0110198D01*
X0091197Y0110326D01*
X0091298Y0110451D01*
X0091402Y0110573D01*
X0091509Y0110693D01*
X0091619Y0110810D01*
X0091732Y0110925D01*
X0091848Y0111036D01*
X0091967Y0111145D01*
X0092088Y0111250D01*
X0092212Y0111353D01*
X0092338Y0111453D01*
X0092466Y0111549D01*
X0092597Y0111642D01*
X0092731Y0111732D01*
X0092866Y0111819D01*
X0093004Y0111902D01*
X0093143Y0111982D01*
X0093285Y0112058D01*
X0093428Y0112131D01*
X0093573Y0112200D01*
X0093720Y0112266D01*
X0093868Y0112328D01*
X0094018Y0112386D01*
X0094169Y0112441D01*
X0094322Y0112492D01*
X0094476Y0112539D01*
X0094631Y0112582D01*
X0094787Y0112621D01*
X0094943Y0112657D01*
X0095101Y0112688D01*
X0095259Y0112716D01*
X0095418Y0112740D01*
X0095578Y0112760D01*
X0095738Y0112776D01*
X0095898Y0112788D01*
X0096059Y0112796D01*
X0096220Y0112800D01*
X0096380Y0112800D01*
X0096541Y0112796D01*
X0096702Y0112788D01*
X0096862Y0112776D01*
X0097022Y0112760D01*
X0097182Y0112740D01*
X0097341Y0112716D01*
X0097499Y0112688D01*
X0097657Y0112657D01*
X0097813Y0112621D01*
X0097969Y0112582D01*
X0098124Y0112539D01*
X0098278Y0112492D01*
X0098431Y0112441D01*
X0098582Y0112386D01*
X0098732Y0112328D01*
X0098880Y0112266D01*
X0099027Y0112200D01*
X0099172Y0112131D01*
X0099315Y0112058D01*
X0099457Y0111982D01*
X0099596Y0111902D01*
X0099734Y0111819D01*
X0099869Y0111732D01*
X0100003Y0111642D01*
X0100134Y0111549D01*
X0100262Y0111453D01*
X0100388Y0111353D01*
X0100512Y0111250D01*
X0100633Y0111145D01*
X0100752Y0111036D01*
X0100868Y0110925D01*
X0100981Y0110810D01*
X0101091Y0110693D01*
X0101198Y0110573D01*
X0101302Y0110451D01*
X0101403Y0110326D01*
X0101501Y0110198D01*
X0101596Y0110068D01*
X0101688Y0109936D01*
X0101776Y0109802D01*
X0101861Y0109665D01*
X0101943Y0109527D01*
X0102021Y0109386D01*
X0102095Y0109244D01*
X0102166Y0109100D01*
X0102234Y0108954D01*
X0102297Y0108806D01*
X0102358Y0108657D01*
X0102414Y0108506D01*
X0102467Y0108354D01*
X0102516Y0108201D01*
X0102561Y0108047D01*
X0102602Y0107892D01*
X0102640Y0107735D01*
X0102673Y0107578D01*
X0102703Y0107420D01*
X0102729Y0107261D01*
X0102750Y0107102D01*
X0102768Y0106942D01*
X0102782Y0106782D01*
X0102792Y0106621D01*
X0102798Y0106461D01*
X0102800Y0106300D01*
X0102798Y0106139D01*
X0102792Y0105979D01*
X0102782Y0105818D01*
X0102768Y0105658D01*
X0102750Y0105498D01*
X0102729Y0105339D01*
X0102703Y0105180D01*
X0102673Y0105022D01*
X0102640Y0104865D01*
X0102602Y0104708D01*
X0102561Y0104553D01*
X0102516Y0104399D01*
X0102467Y0104246D01*
X0102414Y0104094D01*
X0102358Y0103943D01*
X0102297Y0103794D01*
X0102234Y0103646D01*
X0102166Y0103500D01*
X0102095Y0103356D01*
X0102021Y0103214D01*
X0101943Y0103073D01*
X0101861Y0102935D01*
X0101776Y0102798D01*
X0101688Y0102664D01*
X0101596Y0102532D01*
X0101501Y0102402D01*
X0101403Y0102274D01*
X0101302Y0102149D01*
X0101198Y0102027D01*
X0101091Y0101907D01*
X0100981Y0101790D01*
X0100868Y0101675D01*
X0100752Y0101564D01*
X0100633Y0101455D01*
X0100512Y0101350D01*
X0100388Y0101247D01*
X0100262Y0101147D01*
X0100134Y0101051D01*
X0100003Y0100958D01*
X0099869Y0100868D01*
X0099734Y0100781D01*
X0099596Y0100698D01*
X0099457Y0100618D01*
X0099315Y0100542D01*
X0099172Y0100469D01*
X0099027Y0100400D01*
X0098880Y0100334D01*
X0098732Y0100272D01*
X0098582Y0100214D01*
X0098431Y0100159D01*
X0098278Y0100108D01*
X0098124Y0100061D01*
X0097969Y0100018D01*
X0097813Y0099979D01*
X0097657Y0099943D01*
X0097499Y0099912D01*
X0097341Y0099884D01*
X0097182Y0099860D01*
X0097022Y0099840D01*
X0096862Y0099824D01*
X0096702Y0099812D01*
X0096541Y0099804D01*
X0096380Y0099800D01*
X0096220Y0099800D01*
X0096059Y0099804D01*
X0095898Y0099812D01*
X0095738Y0099824D01*
X0095578Y0099840D01*
X0095418Y0099860D01*
X0095259Y0099884D01*
X0095101Y0099912D01*
X0094943Y0099943D01*
X0094787Y0099979D01*
X0094631Y0100018D01*
X0094476Y0100061D01*
X0094322Y0100108D01*
X0094169Y0100159D01*
X0094018Y0100214D01*
X0093868Y0100272D01*
X0093720Y0100334D01*
X0093573Y0100400D01*
X0093428Y0100469D01*
X0093285Y0100542D01*
X0093143Y0100618D01*
X0093004Y0100698D01*
X0092866Y0100781D01*
X0092731Y0100868D01*
X0092597Y0100958D01*
X0092466Y0101051D01*
X0092338Y0101147D01*
X0092212Y0101247D01*
X0092088Y0101350D01*
X0091967Y0101455D01*
X0091848Y0101564D01*
X0091732Y0101675D01*
X0091619Y0101790D01*
X0091509Y0101907D01*
X0091402Y0102027D01*
X0091298Y0102149D01*
X0091197Y0102274D01*
X0091099Y0102402D01*
X0091004Y0102532D01*
X0090912Y0102664D01*
X0090824Y0102798D01*
X0090739Y0102935D01*
X0090657Y0103073D01*
X0090579Y0103214D01*
X0090505Y0103356D01*
X0090434Y0103500D01*
X0090366Y0103646D01*
X0090303Y0103794D01*
X0090242Y0103943D01*
X0090186Y0104094D01*
X0090133Y0104246D01*
X0090084Y0104399D01*
X0090039Y0104553D01*
X0089998Y0104708D01*
X0089960Y0104865D01*
X0089927Y0105022D01*
X0089897Y0105180D01*
X0089871Y0105339D01*
X0089850Y0105498D01*
X0089832Y0105658D01*
X0089818Y0105818D01*
X0089808Y0105979D01*
X0089802Y0106139D01*
X0089800Y0106300D01*
D12*
X0063800Y0081300D03*
X0058800Y0071300D03*
X0053800Y0081300D03*
X0048800Y0071300D03*
X0043800Y0081300D03*
X0068800Y0071300D03*
D13*
X0071300Y0096300D03*
X0061300Y0096300D03*
X0051300Y0096300D03*
X0041300Y0096300D03*
X0031300Y0096300D03*
X0081300Y0096300D03*
D14*
X0068800Y0083800D01*
X0068800Y0071300D01*
X0063800Y0081300D02*
X0063800Y0088800D01*
X0071300Y0096300D01*
X0061300Y0096300D02*
X0058800Y0093800D01*
X0058800Y0071300D01*
X0053800Y0081300D02*
X0053800Y0093800D01*
X0051300Y0096300D01*
X0048800Y0088800D02*
X0041300Y0096300D01*
X0048800Y0088800D02*
X0048800Y0071300D01*
X0043800Y0081300D02*
X0043800Y0083800D01*
X0031300Y0096300D01*
M02*
